<?xml version="1.0" encoding="UTF-8" standalone="no"?>
<!-- Created with Inkscape (http://www.inkscape.org/) -->

<svg
   xmlns:dc="http://purl.org/dc/elements/1.1/"
   xmlns:cc="http://creativecommons.org/ns#"
   xmlns:rdf="http://www.w3.org/1999/02/22-rdf-syntax-ns#"
   xmlns:svg="http://www.w3.org/2000/svg"
   xmlns="http://www.w3.org/2000/svg"
   xmlns:sodipodi="http://sodipodi.sourceforge.net/DTD/sodipodi-0.dtd"
   xmlns:inkscape="http://www.inkscape.org/namespaces/inkscape"
   width="87.605614mm"
   height="95.709099mm"
   viewBox="0 0 87.605614 95.709099"
   version="1.1"
   id="svg5347"
   inkscape:version="0.92.4 (5da689c313, 2019-01-14)"
   sodipodi:docname="treefit-title-right.svg">
  <defs
     id="defs5341">
    <clipPath
       clipPathUnits="userSpaceOnUse"
       id="clipPath5930">
      <rect
         y="98.1157"
         x="-84.695129"
         height="97.872818"
         width="93.917015"
         id="rect5932"
         style="color:#000000;clip-rule:nonzero;display:inline;overflow:visible;visibility:visible;opacity:1;isolation:auto;mix-blend-mode:normal;color-interpolation:sRGB;color-interpolation-filters:linearRGB;solid-color:#000000;solid-opacity:1;fill:none;fill-opacity:1;fill-rule:nonzero;stroke:#ce5c00;stroke-width:0.24949549;stroke-linecap:butt;stroke-linejoin:miter;stroke-miterlimit:4;stroke-dasharray:none;stroke-dashoffset:0;stroke-opacity:1;color-rendering:auto;image-rendering:auto;shape-rendering:auto;text-rendering:auto;enable-background:accumulate" />
    </clipPath>
    <clipPath
       clipPathUnits="userSpaceOnUse"
       id="clipPath5934">
      <rect
         y="98.1157"
         x="-84.695129"
         height="97.872818"
         width="93.917015"
         id="rect5936"
         style="color:#000000;clip-rule:nonzero;display:inline;overflow:visible;visibility:visible;opacity:1;isolation:auto;mix-blend-mode:normal;color-interpolation:sRGB;color-interpolation-filters:linearRGB;solid-color:#000000;solid-opacity:1;fill:none;fill-opacity:1;fill-rule:nonzero;stroke:#ce5c00;stroke-width:0.24949549;stroke-linecap:butt;stroke-linejoin:miter;stroke-miterlimit:4;stroke-dasharray:none;stroke-dashoffset:0;stroke-opacity:1;color-rendering:auto;image-rendering:auto;shape-rendering:auto;text-rendering:auto;enable-background:accumulate" />
    </clipPath>
    <clipPath
       clipPathUnits="userSpaceOnUse"
       id="clipPath5938">
      <rect
         y="98.1157"
         x="-84.695129"
         height="97.872818"
         width="93.917015"
         id="rect5940"
         style="color:#000000;clip-rule:nonzero;display:inline;overflow:visible;visibility:visible;opacity:1;isolation:auto;mix-blend-mode:normal;color-interpolation:sRGB;color-interpolation-filters:linearRGB;solid-color:#000000;solid-opacity:1;fill:none;fill-opacity:1;fill-rule:nonzero;stroke:#ce5c00;stroke-width:0.24949549;stroke-linecap:butt;stroke-linejoin:miter;stroke-miterlimit:4;stroke-dasharray:none;stroke-dashoffset:0;stroke-opacity:1;color-rendering:auto;image-rendering:auto;shape-rendering:auto;text-rendering:auto;enable-background:accumulate" />
    </clipPath>
    <clipPath
       clipPathUnits="userSpaceOnUse"
       id="clipPath5942">
      <rect
         y="-151.2267"
         x="-162.71904"
         height="277.43478"
         width="266.22147"
         id="rect5944"
         style="color:#000000;clip-rule:nonzero;display:inline;overflow:visible;visibility:visible;opacity:1;isolation:auto;mix-blend-mode:normal;color-interpolation:sRGB;color-interpolation-filters:linearRGB;solid-color:#000000;solid-opacity:1;fill:none;fill-opacity:1;fill-rule:nonzero;stroke:#ce5c00;stroke-width:0.70723134;stroke-linecap:butt;stroke-linejoin:miter;stroke-miterlimit:4;stroke-dasharray:none;stroke-dashoffset:0;stroke-opacity:1;color-rendering:auto;image-rendering:auto;shape-rendering:auto;text-rendering:auto;enable-background:accumulate"
         transform="scale(1,-1)" />
    </clipPath>
  </defs>
  <sodipodi:namedview
     id="base"
     pagecolor="#ffffff"
     bordercolor="#666666"
     borderopacity="1.0"
     inkscape:pageopacity="0.0"
     inkscape:pageshadow="2"
     inkscape:zoom="0.7"
     inkscape:cx="314.42934"
     inkscape:cy="335.79575"
     inkscape:document-units="mm"
     inkscape:current-layer="layer1"
     showgrid="false"
     fit-margin-top="0"
     fit-margin-left="0"
     fit-margin-right="0"
     fit-margin-bottom="0"
     inkscape:window-width="1805"
     inkscape:window-height="1042"
     inkscape:window-x="1084"
     inkscape:window-y="169"
     inkscape:window-maximized="0" />
  <metadata
     id="metadata5344">
    <rdf:RDF>
      <cc:Work
         rdf:about="">
        <dc:format>image/svg+xml</dc:format>
        <dc:type
           rdf:resource="http://purl.org/dc/dcmitype/StillImage" />
        <dc:title></dc:title>
      </cc:Work>
    </rdf:RDF>
  </metadata>
  <g
     inkscape:label="layer 1"
     inkscape:groupmode="layer"
     id="layer1"
     transform="translate(78.383724,-98.1157)">
    <g
       transform="matrix(0.35277777,0,0,-0.35277777,-27.291467,151.46512)"
       id="g20"
       clip-path="url(#clipPath5942)">
      <path
         inkscape:connector-curvature="0"
         id="path22"
         style="fill:#ffffff;fill-opacity:1;fill-rule:nonzero;stroke:none"
         d="m 0,0 -19.399,11.661 c 0.691,1.308 0.969,2.841 0.682,4.408 -0.662,3.742 -4.238,6.231 -7.98,5.56 -3.649,-0.653 -6.1,-4.077 -5.591,-7.718 l -11.823,-2.53 c -0.964,3.333 -4.323,5.473 -7.822,4.841 -0.235,-0.043 -0.463,-0.092 -0.686,-0.155 l -12.502,33.87 c 1.831,1.039 2.907,3.132 2.517,5.325 -0.116,0.647 -0.359,1.235 -0.682,1.764 l 8.844,7.137 c 1.145,-1.151 2.819,-1.755 4.547,-1.441 0.451,0.079 0.872,0.236 1.273,0.427 L -41.526,51.3 c -0.789,-0.673 -1.209,-1.718 -1.01,-2.813 0.29,-1.64 1.85,-2.727 3.491,-2.428 1.637,0.289 2.731,1.849 2.436,3.487 -0.293,1.64 -1.862,2.732 -3.501,2.44 -0.197,-0.035 -0.388,-0.093 -0.57,-0.163 l -7.09,11.838 c 1.475,1.096 2.301,2.94 2.001,4.871 l 18.518,4.779 c 0.627,-1.462 2.197,-2.369 3.833,-2.073 1.903,0.34 3.159,2.158 2.82,4.057 -0.338,1.892 -2.151,3.155 -4.05,2.815 -1.832,-0.327 -3.052,-2.02 -2.843,-3.833 L -46.022,69.5 c -0.464,1.274 -1.404,2.278 -2.583,2.837 l 15.782,43.538 c 0.448,-0.092 0.925,-0.113 1.409,-0.023 1.984,0.354 3.309,2.248 2.952,4.238 -0.355,1.979 -2.259,3.306 -4.244,2.95 -0.681,-0.124 -1.271,-0.432 -1.756,-0.859 l -15.056,13.061 c 0.668,0.963 0.966,2.171 0.747,3.411 -0.451,2.487 -2.828,4.142 -5.312,3.698 -1.31,-0.238 -2.373,-1.012 -3.039,-2.052 l -10.733,5.354 c 0.446,1.097 0.601,2.317 0.376,3.569 -0.257,1.446 -0.986,2.688 -1.999,3.614 l 15.371,19.64 c 0.961,-0.603 2.132,-0.873 3.336,-0.658 2.336,0.418 3.949,2.469 3.902,4.768 l 49.524,6.269 c 0.506,-2.647 2.276,-4.744 4.576,-5.765 L 1.322,161.113 c -0.638,0.16 -1.316,0.209 -2.006,0.081 -2.587,-0.461 -4.301,-2.931 -3.842,-5.514 0.465,-2.578 2.933,-4.298 5.518,-3.839 2.576,0.464 4.291,2.931 3.829,5.517 -0.278,1.538 -1.268,2.757 -2.571,3.406 l 5.914,15.986 c 1.158,-0.344 2.412,-0.441 3.683,-0.215 0.933,0.168 1.798,0.502 2.574,0.955 l 15.957,-23.909 c -1.269,-1.054 -1.966,-2.733 -1.651,-4.477 0.397,-2.231 2.306,-3.812 4.49,-3.9 l 2.755,-42.183 c -0.188,-0.019 -0.378,-0.037 -0.572,-0.073 -3.233,-0.574 -5.796,-2.713 -7.046,-5.506 l -13.377,5.185 c 0.178,0.66 0.231,1.361 0.101,2.079 -0.464,2.584 -2.932,4.296 -5.515,3.835 -2.581,-0.461 -4.296,-2.927 -3.834,-5.511 0.465,-2.579 2.926,-4.297 5.513,-3.832 1.511,0.267 2.711,1.236 3.362,2.507 l 13.383,-5.191 c -0.486,-1.46 -0.619,-3.068 -0.327,-4.693 0.342,-1.924 1.243,-3.609 2.502,-4.918 L 14.357,70.146 c -1.023,0.779 -2.348,1.155 -3.711,0.908 -2.582,-0.461 -4.3,-2.929 -3.834,-5.513 0.366,-2.062 2.019,-3.549 3.991,-3.836 L 8.487,4.729 C 7.944,4.715 7.394,4.675 6.839,4.574 3.905,4.051 1.496,2.327 0,0 m 80.203,-119.475 c 3.393,0.611 5.649,3.847 5.037,7.237 -0.308,1.732 -1.307,3.162 -2.654,4.074 l 4.536,11.123 c 1.057,-0.22 2.164,-0.245 3.286,-0.049 1.554,0.279 2.922,0.954 4.049,1.896 l 0.719,0.689 c 1.84,1.938 2.604,4.657 2.092,7.497 -0.739,4.123 -4.421,7.023 -8.484,7.139 l -4.303,23.985 c 2.8,1.318 4.918,4.579 4.318,7.91 -0.256,1.428 -0.826,2.69 -1.743,3.67 l 11.166,15.251 c 0.835,-0.413 1.82,-0.58 2.807,-0.404 1.132,0.201 2.082,0.822 2.739,1.662 l 10.287,-6.371 c -0.257,-0.595 -0.355,-1.262 -0.23,-1.943 0.333,-1.85 2.098,-3.077 3.945,-2.745 1.842,0.328 3.07,2.096 2.743,3.942 -0.33,1.841 -2.097,3.07 -3.946,2.74 -0.806,-0.145 -1.482,-0.576 -1.977,-1.159 l -10.278,6.376 c 0.387,0.822 0.543,1.762 0.373,2.718 -0.06,0.304 -0.136,0.588 -0.246,0.86 l 38.005,21.54 c 0.577,-0.606 1.439,-0.923 2.335,-0.762 1.407,0.254 2.341,1.591 2.088,3 -0.251,1.411 -1.599,2.344 -3.005,2.094 -1.409,-0.25 -2.342,-1.599 -2.094,-3.006 0.035,-0.169 0.08,-0.329 0.147,-0.482 l -37.954,-21.504 c -0.967,1.414 -2.699,2.217 -4.496,1.894 -0.284,-0.052 -0.543,-0.13 -0.801,-0.227 l -6.942,13.558 c 1.069,0.761 1.67,2.084 1.418,3.456 -0.336,1.896 -2.153,3.155 -4.048,2.813 -1.901,-0.338 -3.158,-2.151 -2.818,-4.043 0.341,-1.904 2.152,-3.165 4.044,-2.822 0.18,0.029 0.347,0.085 0.515,0.148 l 6.944,-13.558 c -1.451,-0.963 -2.273,-2.725 -1.949,-4.543 0.2,-1.115 0.81,-2.048 1.63,-2.701 L 86.419,-43.604 c -1.583,1.293 -3.701,1.916 -5.864,1.527 -1.576,-0.281 -2.934,-1.052 -3.955,-2.124 L 55.194,-26.3 c 0.433,0.712 0.637,1.562 0.473,2.445 -0.338,1.89 -2.149,3.161 -4.05,2.818 -1.898,-0.341 -3.158,-2.155 -2.818,-4.048 0.339,-1.896 2.157,-3.161 4.05,-2.822 0.664,0.118 1.238,0.423 1.707,0.844 l 21.403,-17.904 c -1.117,-1.536 -1.636,-3.515 -1.273,-5.534 0.706,-3.946 4.302,-6.603 8.243,-5.896 0.274,0.049 0.615,0.126 0.608,0.156 l 4.241,-23.663 c -0.004,0.024 -0.354,-0.02 -0.623,-0.07 -3.357,-0.606 -5.821,-3.043 -6.72,-6.109 l -28.908,6.708 c 0.081,0.603 0.101,1.234 -0.011,1.862 -0.563,3.156 -3.567,5.26 -6.726,4.693 -2.576,-0.463 -4.449,-2.568 -4.735,-5.049 l -33.143,0.993 c -0.016,0.446 -0.051,0.888 -0.129,1.334 -0.51,2.844 -2.331,5.126 -4.722,6.341 l 10.411,22.919 c 1.087,-0.449 2.31,-0.604 3.551,-0.381 3.498,0.628 5.75,3.957 5.129,7.455 -0.619,3.424 -4.381,5.622 -7.339,5.204 l -3.28,18.318 c 5.86,1.161 9.19,6.395 8.194,11.923 -0.285,1.585 -0.889,3.014 -1.778,4.235 l 17.206,13.665 c 1.443,-1.544 3.626,-2.35 5.857,-1.949 3.505,0.627 5.841,3.978 5.217,7.481 -0.628,3.509 -3.976,5.838 -7.482,5.207 -3.496,-0.625 -5.83,-3.969 -5.203,-7.484 0.162,-0.914 0.518,-1.747 1.005,-2.473 L 16.364,1.25 c -1.742,1.968 -4.2,3.228 -6.881,3.441 l 2.312,56.978 c 0.177,0.012 0.354,0.008 0.529,0.037 2.581,0.469 4.305,2.934 3.841,5.513 -0.159,0.864 -0.554,1.622 -1.085,2.243 L 30.887,86.21 c 2.042,-1.735 4.794,-2.594 7.634,-2.165 l 1.199,-5.871 c -2.243,-0.711 -3.67,-2.972 -3.241,-5.345 0.459,-2.579 2.928,-4.296 5.507,-3.837 1.814,0.329 3.181,1.648 3.688,3.296 l 16.728,-3.217 c -0.039,-0.405 -0.034,-0.819 0.037,-1.242 0.313,-1.751 1.568,-3.087 3.146,-3.628 L 62.554,50.946 c -0.323,0.031 -0.648,0.029 -0.983,-0.031 -2.016,-0.36 -3.354,-2.278 -2.992,-4.297 0.359,-2.003 2.284,-3.344 4.299,-2.982 2.017,0.356 3.353,2.282 2.992,4.293 -0.238,1.332 -1.17,2.352 -2.342,2.797 l 3.026,13.258 c 0.455,-0.055 0.922,-0.069 1.399,0.018 1.353,0.244 2.454,1.041 3.141,2.109 l 7.701,-3.869 c -0.198,-0.575 -0.269,-1.198 -0.15,-1.825 0.349,-1.988 2.251,-3.312 4.241,-2.959 1.994,0.357 3.314,2.258 2.959,4.249 -0.116,0.635 -0.397,1.193 -0.78,1.655 l 11.286,12.122 c 0.727,-0.501 1.638,-0.73 2.574,-0.558 0.933,0.164 1.706,0.687 2.213,1.404 l 9.424,-4.787 c -0.182,-0.53 -0.248,-1.114 -0.14,-1.708 0.342,-1.883 2.128,-3.129 4.01,-2.794 1.882,0.339 3.131,2.135 2.792,4.013 -0.332,1.876 -2.132,3.132 -4.012,2.794 -0.928,-0.17 -1.702,-0.694 -2.208,-1.41 l -9.425,4.787 c 0.178,0.535 0.247,1.114 0.135,1.708 -0.33,1.879 -2.129,3.125 -4.007,2.787 -1.876,-0.335 -3.128,-2.13 -2.79,-4.008 0.102,-0.585 0.366,-1.102 0.717,-1.54 L 84.347,64.059 c -0.771,0.535 -1.746,0.789 -2.75,0.608 -1.004,-0.178 -1.833,-0.753 -2.367,-1.532 L 71.543,67 c 0.295,0.777 0.401,1.634 0.245,2.507 -0.458,2.585 -2.929,4.302 -5.51,3.844 -1.818,-0.328 -3.182,-1.654 -3.688,-3.302 l -16.733,3.216 c 0.042,0.409 0.04,0.819 -0.034,1.242 -0.435,2.447 -2.696,4.098 -5.129,3.861 l -1.2,5.875 c 4.814,1.242 7.932,5.997 7.044,10.965 -0.136,0.764 -0.369,1.484 -0.667,2.168 l 26.911,13.536 c 1.007,-1.563 2.882,-2.455 4.833,-2.103 2.584,0.462 4.301,2.929 3.839,5.505 -0.467,2.586 -2.934,4.309 -5.518,3.84 -2.58,-0.456 -4.297,-2.929 -3.832,-5.513 0.05,-0.289 0.137,-0.566 0.239,-0.832 L 45.425,98.261 c -1.708,2.989 -4.936,4.881 -8.457,4.828 l -2.759,42.172 c 0.01,0.005 0.021,0.007 0.033,0.009 2.58,0.463 4.305,2.936 3.839,5.513 -0.459,2.586 -2.935,4.299 -5.514,3.836 -0.494,-0.084 -0.94,-0.265 -1.358,-0.486 l -15.952,23.91 c 2.284,1.745 3.543,4.674 3.002,7.705 -0.259,1.434 -0.895,2.705 -1.782,3.741 l 10.197,9.864 c 1.26,-1.096 2.982,-1.631 4.758,-1.315 1.948,0.355 3.488,1.651 4.23,3.34 l 13.402,-4.505 c -0.184,-0.749 -0.213,-1.541 -0.073,-2.352 0.479,-2.676 2.755,-4.574 5.369,-4.693 l 0.289,-6.928 c -2.003,-0.351 -3.334,-2.267 -2.975,-4.267 0.356,-1.998 2.272,-3.332 4.27,-2.977 2,0.363 3.326,2.274 2.968,4.271 -0.298,1.664 -1.671,2.85 -3.268,2.999 l -0.293,6.948 c 0.09,0.01 0.181,0.015 0.276,0.033 2.587,0.468 4.457,2.617 4.681,5.118 l 8.12,-0.005 c 0.008,-0.093 0.004,-0.183 0.02,-0.276 0.423,-2.347 2.669,-3.91 5.016,-3.487 0.076,0.011 0.146,0.045 0.221,0.062 l 11.666,-32.348 c -1.823,-0.89 -2.93,-2.891 -2.552,-4.994 0.453,-2.537 2.88,-4.223 5.413,-3.768 0.788,0.144 1.482,0.488 2.066,0.951 l 18.096,-18.341 c -0.612,-0.791 -0.909,-1.828 -0.717,-2.898 0.359,-2.004 2.278,-3.338 4.285,-2.983 2.013,0.362 3.356,2.282 2.996,4.293 -0.363,2.007 -2.289,3.345 -4.295,2.982 -0.591,-0.107 -1.116,-0.356 -1.561,-0.692 l -18.096,18.338 c 0.831,1.024 1.244,2.372 0.993,3.763 -0.454,2.543 -2.875,4.224 -5.412,3.77 -0.097,-0.015 -0.178,-0.058 -0.279,-0.08 l -11.67,32.347 c 1.675,0.834 2.684,2.679 2.338,4.613 -0.42,2.353 -2.662,3.916 -5.014,3.491 -1.923,-0.344 -3.298,-1.909 -3.511,-3.75 l -8.121,0.007 c -0.014,0.171 -0.032,0.348 -0.064,0.516 -0.284,1.587 -1.195,2.897 -2.426,3.729 l 10.133,18.237 c 0.693,-0.277 1.461,-0.385 2.256,-0.242 2.221,0.4 3.701,2.522 3.301,4.746 -0.401,2.23 -2.528,3.71 -4.746,3.312 -2.228,-0.4 -3.709,-2.526 -3.31,-4.755 0.192,-1.081 0.805,-1.98 1.628,-2.575 L 56.949,200.749 c -1.013,0.459 -2.168,0.623 -3.343,0.411 -1.953,-0.35 -3.489,-1.648 -4.228,-3.345 l -13.399,4.508 c 0.181,0.747 0.219,1.544 0.076,2.353 -0.504,2.796 -2.966,4.742 -5.726,4.702 l -0.985,-0.107 c -3.073,-0.586 -5.1,-3.529 -4.549,-6.613 0.182,-0.986 0.601,-1.869 1.187,-2.589 l -10.194,-9.862 c -1.766,1.603 -4.22,2.406 -6.741,1.953 -1.915,-0.346 -3.548,-1.352 -4.697,-2.735 l -14.607,10.677 c 0.812,1.307 1.165,2.905 0.872,4.534 -0.631,3.514 -3.985,5.842 -7.493,5.213 -1.922,-0.343 -3.486,-1.507 -4.403,-3.066 l -33.882,16.682 c 0.618,1.426 0.841,3.033 0.547,4.671 -0.107,0.598 -0.28,1.167 -0.502,1.698 l 14.031,7.101 c 0.784,-1.14 2.182,-1.781 3.631,-1.519 1.988,0.358 3.311,2.25 2.953,4.24 -0.355,1.984 -2.253,3.304 -4.241,2.945 -1.985,-0.353 -3.311,-2.253 -2.947,-4.24 0.028,-0.183 0.092,-0.362 0.149,-0.539 l -14.018,-7.099 c -1.663,2.928 -5.032,4.637 -8.527,4.009 -0.206,-0.035 -0.404,-0.085 -0.6,-0.135 l -3.75,11.628 c 2.415,1.016 3.896,3.592 3.416,6.275 -0.558,3.108 -3.536,5.175 -6.646,4.619 -0.242,-0.043 -0.475,-0.109 -0.707,-0.184 l -9.109,21.974 c 1.64,0.858 2.769,2.473 3.016,4.308 l 14.462,-0.701 c 0.014,-0.238 0.034,-0.474 0.079,-0.719 0.526,-2.943 3.337,-4.895 6.279,-4.369 2.946,0.528 4.902,3.338 4.375,6.277 -0.528,2.945 -3.342,4.9 -6.288,4.373 -2.352,-0.421 -4.079,-2.315 -4.395,-4.567 l -14.469,0.697 c -0.011,0.261 -0.032,0.519 -0.077,0.781 -0.394,2.204 -2.006,3.882 -4.009,4.474 l 6.847,33.806 c 0.495,-0.053 0.989,-0.057 1.499,0.032 2.885,0.514 4.805,3.279 4.292,6.16 -0.518,2.893 -3.274,4.81 -6.166,4.295 -2.89,-0.517 -4.805,-3.281 -4.288,-6.167 0.363,-2.03 1.846,-3.561 3.687,-4.122 l -6.842,-33.798 c -0.54,0.055 -1.095,0.044 -1.657,-0.059 -1.968,-0.349 -3.516,-1.676 -4.246,-3.396 l -38.631,12.565 c 0.091,0.478 0.108,0.969 0.014,1.471 -0.389,2.183 -2.479,3.636 -4.664,3.243 -2.19,-0.393 -3.65,-2.482 -3.257,-4.662 0.395,-2.197 2.484,-3.655 4.679,-3.259 1.338,0.243 2.389,1.119 2.926,2.263 l 38.618,-12.562 c -0.168,-0.733 -0.197,-1.51 -0.051,-2.304 0.136,-0.759 0.416,-1.461 0.814,-2.076 l -12.754,-9.861 c -0.902,0.902 -2.209,1.365 -3.561,1.119 -2.187,-0.389 -3.641,-2.481 -3.247,-4.657 0.39,-2.198 2.477,-3.642 4.667,-3.251 2.187,0.391 3.644,2.479 3.254,4.663 -0.088,0.485 -0.271,0.93 -0.51,1.333 l 12.763,9.872 c 1.279,-1.386 3.211,-2.11 5.205,-1.759 0.246,0.046 0.481,0.116 0.713,0.182 l 9.111,-21.974 c -2.159,-1.119 -3.435,-3.558 -2.984,-6.08 0.556,-3.104 3.524,-5.174 6.632,-4.616 0.091,0.019 0.174,0.038 0.263,0.062 l 3.747,-11.631 c -3.552,-1.393 -5.745,-5.136 -5.049,-9.041 0.02,-0.096 0.048,-0.196 0.068,-0.293 l -34.237,-9.186 c -0.304,0.755 -0.827,1.379 -1.475,1.82 l 5.436,10.717 c 0.643,-0.236 1.347,-0.325 2.071,-0.193 2.186,0.395 3.64,2.483 3.245,4.673 -0.388,2.187 -2.476,3.645 -4.669,3.249 -2.185,-0.392 -3.64,-2.48 -3.247,-4.671 0.2,-1.113 0.837,-2.034 1.71,-2.622 l -5.437,-10.718 c -0.648,0.237 -1.351,0.318 -2.072,0.195 -0.489,-0.091 -0.942,-0.278 -1.353,-0.519 l -26.801,34.243 c 0.889,0.903 1.346,2.204 1.108,3.545 -0.394,2.183 -2.485,3.639 -4.672,3.246 -2.188,-0.387 -3.646,-2.482 -3.255,-4.661 0.395,-2.202 2.487,-3.654 4.681,-3.261 0.491,0.09 0.948,0.273 1.355,0.521 l 26.8,-34.243 c -0.893,-0.905 -1.355,-2.201 -1.11,-3.55 0.064,-0.373 0.195,-0.714 0.353,-1.039 l -7.851,-5.119 c -0.764,0.865 -1.941,1.335 -3.161,1.112 -1.86,-0.329 -3.092,-2.107 -2.759,-3.971 0.333,-1.85 2.107,-3.096 3.966,-2.761 1.86,0.335 3.093,2.116 2.759,3.971 -0.054,0.29 -0.147,0.559 -0.263,0.816 l 7.852,5.118 c 0.895,-1.059 2.31,-1.638 3.774,-1.376 2.135,0.385 3.56,2.39 3.264,4.514 l 34.261,9.194 c 1.042,-2.983 3.71,-5.077 6.797,-5.414 l -0.863,-16.267 c -0.135,-0.011 -0.277,-0.007 -0.421,-0.032 -2.187,-0.393 -3.645,-2.484 -3.251,-4.672 0.395,-2.19 2.482,-3.645 4.675,-3.255 2.187,0.396 3.636,2.485 3.244,4.676 -0.306,1.702 -1.645,2.95 -3.246,3.242 l 0.855,16.261 c 0.448,0.007 0.895,0.039 1.349,0.119 2.439,0.438 4.434,1.926 5.597,3.916 l 33.889,-16.684 c -0.438,-1.081 -0.59,-2.296 -0.371,-3.537 0.629,-3.504 3.984,-5.844 7.493,-5.215 1.519,0.274 2.827,1.06 3.76,2.156 L 3.763,188.614 c -0.884,-1.38 -1.345,-3.041 -1.236,-4.768 l -49.521,-6.273 c -0.575,2.437 -2.953,4.04 -5.449,3.594 -2.583,-0.465 -4.295,-2.937 -3.836,-5.523 0.188,-1.015 0.691,-1.889 1.382,-2.557 l -15.358,-19.64 c -1.34,0.89 -3.01,1.288 -4.718,0.982 -0.096,-0.016 -0.183,-0.045 -0.284,-0.068 l -4.101,13.201 c 1.638,0.746 2.635,2.512 2.308,4.358 -0.393,2.192 -2.488,3.645 -4.674,3.256 -2.191,-0.396 -3.64,-2.484 -3.248,-4.675 0.391,-2.181 2.481,-3.636 4.666,-3.245 l 4.094,-13.183 c -2.585,-1.025 -4.263,-3.637 -4.055,-6.46 l -31.211,-4.702 c -0.577,2.139 -2.698,3.531 -4.925,3.13 -2.357,-0.42 -3.92,-2.668 -3.495,-5.023 0.418,-2.357 2.667,-3.923 5.024,-3.501 2.15,0.38 3.623,2.294 3.549,4.409 l 31.217,4.7 c 0.63,-2.747 2.956,-4.707 5.668,-4.965 l -0.26,-14.667 c -0.145,-0.016 -0.279,-0.01 -0.426,-0.036 -2.582,-0.463 -4.303,-2.933 -3.838,-5.517 0.459,-2.577 2.93,-4.299 5.515,-3.833 2.581,0.464 4.299,2.931 3.837,5.506 -0.376,2.1 -2.083,3.607 -4.097,3.86 l 0.266,14.671 c 0.248,0.011 0.5,0.039 0.752,0.086 1.913,0.341 3.471,1.498 4.392,3.039 l 10.746,-5.347 c -0.272,-0.746 -0.377,-1.55 -0.224,-2.385 0.443,-2.481 2.823,-4.144 5.313,-3.699 0.891,0.162 1.67,0.585 2.292,1.16 l 15.062,-13.067 c -0.494,-0.751 -0.716,-1.682 -0.547,-2.635 0.207,-1.152 0.94,-2.061 1.904,-2.569 L -49.54,72.681 c -0.683,0.177 -1.412,0.217 -2.158,0.087 -1.047,-0.187 -1.961,-0.683 -2.669,-1.372 l -19.81,16.652 c 0.411,0.667 0.597,1.466 0.445,2.293 -0.318,1.801 -2.042,2.985 -3.838,2.665 -1.791,-0.322 -2.983,-2.031 -2.661,-3.834 0.319,-1.788 2.034,-2.987 3.831,-2.666 0.608,0.112 1.146,0.39 1.583,0.779 l 19.81,-16.649 c -0.738,-1.066 -1.068,-2.415 -0.821,-3.789 0.124,-0.703 0.399,-1.343 0.765,-1.909 l -8.821,-7.119 c -1.146,1.229 -2.869,1.88 -4.647,1.56 -2.77,-0.498 -4.618,-3.146 -4.117,-5.919 0.494,-2.778 3.147,-4.621 5.917,-4.127 0.243,0.045 0.472,0.128 0.698,0.196 l 12.477,-33.816 c -1.946,-0.885 -3.351,-2.612 -3.841,-4.649 l -41.837,6.904 c 0.047,0.53 0.027,1.07 -0.068,1.619 -0.607,3.386 -3.85,5.641 -7.232,5.032 -3.391,-0.607 -5.652,-3.848 -5.039,-7.235 0.608,-3.389 3.844,-5.64 7.233,-5.031 2.494,0.444 4.372,2.318 4.947,4.629 l 41.83,-6.902 c -0.049,-0.6 -0.037,-1.217 0.081,-1.838 0.298,-1.694 1.201,-3.126 2.435,-4.128 l -6.366,-9.149 c -1.134,0.652 -2.493,0.924 -3.88,0.675 -3.126,-0.559 -5.207,-3.547 -4.647,-6.675 0.561,-3.125 3.545,-5.201 6.675,-4.641 3.125,0.562 5.208,3.544 4.647,6.672 -0.248,1.389 -0.976,2.565 -1.981,3.401 l 6.372,9.152 c 1.372,-0.823 3.032,-1.175 4.718,-0.869 3.66,0.653 6.107,4.078 5.599,7.726 l 11.819,2.529 c 0.967,-3.342 4.324,-5.468 7.82,-4.839 1.827,0.323 3.337,1.337 4.349,2.72 L -0.499,-0.866 c -1.002,-1.942 -1.4,-4.204 -0.986,-6.521 0.503,-2.801 2.097,-5.138 4.269,-6.643 l -6.187,-9.987 c -0.822,0.39 -1.76,0.549 -2.718,0.374 -2.449,-0.437 -4.074,-2.773 -3.639,-5.22 0.438,-2.44 2.777,-4.072 5.225,-3.631 2.439,0.436 4.067,2.777 3.629,5.218 -0.201,1.131 -0.822,2.078 -1.66,2.731 l 6.103,9.981 c 1.798,-1.011 4.021,-1.46 6.008,-1.268 l 3.296,-18.389 c -2.868,-0.911 -4.936,-4.033 -4.355,-7.262 0.342,-1.899 1.523,-3.436 3.061,-4.365 L 1.132,-68.809 c -1.446,0.54 -3.032,0.728 -4.659,0.434 -1.432,-0.259 -2.709,-0.855 -3.791,-1.677 l -27.087,31.76 c 1.343,1.35 2.026,3.3 1.667,5.31 -0.59,3.272 -3.724,5.457 -7.002,4.87 -3.271,-0.585 -5.449,-3.72 -4.862,-6.993 0.589,-3.285 3.714,-5.454 6.992,-4.868 0.915,0.162 1.744,0.528 2.449,1.041 l 27.088,-31.76 c -2.076,-1.992 -3.149,-4.939 -2.605,-7.982 0.278,-1.538 0.937,-2.912 1.868,-4.047 l -11.517,-10.737 c -1.36,1.214 -3.24,1.819 -5.173,1.471 -3.325,-0.595 -5.545,-3.783 -4.95,-7.108 0.598,-3.325 3.788,-5.549 7.113,-4.949 3.333,0.595 5.55,3.783 4.953,7.112 -0.188,1.049 -0.634,1.983 -1.254,2.76 l 11.501,10.724 c 1.98,-1.93 4.824,-2.914 7.754,-2.39 4.034,0.721 6.934,4.074 7.266,7.964 l 33.145,-0.978 c 0.016,-0.234 0.038,-0.475 0.08,-0.711 0.241,-1.359 0.943,-2.523 1.915,-3.357 l -9.369,-12.892 c -0.669,0.348 -1.441,0.504 -2.242,0.36 -1.899,-0.34 -3.153,-2.155 -2.813,-4.05 0.338,-1.896 2.147,-3.159 4.046,-2.821 1.902,0.339 3.162,2.161 2.821,4.052 -0.131,0.743 -0.496,1.39 -1.008,1.882 l 9.371,12.882 c 1.166,-0.698 2.583,-1.002 4.024,-0.748 2.186,0.39 3.851,1.96 4.498,3.931 l 28.947,-6.716 c -0.171,-0.97 -0.184,-1.985 0.001,-3.014 0.584,-3.254 2.91,-5.763 5.848,-6.732 l -4.439,-10.887 c -1.12,0.515 -2.404,0.709 -3.703,0.476 -3.395,-0.612 -5.647,-3.852 -5.038,-7.242 0.604,-3.396 3.847,-5.646 7.236,-5.036" />
    </g>
    <path
       d="m -27.291467,151.46512 -6.843527,-4.11374 c 0.24376,-0.46144 0.341841,-1.00225 0.240585,-1.55505 -0.233547,-1.32009 -1.495081,-2.19816 -2.815166,-1.96144 -1.287278,0.23036 -2.151936,1.43827 -1.97239,2.72274 l -4.170891,0.89252 c -0.340069,-1.17581 -1.525059,-1.93075 -2.759419,-1.70779 -0.08289,0.0152 -0.163328,0.0324 -0.242015,0.0547 l -4.410419,-11.94859 c 0.645928,-0.36654 1.025525,-1.1049 0.887942,-1.87854 -0.04093,-0.22825 -0.126656,-0.43568 -0.240586,-0.6223 l 3.119967,-2.51778 c 0.403913,0.40605 0.994463,0.61913 1.604063,0.50836 0.15912,-0.0279 0.307631,-0.0833 0.449104,-0.15064 l 2.503302,4.18006 c -0.278342,0.23743 -0.426508,0.60608 -0.356314,0.99237 0.102314,0.57856 0.652647,0.96203 1.231556,0.85655 0.577506,-0.10196 0.963427,-0.65229 0.859366,-1.23014 -0.103372,-0.57856 -0.656881,-0.96379 -1.235075,-0.86078 -0.06951,0.0124 -0.136869,0.0328 -0.201083,0.0575 l -2.501186,-4.17618 c 0.52033,-0.38665 0.811742,-1.03717 0.705909,-1.71839 l 6.532721,-1.68592 c 0.221192,0.51576 0.77507,0.83573 1.352206,0.73131 0.671327,-0.11995 1.114425,-0.7613 0.994833,-1.43122 -0.119247,-0.66746 -0.758825,-1.11302 -1.42875,-0.99307 -0.646297,0.11536 -1.076669,0.71261 -1.002956,1.3522 l -6.537325,1.68522 c -0.163671,-0.44944 -0.4953,-0.80363 -0.911225,-1.00083 l 5.567548,-15.35924 c 0.158036,0.0325 0.326311,0.0399 0.497073,0.008 0.699902,-0.12489 1.167341,-0.79305 1.0414,-1.49508 -0.125254,-0.69814 -0.796925,-1.16628 -1.497198,-1.04069 -0.240242,0.0437 -0.448389,0.1524 -0.619469,0.30303 l -5.311431,-4.60762 c 0.235664,-0.33973 0.340783,-0.76589 0.263525,-1.20333 -0.159094,-0.87736 -0.997664,-1.46121 -1.873964,-1.30457 -0.462122,0.084 -0.837142,0.35701 -1.072092,0.7239 l -3.786346,-1.88877 c 0.157321,-0.386996 0.21201,-0.817386 0.132635,-1.259063 -0.09067,-0.510117 -0.347847,-0.948267 -0.705194,-1.27494 l 5.42253,-6.928556 c 0.339037,0.212725 0.752131,0.307975 1.176867,0.232129 0.824097,-0.147463 1.393137,-0.871008 1.376547,-1.682046 l 17.470967,-2.211562 c 0.178514,0.933802 0.802931,1.673577 1.614302,2.033762 l -2.084546,5.636331 c -0.225081,-0.05644 -0.464264,-0.07373 -0.707681,-0.02857 -0.912627,0.162632 -1.517306,1.033992 -1.355381,1.945217 0.164042,0.90946 1.034706,1.51624 1.946645,1.354315 0.908738,-0.16369 1.513761,-1.033992 1.350778,-1.946275 -0.09808,-0.542573 -0.447331,-0.972608 -0.906992,-1.201563 l 2.086319,-5.639504 c 0.408517,0.121354 0.8509,0.155575 1.299289,0.07585 0.329142,-0.05927 0.634286,-0.177094 0.90805,-0.336902 l 5.629275,8.434565 c -0.447675,0.371826 -0.693552,0.964141 -0.582427,1.579385 0.140044,0.787048 0.813488,1.344787 1.583955,1.375837 l 0.97192,14.88122 c -0.06633,0.007 -0.13335,0.013 -0.201798,0.0257 -1.140539,0.20249 -2.0447,0.95709 -2.485681,1.94239 l -4.719108,-1.82915 c 0.06281,-0.23283 0.08149,-0.48013 0.03564,-0.73342 -0.163697,-0.91158 -1.034335,-1.51554 -1.94556,-1.35291 -0.910537,0.16263 -1.515534,1.03258 -1.35255,1.94416 0.164041,0.90982 1.032219,1.51589 1.944846,1.35185 0.533056,-0.0942 0.956389,-0.43604 1.186048,-0.88442 l 4.721225,1.83127 c -0.17145,0.51506 -0.218361,1.08232 -0.115359,1.65559 0.12065,0.67874 0.438494,1.27317 0.88265,1.73496 l -5.575644,5.9115 c -0.360891,-0.27481 -0.828331,-0.40746 -1.309158,-0.32032 -0.910881,0.16263 -1.516962,1.03328 -1.35255,1.94486 0.129117,0.72743 0.712258,1.25201 1.407927,1.35326 l -0.817033,20.09986 c -0.191558,0.005 -0.385577,0.0191 -0.581369,0.0547 -1.03505,0.1845 -1.884892,0.79269 -2.412656,1.61361 z m 28.2938269,42.14812 c 1.196975,-0.21555 1.992842,-1.35714 1.776942,-2.55305 -0.108638,-0.61101 -0.461063,-1.11549 -0.936255,-1.43722 l 1.6002,-3.92394 c 0.372878,0.0776 0.763403,0.0864 1.159219,0.0173 0.548217,-0.0984 1.030817,-0.33655 1.428406,-0.66886 l 0.25363,-0.24307 c 0.649129,-0.68368 0.918633,-1.64288 0.738029,-2.64477 -0.260721,-1.45451 -1.55964,-2.47756 -2.992967,-2.51848 l -1.51802,-8.46138 c 0.987795,-0.46496 1.734978,-1.61537 1.523312,-2.79047 -0.09033,-0.50377 -0.291412,-0.94897 -0.614892,-1.29469 l 3.939117,-5.38022 c 0.29456,0.1457 0.642038,0.20461 0.990229,0.14252 0.399362,-0.0709 0.734484,-0.28998 0.966259,-0.58631 l 3.6290251,2.24755 c -0.09065,0.2099 -0.125228,0.4452 -0.08112,0.68544 0.117475,0.65264 0.740119,1.0855 1.391709,0.96838 0.649816,-0.11571 1.083013,-0.73942 0.967663,-1.39065 -0.116419,-0.64947 -0.739778,-1.08303 -1.392055,-0.96661 -0.284348,0.0512 -0.522817,0.2032 -0.697442,0.40886 l -3.6258501,-2.24931 c 0.136525,-0.28998 0.191559,-0.62159 0.131578,-0.95885 -0.02117,-0.10724 -0.04797,-0.20743 -0.08678,-0.30339 l 13.4073191,-7.59883 c 0.20357,0.21378 0.50765,0.32562 0.82375,0.26882 0.49636,-0.0896 0.82584,-0.56127 0.7366,-1.05834 -0.0886,-0.49776 -0.56409,-0.82691 -1.06011,-0.73871 -0.49707,0.0882 -0.82621,0.56409 -0.73871,1.06045 0.0124,0.0596 0.0282,0.11606 0.0519,0.17004 l -13.3893281,7.58613 c -0.341153,-0.49883 -0.952156,-0.78211 -1.586097,-0.66816 -0.100198,0.0183 -0.191559,0.0459 -0.282575,0.0801 l -2.448984,-4.78296 c 0.377111,-0.26847 0.589148,-0.73519 0.500248,-1.2192 -0.118533,-0.66887 -0.759539,-1.11302 -1.428062,-0.99237 -0.670613,0.11924 -1.114055,0.75883 -0.994119,1.42629 0.120306,0.67169 0.759169,1.11654 1.426633,0.99554 0.0635,-0.0102 0.122423,-0.03 0.18169,-0.0522 l 2.449671,4.78297 c -0.511863,0.33972 -0.801846,0.96131 -0.687546,1.60266 0.07054,0.39335 0.28575,0.72249 0.575019,0.95286 l -3.894323,5.32059 c -0.55843,-0.45614 -1.305613,-0.67592 -2.068671,-0.53869 -0.55599599,0.0991 -1.03504999,0.37112 -1.39525399,0.7493 l -7.55155201,-6.31507 c 0.152744,-0.25118 0.22471,-0.55104 0.166872,-0.86255 -0.119247,-0.66675 -0.758137,-1.11513 -1.42875,-0.99413 -0.669581,0.1203 -1.1140809,0.76024 -0.9941449,1.42805 0.1195919,0.66887 0.7609419,1.11513 1.4287499,0.99554 0.234262,-0.0416 0.436748,-0.14923 0.602192,-0.29775 l 7.55052001,6.31614 c -0.39407,0.54186 -0.57716201,1.24001 -0.449104,1.95227 0.249079,1.39206 1.51765,2.32939 2.90795599,2.07998 0.09665,-0.0173 0.216959,-0.0445 0.214498,-0.055 l 1.496113,8.34778 c -0.0026,-0.008 -0.124883,0.007 -0.219763,0.0247 -1.184275,0.21378 -2.053537,1.0735 -2.370667,2.15512 l -10.1981,-2.36644 c 0.02858,-0.21272 0.03561,-0.43532 -0.004,-0.65687 -0.198623,-1.11337 -1.2583589,-1.85561 -2.3727839,-1.65558 -0.908764,0.16333 -1.569508,0.90593 -1.670394,1.78117 l -11.692122,-0.35031 c -0.0056,-0.15734 -0.01799,-0.31326 -0.04551,-0.4706 -0.179916,-1.0033 -0.822325,-1.80834 -1.665816,-2.23697 l 3.67276,-8.08531 c 0.383487,0.1584 0.814917,0.21308 1.252723,0.13441 1.234017,-0.22155 2.028481,-1.39594 1.809406,-2.62996 -0.218387,-1.20791 -1.545537,-1.98332 -2.589054,-1.83586 l -1.157102,-6.46218 c 2.067269,-0.40957 3.242019,-2.25601 2.890652,-4.20617 -0.100541,-0.55915 -0.31361,-1.06327 -0.627221,-1.49401 l 6.069886,-4.82071 c 0.509058,0.54469 1.279181,0.82903 2.06621,0.68756 1.236504,-0.22119 2.060575,-1.40335 1.840442,-2.63913 -0.221536,-1.2379 -1.402636,-2.05951 -2.639483,-1.83691 -1.233303,0.22048 -2.056686,1.40017 -1.835494,2.64019 0.05715,0.32244 0.182747,0.6163 0.354541,0.87242 l -6.062477,4.82212 c -0.614548,-0.69427 -1.481667,-1.13877 -2.427473,-1.21391 l 0.815618,-20.1007 c 0.06244,-0.004 0.124884,-0.003 0.186611,-0.013 0.910511,-0.16545 1.518708,-1.03505 1.355011,-1.94486 -0.05609,-0.3048 -0.195422,-0.57221 -0.382747,-0.79128 l 5.576359,-5.90833 c 0.720354,0.61207 1.691216,0.91511 2.693088,0.76377 l 0.422989,2.07116 c -0.791289,0.25082 -1.294686,1.04845 -1.143344,1.88559 0.161925,0.90982 1.032933,1.51554 1.94273,1.35361 0.639947,-0.11606 1.122203,-0.58137 1.301062,-1.16275 l 5.9012659,1.13488 c -0.01376,0.14288 -0.01191,0.28893 0.01296,0.43815 0.110411,0.61772 0.553164,1.08903 1.109848,1.27988 l -1.069282,4.67607 c -0.11393,-0.0109 -0.2286,-0.0102 -0.346763,0.0109 -0.7112,0.127 -1.183217,0.80362 -1.055529,1.51588 0.126656,0.70661 0.805762,1.17969 1.516592,1.05199 0.71157,-0.12559 1.182872,-0.80504 1.055528,-1.51448 -0.08398,-0.4699 -0.41275,-0.82973 -0.826214,-0.98672 l 1.067514,-4.67713 c 0.160497,0.0194 0.325253,0.0243 0.493528,-0.006 0.477308,-0.0861 0.865716,-0.36724 1.108075,-0.74401 l 2.71674101,1.3649 c -0.06985,0.20285 -0.09491,0.42263 -0.05292,0.64382 0.12311,0.70132 0.79409399,1.1684 1.49613899,1.04387 0.703421,-0.12594 1.169088,-0.79657 1.043861,-1.49895 -0.04093,-0.22402 -0.140044,-0.42087 -0.275167,-0.58385 l 3.98145,-4.27637 c 0.256461,0.17674 0.57785,0.25752 0.90805,0.19685 0.329142,-0.0579 0.601848,-0.24236 0.780706,-0.4953 l 3.3245691,1.68875 c -0.06421,0.18697 -0.0875,0.39299 -0.0494,0.60254 0.12065,0.66428 0.750729,1.10384 1.414648,0.98566 0.663919,-0.11959 1.104556,-0.75318 0.984964,-1.4157 -0.117131,-0.66181 -0.752131,-1.1049 -1.415362,-0.98566 -0.327369,0.06 -0.600419,0.24483 -0.778933,0.49742 l -3.3249131,-1.68875 c 0.06279,-0.18874 0.08713,-0.39299 0.04762,-0.60254 -0.116417,-0.66287 -0.751073,-1.10244 -1.413589,-0.9832 -0.661803,0.11819 -1.103498,0.75142 -0.98425,1.41394 0.03598,0.20637 0.129116,0.38876 0.252941,0.54328 l -3.981794,4.27319 c -0.271991,-0.18873 -0.61595,-0.27834 -0.970147,-0.21448 -0.354198,0.0628 -0.64664199,0.26564 -0.83502499,0.54045 l -2.71179401,-1.36349 c 0.10406,-0.2741 0.141446,-0.57644 0.08641,-0.88441 -0.161555,-0.91193 -1.033278,-1.51765 -1.943788,-1.35608 -0.64135,0.11571 -1.122548,0.5835 -1.301062,1.16488 L -11.1143,125.61888 c 0.01482,-0.14429 0.01402,-0.28892 -0.01191,-0.43815 -0.153458,-0.86325 -0.951071,-1.44568 -1.809379,-1.36208 l -0.423333,-2.07256 c 1.698254,-0.43815 2.798233,-2.11561 2.484966,-3.86821 -0.048,-0.26953 -0.130175,-0.52353 -0.23532,-0.76483 l 9.4936199,-4.7752 c 0.35523,0.5514 1.01668801,0.86608 1.70497501,0.7419 0.91156899,-0.16299 1.51727999,-1.03329 1.35429599,-1.94205 -0.164729,-0.91228 -1.03504999,-1.52011 -1.94661899,-1.35466 -0.91016601,0.16086 -1.51587701,1.03329 -1.35183501,1.94486 0.01773,0.10195 0.04831,0.19968 0.0843,0.29351 l -9.4960539,4.77944 c -0.602563,-1.05446 -1.741329,-1.72191 -2.983442,-1.70321 l -0.97331,-14.8774 c 0.0034,-0.002 0.0074,-0.002 0.01164,-0.003 0.910166,-0.16334 1.518708,-1.035757 1.354323,-1.944865 -0.161925,-0.912283 -1.035421,-1.516592 -1.945217,-1.353254 -0.174281,0.02963 -0.331629,0.09349 -0.479081,0.17145 l -5.62745,-8.434895 c 0.805736,-0.615598 1.249892,-1.648884 1.059022,-2.718155 -0.09136,-0.505883 -0.315728,-0.954262 -0.62865,-1.319742 l 3.597275,-3.4798 c 0.4445,0.386647 1.051983,0.575382 1.678516,0.463905 0.687229,-0.125238 1.230498,-0.582438 1.49225,-1.17828 l 4.7279459,1.589265 c -0.06493,0.264232 -0.07514,0.543632 -0.02566,0.829734 0.1689897,0.944033 0.9719207,1.613606 1.8940727,1.655585 l 0.101944,2.444046 c -0.706596,0.123825 -1.176152,0.799745 -1.049496,1.505302 0.125571,0.70485 0.801502,1.175456 1.506352,1.050218 0.705564,-0.128058 1.173348,-0.802216 1.047036,-1.506712 -0.105122,-0.586998 -0.589495,-1.005391 -1.152872,-1.057956 l -0.103373,-2.4511 c 0.03175,-0.0035 0.06387,-0.0053 0.09737,-0.01164 0.912653,-0.1651 1.572339,-0.923218 1.65137,-1.805516 l 2.864538,0.0019 c 0.0029,0.03281 0.0026,0.06456 0.0071,0.09737 0.149225,0.827969 0.941572,1.379361 1.769533,1.230136 0.0268,-0.0039 0.05151,-0.01588 0.07797,-0.02188 l 4.115488,11.411657 c -0.643097,0.313973 -1.033622,1.019881 -0.900272,1.761773 0.159809,0.894995 1.016,1.489779 1.909578,1.329267 0.277997,-0.0508 0.522816,-0.172157 0.728847,-0.335492 l 6.3838673,6.470299 c -0.2159,0.27904 -0.320675,0.64488 -0.252942,1.02235 0.12663,0.70696 0.803619,1.17757 1.511644,1.05233 0.710142,-0.1277 1.183931,-0.80504 1.056931,-1.51447 -0.128058,-0.70803 -0.807508,-1.18004 -1.515189,-1.05198 -0.208492,0.0378 -0.3937,0.12558 -0.550677,0.24412 L 4.8063369,97.892761 c 0.293158,-0.361246 0.438838,-0.836789 0.350308,-1.327504 -0.160179,-0.897112 -1.014254,-1.490133 -1.909233,-1.329971 -0.03424,0.0053 -0.06281,0.02045 -0.09842,0.02822 L -0.96788609,83.852149 c 0.590894,-0.294217 0.946838,-0.945092 0.824786,-1.627365 -0.148167,-0.830085 -0.93908601,-1.381477 -1.76881901,-1.231545 -0.678392,0.121354 -1.163479,0.673452 -1.238621,1.322916 l -2.864908,-0.0024 c -0.005,-0.06032 -0.01138,-0.122767 -0.02249,-0.182033 -0.100197,-0.559859 -0.42156,-1.021998 -0.855847,-1.315509 l 3.574706,-6.433608 c 0.244475,0.09772 0.515408,0.135819 0.795866,0.08537 0.783511,-0.141111 1.30564,-0.889704 1.164511,-1.674284 -0.141446,-0.786693 -0.891805,-1.308804 -1.674283,-1.1684 -0.785972,0.141113 -1.308444,0.891117 -1.167686,1.677459 0.06773,0.381354 0.283977,0.6985 0.574331,0.908404 l -3.574706,6.434332 c -0.357373,-0.161925 -0.764831,-0.219779 -1.179327,-0.144991 -0.688975,0.123473 -1.230842,0.581379 -1.491562,1.180041 l -4.7268609,-1.59032 c 0.06384,-0.263525 0.07726,-0.54469 0.0268,-0.830088 -0.1778,-0.986367 -1.046321,-1.672871 -2.019988,-1.65876 l -0.347503,0.03775 c -1.084078,0.206727 -1.799167,1.244952 -1.604778,2.332918 0.06422,0.34784 0.212011,0.659342 0.418756,0.913342 l -3.596216,3.479094 c -0.623013,-0.565504 -1.488729,-0.848786 -2.378073,-0.688977 -0.675587,0.122062 -1.251665,0.476956 -1.657006,0.964848 l -5.153025,-3.766609 c 0.286464,-0.461081 0.410977,-1.024818 0.307631,-1.599493 -0.222621,-1.239663 -1.405837,-2.06093 -2.643373,-1.839032 -0.678048,0.121002 -1.229783,0.531636 -1.553289,1.081617 l -11.952817,-5.88504 c 0.218017,-0.50306 0.296704,-1.069975 0.192987,-1.647825 -0.03776,-0.21096 -0.0988,-0.411691 -0.177112,-0.599016 l 4.949825,-2.505075 c 0.276595,0.402166 0.769779,0.628298 1.280954,0.535871 0.701304,-0.126296 1.168029,-0.79375 1.041744,-1.49578 -0.125228,-0.69991 -0.794809,-1.165577 -1.49614,-1.038929 -0.700246,0.124529 -1.168029,0.794809 -1.039627,1.495777 0.0098,0.06456 0.03246,0.127707 0.05257,0.190148 l -4.945248,2.504369 c -0.586661,-1.032933 -1.775169,-1.635831 -3.008127,-1.414285 -0.07268,0.01236 -0.142531,0.02998 -0.211667,0.04762 l -1.322917,-4.1021 c 0.851959,-0.358423 1.374405,-1.26718 1.205072,-2.213682 -0.19685,-1.096433 -1.247405,-1.825625 -2.344553,-1.629478 -0.08538,0.01516 -0.16756,0.03845 -0.249422,0.06491 l -3.213444,-7.752091 c 0.578564,-0.302684 0.976841,-0.872419 1.063969,-1.519767 l 5.101881,0.247298 c 0.005,0.08396 0.01191,0.167217 0.02786,0.253648 0.185579,1.038225 1.177237,1.726846 2.215092,1.541285 1.039283,-0.186266 1.729317,-1.177573 1.54342,-2.214385 -0.186266,-1.038931 -1.178983,-1.728613 -2.218266,-1.542698 -0.829734,0.148519 -1.43899,0.816682 -1.550459,1.611135 l -5.104338,-0.24588 c -0.004,-0.09207 -0.01138,-0.183092 -0.02717,-0.275518 -0.138986,-0.777524 -0.707681,-1.369484 -1.414277,-1.57833 l 2.41546,-11.926004 c 0.174625,0.01871 0.348906,0.02011 0.528823,-0.0113 1.017743,-0.181326 1.695077,-1.156758 1.514102,-2.17311 -0.182722,-1.020588 -1.154986,-1.696863 -2.175219,-1.515181 -1.019519,0.182385 -1.695106,1.157465 -1.512703,2.175581 0.128059,0.716137 0.651219,1.256242 1.300692,1.45415 l -2.413714,11.923184 c -0.1905,-0.01939 -0.386292,-0.01553 -0.584544,0.02082 -0.694267,0.123122 -1.240367,0.591257 -1.497912,1.198034 l -13.628158,-4.43265 c 0.03212,-0.168627 0.0381,-0.341842 0.005,-0.518935 -0.13724,-0.770115 -0.874528,-1.2827 -1.645365,-1.144059 -0.772583,0.138642 -1.287621,0.875594 -1.148979,1.64465 0.139329,0.775052 0.8763,1.289402 1.650629,1.149702 0.472017,-0.08573 0.842804,-0.394758 1.032246,-0.798335 l 13.623554,4.431593 c -0.05927,0.258586 -0.06948,0.532694 -0.01799,0.8128 0.04799,0.267759 0.146764,0.515409 0.287178,0.732367 l -4.499345,3.478742 c -0.318188,-0.318207 -0.779277,-0.481542 -1.256242,-0.394759 -0.771525,0.137232 -1.284446,0.875242 -1.14546,1.642886 0.137583,0.775406 0.873839,1.284816 1.646422,1.146881 0.771525,-0.137935 1.285505,-0.874535 1.147922,-1.645002 -0.03104,-0.171098 -0.09559,-0.328083 -0.179917,-0.470254 l 4.50252,-3.482621 c 0.451194,0.48895 1.132761,0.74436 1.836209,0.620535 0.08678,-0.01622 0.169677,-0.04092 0.251512,-0.06421 l 3.214159,7.75194 c -0.76163,0.394759 -1.211792,1.255184 -1.052671,2.14489 0.196135,1.095021 1.243171,1.825271 2.339604,1.628421 0.03212,-0.0067 0.06138,-0.01342 0.09279,-0.02188 l 1.321859,4.103158 c -1.253067,0.491421 -2.026709,1.811867 -1.781175,3.189465 0.0071,0.03387 0.01693,0.06914 0.02408,0.103364 l -12.07807,3.240617 c -0.107236,-0.266348 -0.29173,-0.486481 -0.52033,-0.642056 l 1.9177,-3.780719 c 0.226827,0.08325 0.475192,0.114652 0.730594,0.06808 0.771181,-0.139348 1.284102,-0.875948 1.144773,-1.648531 -0.136896,-0.771525 -0.873496,-1.285875 -1.647137,-1.146175 -0.770811,0.13829 -1.284103,0.87489 -1.145461,1.647825 0.07056,0.392642 0.295275,0.71755 0.60325,0.924983 l -1.918044,3.781073 c -0.2286,-0.08361 -0.47662,-0.112183 -0.730964,-0.06879 -0.172509,0.0321 -0.332317,0.09807 -0.477309,0.183091 L -75.779485,62.58311 c 0.313637,-0.318559 0.474848,-0.777523 0.390896,-1.250598 -0.139012,-0.770113 -0.876671,-1.283759 -1.648196,-1.145117 -0.771869,0.136525 -1.286219,0.875596 -1.148291,1.644298 0.139356,0.776817 0.877358,1.28905 1.65137,1.150408 0.173196,-0.03175 0.334433,-0.09631 0.477996,-0.183798 l 9.454463,12.080169 c -0.31504,0.319265 -0.478023,0.776465 -0.391584,1.252363 0.02249,0.131585 0.06879,0.251883 0.124513,0.366535 l -2.769658,1.805869 c -0.269505,-0.305152 -0.684742,-0.470959 -1.115113,-0.392288 -0.656167,0.116063 -1.090798,0.743302 -0.973323,1.400879 0.117475,0.65264 0.743294,1.0922 1.399117,0.974021 0.656166,-0.118181 1.091141,-0.746479 0.973323,-1.400881 -0.01905,-0.102306 -0.05186,-0.197202 -0.09279,-0.287867 l 2.770002,-1.805516 c 0.315754,0.373591 0.814917,0.57785 1.331384,0.485423 0.753189,-0.135821 1.255897,-0.84314 1.151466,-1.59244 l 12.086537,-3.24344 c 0.367586,1.052338 1.308788,1.791055 2.397813,1.90994 l -0.304429,5.738635 c -0.04763,0.0039 -0.09774,0.0024 -0.148538,0.0113 -0.771525,0.138642 -1.285875,0.8763 -1.146862,1.648179 0.139329,0.772584 0.875585,1.285875 1.649227,1.148292 0.771525,-0.1397 1.2827,-0.876654 1.144402,-1.64959 -0.10795,-0.600427 -0.58031,-1.040693 -1.145117,-1.143706 l 0.301625,-5.736519 c 0.158063,-0.0024 0.315754,-0.01376 0.475907,-0.04198 0.860425,-0.154517 1.564216,-0.67945 1.974506,-1.381477 l 11.955277,5.885744 c -0.154517,0.381354 -0.208148,0.809979 -0.13089,1.247775 0.221907,1.236133 1.405467,2.061633 2.643373,1.839737 0.535861,-0.09666 0.997294,-0.373946 1.326436,-0.760589 l 5.150908,3.769431 c -0.311838,0.486833 -0.474477,1.072796 -0.436033,1.682044 l -17.469909,2.212975 c -0.202829,-0.859719 -1.041743,-1.425223 -1.922277,-1.267884 -0.911225,0.164042 -1.515189,1.036109 -1.353264,1.948392 0.06633,0.358069 0.243787,0.666398 0.487548,0.902052 l -5.417953,6.928556 c -0.472731,-0.313973 -1.061879,-0.454377 -1.664414,-0.346427 -0.03387,0.0056 -0.06456,0.01587 -0.100198,0.024 l -1.446742,-4.657018 c 0.57785,-0.263174 0.929588,-0.886177 0.814229,-1.537407 -0.138641,-0.773287 -0.877729,-1.285875 -1.648883,-1.148643 -0.772954,0.1397 -1.284129,0.8763 -1.145831,1.649235 0.137927,0.769408 0.875242,1.2827 1.646052,1.144765 l 1.444281,4.650668 c -0.911939,0.361598 -1.503891,1.283055 -1.430522,2.278946 l -11.01053,1.658764 c -0.20357,-0.7546 -0.951812,-1.245662 -1.737439,-1.104197 -0.831506,0.148167 -1.382898,0.941207 -1.232959,1.771997 0.147453,0.8315 0.940859,1.38395 1.772365,1.23508 0.758454,-0.13406 1.278096,-0.80927 1.252008,-1.5554 l 11.012646,-1.658052 c 0.22225,0.969082 1.042829,1.660522 1.999562,1.751542 l -0.09173,5.17419 c -0.05114,0.006 -0.09843,0.004 -0.150283,0.0127 -0.910881,0.16334 -1.517994,1.0347 -1.353952,1.94627 0.161925,0.90911 1.033621,1.51659 1.94556,1.3522 0.910511,-0.16369 1.516592,-1.03399 1.353609,-1.94239 -0.132636,-0.74084 -0.734828,-1.27247 -1.44534,-1.36173 l 0.09385,-5.1756 c 0.0875,-0.004 0.176398,-0.0138 0.265298,-0.0303 0.674846,-0.1203 1.224491,-0.52846 1.5494,-1.07209 l 3.79095,1.8863 c -0.09596,0.26318 -0.133006,0.54681 -0.07903,0.84138 0.156289,0.87524 0.995891,1.46191 1.874308,1.30492 0.314325,-0.0572 0.589148,-0.20637 0.808567,-0.40922 l 5.313547,4.60975 c -0.174281,0.26494 -0.252597,0.59337 -0.192987,0.92957 0.07303,0.4064 0.331629,0.72707 0.671698,0.90628 l -5.569294,15.36242 c -0.240956,-0.0624 -0.498131,-0.0765 -0.761312,-0.0307 -0.369358,0.066 -0.69178,0.24095 -0.941546,0.48401 l -6.988546,-5.87446 c 0.144992,-0.2353 0.210609,-0.51717 0.157004,-0.80892 -0.112183,-0.63535 -0.720381,-1.05304 -1.353979,-0.94015 -0.631825,0.1136 -1.052327,0.71649 -0.938741,1.35255 0.112553,0.63077 0.71755,1.05375 1.351491,0.94051 0.214498,-0.0395 0.404284,-0.13759 0.558456,-0.27482 l 6.988519,5.8734 c -0.26035,0.37606 -0.376766,0.85196 -0.289613,1.33668 0.04374,0.248 0.140759,0.47378 0.269875,0.67345 l -3.11187,2.51142 c -0.404283,-0.43356 -1.012111,-0.66322 -1.639358,-0.55033 -0.977186,0.17568 -1.629119,1.10984 -1.452378,2.08809 0.174281,0.98003 1.110192,1.6302 2.087378,1.45593 0.08573,-0.0159 0.166528,-0.0452 0.246247,-0.0691 l 4.401609,11.92953 c -0.686515,0.31221 -1.182159,0.92146 -1.355011,1.64007 l -14.759173,-2.43558 c 0.01667,-0.18697 0.0095,-0.37747 -0.02408,-0.57115 -0.214127,-1.1945 -1.358185,-1.99002 -2.551271,-1.77517 -1.196287,0.21413 -1.9939,1.35748 -1.777656,2.55234 0.214498,1.19557 1.356069,1.98967 2.551642,1.77483 0.879819,-0.15664 1.542335,-0.81774 1.745191,-1.63301 l 14.756686,2.43487 c -0.0172,0.21167 -0.01297,0.42933 0.02858,0.64841 0.105145,0.5976 0.423704,1.10278 0.859023,1.45626 l -2.245784,3.22757 c -0.40005,-0.23001 -0.879475,-0.32597 -1.368769,-0.23813 -1.102783,0.19721 -1.836922,1.25131 -1.639358,2.35479 0.197908,1.10243 1.250579,1.8348 2.354792,1.63724 1.102412,-0.19826 1.837266,-1.25024 1.639358,-2.35373 -0.0875,-0.49001 -0.344329,-0.90487 -0.698871,-1.19979 l 2.2479,-3.22863 c 0.484029,0.29034 1.069632,0.41452 1.664415,0.30657 1.291167,-0.23037 2.154423,-1.43863 1.975194,-2.72557 l 4.169489,-0.89217 c 0.341127,1.17898 1.525402,1.92899 2.758731,1.70709 0.644525,-0.11394 1.177211,-0.47166 1.534213,-0.95955 l 6.852021,4.12115 c -0.353484,0.68509 -0.493898,1.48307 -0.347848,2.30046 0.177456,0.98813 0.739775,1.81257 1.506008,2.3435 l -2.182627,3.5232 c -0.289983,-0.13759 -0.620898,-0.19368 -0.95885,-0.13194 -0.863971,0.15416 -1.437217,0.97825 -1.283758,1.8415 0.154516,0.86077 0.979646,1.43651 1.843246,1.28093 0.860425,-0.15381 1.434756,-0.97966 1.280239,-1.84079 -0.07091,-0.39899 -0.289983,-0.73308 -0.585602,-0.96344 l 2.152994,-3.52107 c 0.634285,0.35666 1.41851,0.51505 2.119498,0.44732 l 1.162737,6.48723 c -1.011766,0.32138 -1.741302,1.42275 -1.536329,2.56187 0.12065,0.66993 0.537263,1.21215 1.079844,1.53988 l -3.67419,8.10013 c -0.510116,-0.1905 -1.069604,-0.25683 -1.643591,-0.15311 -0.505169,0.0914 -0.955675,0.30162 -1.337363,0.59161 l -9.555692,-11.20422 c 0.473763,-0.47625 0.714719,-1.16417 0.588063,-1.87325 -0.208121,-1.15429 -1.313735,-1.92511 -2.47015,-1.71803 -1.153927,0.20638 -1.922277,1.31233 -1.715188,2.46698 0.207778,1.15887 1.310217,1.92405 2.466605,1.71732 0.322791,-0.0571 0.615262,-0.18627 0.86397,-0.36725 l 9.556036,11.20423 c -0.732367,0.70273 -1.110906,1.74237 -0.918977,2.81587 0.09805,0.54257 0.330544,1.02729 0.658971,1.42769 l -4.062942,3.78777 c -0.479769,-0.42827 -1.143,-0.6417 -1.82491,-0.51893 -1.172978,0.2099 -1.956144,1.33456 -1.74625,2.50754 0.210952,1.17299 1.336331,1.95757 2.509308,1.7459 1.175808,-0.2099 1.957917,-1.33456 1.747308,-2.50896 -0.06633,-0.37006 -0.223652,-0.69955 -0.442383,-0.97366 l 4.057306,-3.78319 c 0.6985,0.68086 1.7018,1.02799 2.735421,0.84314 1.423115,-0.25435 2.446179,-1.43722 2.563283,-2.80952 l 11.692838,0.34501 c 0.0056,0.0825 0.01349,0.16757 0.0282,0.25083 0.08504,0.47942 0.332687,0.89006 0.675587,1.18427 l -3.305175,4.54801 c -0.236008,-0.12276 -0.50837,-0.1778 -0.790945,-0.127 -0.669925,0.11995 -1.112309,0.76024 -0.992346,1.42875 0.119221,0.66887 0.757396,1.11443 1.427321,0.99519 0.670983,-0.11959 1.115483,-0.76235 0.995204,-1.42945 -0.04622,-0.26212 -0.174996,-0.49037 -0.3556,-0.66393 l 3.305862,-4.54449 c 0.411348,0.24624 0.911225,0.35349 1.419596,0.26388 0.7711539,-0.13758 1.3585289,-0.69144 1.5867859,-1.38677 l 10.211858,2.36926 c -0.06032,0.34219 -0.0649,0.70026 0,1.06327 0.206031,1.14794 1.026583,2.03306 2.063062,2.3749 l -1.565989,3.84069 c -0.395103,-0.18168 -0.84806899,-0.25012 -1.30632799,-0.16792 -1.197689,0.2159 -1.99215301,1.3589 -1.77731201,2.55482 0.213096,1.19803 1.35715401,1.99178 2.5527,1.77659 z"
       style="fill:none;stroke:#c0bdc6;stroke-width:0.35277775;stroke-linecap:butt;stroke-linejoin:miter;stroke-miterlimit:10;stroke-dasharray:none;stroke-opacity:1"
       id="path26"
       inkscape:connector-curvature="0"
       clip-path="url(#clipPath5938)" />
    <path
       d="m -67.863336,127.46913 -0.233178,-0.15592 c -0.717206,-0.53728 -1.186047,-1.39207 -1.179697,-2.36009 0.01243,-1.61784 1.332097,-2.91606 2.94886,-2.90548 0.717921,0.006 1.36525,0.27799 1.87079,0.71085 l 11.467385,-12.18988 c -0.6223,-0.63571 -1.003644,-1.50707 -0.998008,-2.46768 0.0061,-0.6544 0.193331,-1.26154 0.509772,-1.78224 l -3.25755,-2.31951 c -0.568325,0.65088 -1.556464,0.72496 -2.215435,0.16228 -0.662887,-0.5648 -0.741204,-1.56387 -0.176398,-2.22603 0.566553,-0.66322 1.563502,-0.7426 2.227448,-0.17674 0.58666,0.50165 0.713316,1.3402 0.342185,1.98684 l 3.252259,2.31458 c 0.45085,-0.61031 1.097835,-1.06998 1.844331,-1.28341 l 0.273394,-0.0677 c 0.230002,-0.0476 0.470244,-0.0709 0.714375,-0.0702 0.769408,0.008 1.47566,0.26212 2.048933,0.68757 l 9.694333,-12.039957 c -0.588777,-0.524933 -0.9652,-1.282345 -0.957791,-2.131835 0.01032,-1.56845 1.292939,-2.829983 2.860331,-2.816931 1.565963,0.01093 2.827496,1.290108 2.81551,2.856796 -0.0026,0.208843 -0.02786,0.412043 -0.07125,0.605718 l 5.840227,1.628424 c 0.378169,-1.135947 1.43899,-1.957213 2.69875,-1.94663 0.0042,0 0.0066,0.0011 0.01191,7.94e-4 l 0.704506,-11.601802 c -0.768694,-0.104069 -1.35644,-0.757767 -1.351492,-1.551162 0.0066,-0.864659 0.709798,-1.557867 1.575144,-1.55293 0.859737,0.0067 1.554692,0.7112 1.548712,1.574096 -0.0061,0.835377 -0.670295,1.507771 -1.49262,1.545519 l -0.703792,11.615912 c 0.76237,0.08608 1.427348,0.466021 1.885606,1.03223 l 9.06145,-6.610702 c -0.179202,-0.288925 -0.284348,-0.626534 -0.281861,-0.991659 0.0077,-1.029054 0.846667,-1.852437 1.874653,-1.846087 0.923581,0.0071 1.676744,0.687564 1.815756,1.570566 L 6.1095119,83.290515 c 0,-0.02716 -0.0056,-0.05186 -0.0071,-0.07973 0.0056,-0.548571 0.191902,-1.051279 0.493898,-1.461206 L 0.58883891,76.756362 c -0.2794,0.280106 -0.664977,0.452615 -1.091485,0.448733 -0.84844001,-0.0071 -1.52611701,-0.695325 -1.52048101,-1.540933 0.0071,-0.845256 0.695695,-1.525058 1.54270601,-1.519767 0.843147,0.0071 1.52259699,0.695325 1.51659099,1.54164 -0.0032,0.317852 -0.10125599,0.61101 -0.26775799,0.856192 l 6.00921699,4.99251 c 0.460031,-0.494948 1.112652,-0.806802 1.839039,-0.799748 0.970121,0.006 1.7991671,0.572913 2.2066251,1.387123 L 35.357526,71.584285 c -0.0872,-0.248356 -0.14182,-0.511527 -0.1397,-0.788106 0.003,-0.557036 0.21341,-1.060096 0.54891,-1.454502 l -12.85169,-12.26193 c -0.34007,0.30621 -0.78388,0.4953 -1.27706,0.489656 -0.084,7.94e-4 -0.16368,-0.01447 -0.24342,-0.024 l -1.32043,6.175376 c 0.62442,0.196144 1.07879,0.775758 1.0749,1.466144 -0.006,0.845608 -0.69496,1.524354 -1.53916,1.51765 -0.84773,-0.0053 -1.52684,-0.694619 -1.52049,-1.540579 0.007,-0.84455 0.6957,-1.525413 1.54342,-1.51765 0.0561,0 0.1097,0.01198 0.1651,0.01622 l 1.3208,-6.176786 c -0.78988,-0.231423 -1.36808,-0.956381 -1.36384,-1.822805 0.01,-1.045985 0.86394,-1.886653 1.90923,-1.877835 1.04458,0.0071 1.88561,0.860425 1.87889,1.906765 -0.004,0.450144 -0.1704,0.859012 -0.43604,1.1811 l 12.84994,12.261851 c 0.41275,-0.384175 0.96237,-0.621242 1.57163,-0.616657 1.26648,0.01093 2.28671,1.045985 2.27576,2.312458 -0.003,0.487186 -0.15875,0.932744 -0.4191,1.300692 l 20.9931,16.808098 c 0.12843,-0.132646 0.27588,-0.244829 0.44098,-0.3302 l -7.98513,-18.35538 c -0.11782,0.03598 -0.24519,0.06209 -0.37748,0.05856 -0.69778,-0.0028 -1.25941,-0.572558 -1.25481,-1.271762 0.006,-0.6985 0.57467,-1.259065 1.27246,-1.252363 0.6985,0.0024 1.25942,0.572913 1.25413,1.271765 -0.003,0.465315 -0.26035,0.866068 -0.635,1.081968 l 7.98123,18.352559 c 0.17992,-0.06032 0.36902,-0.09913 0.5687,-0.09807 0.95072,0.0071 1.71661,0.785284 1.70815,1.737077 0.003,0.01164 -0.003,0.01939 -0.003,0.03246 l 31.31185,3.397953 c 0.055,-0.314325 0.18381,-0.600781 0.36761,-0.846666 l -4.27603,-3.662892 c -0.22755,0.210608 -0.53198,0.3429 -0.86747,0.34149 -0.69956,-0.0046 -1.25941,-0.573617 -1.25555,-1.273527 0.005,-0.697442 0.57399,-1.259771 1.27354,-1.255183 0.69745,0.0053 1.25799,0.576437 1.25164,1.274233 0,0.26035 -0.0804,0.50165 -0.21659,0.702027 l 4.27038,3.657245 c 0.37042,-0.375708 0.88545,-0.608187 1.4559,-0.60466 0.52742,0.0053 1.00189,0.21449 1.35715,0.54751 L 123.75853,68.357683 c -0.23778,-0.29845 -0.38418,-0.67451 -0.381,-1.08585 0.008,-0.956733 0.78951,-1.726493 1.7459,-1.720143 0.72353,0.0074 1.33914,0.454377 1.59348,1.086202 l 15.39206,-4.926894 c -0.0225,-0.10795 -0.0388,-0.22225 -0.037,-0.33796 0.006,-0.84455 0.69426,-1.520826 1.53529,-1.515182 0.84067,0.0067 1.51977,0.695325 1.51236,1.538111 -0.004,0.841375 -0.69498,1.519414 -1.53635,1.512358 -0.62476,-0.0049 -1.15922,-0.38735 -1.39031,-0.92992 l -15.39769,4.918426 c 0.0296,0.129469 0.0483,0.264232 0.0483,0.402167 -0.008,0.956733 -0.78846,1.726848 -1.74519,1.71944 -0.44556,-0.0028 -0.84315,-0.178858 -1.14758,-0.454732 L 98.212846,92.650315 c 0.28715,0.353483 0.46424,0.796218 0.45966,1.287637 -0.004,0.890058 -0.59021,1.634067 -1.39171,1.899004 l 1.27389,5.013674 c 0.0617,-0.007 0.1224,-0.0166 0.18449,-0.0155 0.69639,0.004 1.25836,0.57362 1.25095,1.27177 0,0.15204 -0.0317,0.29457 -0.0797,0.42686 l 6.777914,3.40571 c 0.17958,-0.25646 0.47803,-0.42474 0.81527,-0.42192 0.54435,0.004 0.98319,0.44732 0.97755,0.99272 -0.004,0.5461 -0.44662,0.98284 -0.9906,0.9786 -0.54787,-0.002 -0.98496,-0.44767 -0.98107,-0.99236 0.003,-0.10724 0.0241,-0.20779 0.0557,-0.30409 l -6.780394,-3.40501 c -0.22543,0.34748 -0.61773,0.57679 -1.06434,0.57502 -0.69956,-0.006 -1.26222,-0.57573 -1.25624,-1.27352 0.005,-0.53729 0.34361,-0.99202 0.81952,-1.17017 l -1.27355,-5.006621 c -0.12277,0.02222 -0.24834,0.03634 -0.37745,0.03563 -1.11832,-0.0078 -2.0193,-0.922867 -2.00944,-2.040467 0,-0.02294 0.005,-0.04163 0.007,-0.06315 L 63.319156,90.44545 c -0.12136,0.638881 -0.59301,1.141235 -1.20438,1.3208 l 3.81847,18.35326 c 0.0423,-0.002 0.0825,-0.0109 0.12628,-0.0102 0.69744,0.004 1.25767,0.57291 1.25273,1.27177 -0.005,0.69885 -0.57574,1.26012 -1.27106,1.25518 -0.69956,-0.004 -1.26154,-0.57467 -1.25624,-1.27212 0.006,-0.55774 0.37041,-1.02235 0.87135,-1.18745 l -3.81775,-18.3522 c -0.0727,0.0095 -0.14394,0.02188 -0.21942,0.02045 -0.58246,-0.0053 -1.0908,-0.296688 -1.40089,-0.738365 l -3.60291,2.104673 c 0.0702,0.16016 0.10969,0.334785 0.10795,0.5207 -0.005,0.6985 -0.57362,1.259417 -1.27072,1.25377 -0.69921,-0.0046 -1.26082,-0.574675 -1.25695,-1.272468 0.007,-0.6985 0.57644,-1.259417 1.27354,-1.25589 0.41344,0.0042 0.77399,0.205671 1.00187,0.51294 l 3.60929,-2.1082 c -0.11007,-0.228952 -0.17711,-0.48401 -0.1764,-0.75424 0.005,-0.352777 0.11324,-0.67945 0.29668,-0.951442 l -20.99698,-16.80809 c -0.30586,0.33937 -0.71014,0.584904 -1.1684,0.69356 l 0.56692,3.32881 c 0.0656,-0.0053 0.12735,-0.01834 0.19402,-0.01799 1.04352,0.0071 1.88418,0.862541 1.87571,1.907823 -0.008,1.047043 -0.85936,1.88736 -1.905,1.879248 -1.04632,-0.0078 -1.88664,-0.860425 -1.87923,-1.907823 0.007,-0.88124 0.61841,-1.611135 1.43722,-1.816452 l -0.56833,-3.331988 c -0.0896,0.0088 -0.1725,0.024 -0.26352,0.02434 -0.88831,-0.0071 -1.64608,-0.523521 -2.02179,-1.265767 L 10.935877,82.379523 c 0.09914,0.272344 0.159808,0.56374 0.157348,0.870302 -0.0093,1.251305 -0.945092,2.2733 -2.1515921,2.441223 l 0.702733,8.5217 c 0.01032,-2.64e-4 0.0209,-0.0032 0.03069,-0.0024 1.0431731,0.006 1.8852361,0.860073 1.8767691,1.906765 0,0.227541 -0.04974,0.441325 -0.124169,0.64135 l 7.37587,3.379957 c 0.26601,-0.46178 0.76094,-0.773989 1.33281,-0.768697 0.8449,0.006 1.52435,0.693557 1.51622,1.540577 -0.005,0.84632 -0.69389,1.5233 -1.53775,1.51836 -0.84807,-0.007 -1.52646,-0.69639 -1.5194,-1.54164 0,-0.17357 0.0381,-0.33831 0.0921,-0.49318 l -7.377295,-3.379615 c -0.325967,0.587023 -0.94615,0.987073 -1.6633561,0.982133 -1.049152,-0.0092 -1.887008,-0.861835 -1.879944,-1.908175 0.0063,-0.940504 0.6985,-1.708502 1.598083,-1.848908 l -0.703077,-8.520642 c -0.02717,-0.0011 -0.05397,0.0078 -0.08255,0.0067 -1.256242,-0.01024 -2.282137,-0.950735 -2.443692,-2.160762 l -17.0063579,1.381477 c 0,0.0085 0.0029,0.01482 0.0026,0.02434 -0.0063,1.028348 -0.844206,1.852083 -1.870789,1.845381 -0.563378,-0.0035 -1.057275,-0.261408 -1.394513,-0.656873 l -9.057587,6.604352 c 0.298106,0.452966 0.472016,0.99554 0.466725,1.580798 -0.0026,0.37324 -0.08149,0.727427 -0.2159,1.05551 l 7.516997,3.543655 c 0.330915,-0.576792 0.945436,-0.967317 1.65735,-0.963438 1.043517,0.0081 1.88349,0.862189 1.87714,1.909233 -0.0074,1.046344 -0.860796,1.884894 -1.904312,1.877134 -1.04738,-0.007 -1.889469,-0.85937 -1.881347,-1.906413 0.0026,-0.233188 0.05043,-0.455789 0.132636,-0.661813 l -7.525464,-3.548237 c -0.481542,0.902759 -1.422744,1.516237 -2.516003,1.509887 -1.567047,-0.01304 -2.829269,-1.29187 -2.816939,-2.859968 0.0026,-0.209198 0.02963,-0.408517 0.07268,-0.60325 l -5.841656,-1.626659 c -0.378169,1.133827 -1.440736,1.952274 -2.702269,1.943807 -0.614548,-0.0049 -1.177925,-0.209905 -1.641131,-0.545748 l -9.691502,12.034664 c 0.737658,0.64488 1.202266,1.59385 1.1938,2.65077 -0.0053,0.8322 -0.302684,1.59632 -0.794094,2.18969 l 7.938902,7.09224 c 0.553508,-0.56126 1.324319,-0.91051 2.173473,-0.90452 1.665816,0.012 3.003894,1.37266 2.99085,3.03566 -0.01244,1.6637 -1.3716,3.0046 -3.035671,2.9912 -0.109696,-0.002 -0.216958,-0.008 -0.325596,-0.0198 l -2.011892,12.33382 c 1.371944,0.28751 2.399242,1.51095 2.387944,2.97145 -0.0026,0.18626 -0.02117,0.369 -0.05538,0.54786 l 16.969661,4.10669 c 0.317844,-1.05199 1.289764,-1.82104 2.445808,-1.81187 1.404064,0.0102 2.535052,1.15782 2.524469,2.56328 -0.0056,0.69427 -0.289269,1.31939 -0.740463,1.77412 l 11.1756299,12.41566 c 0.306228,-0.23671 0.687916,-0.38064 1.103497,-0.37817 0.993775,0.007 1.791759,0.82056 1.785753,1.81363 -0.0085,0.99166 -0.81915,1.79281 -1.813613,1.78399 -0.991659,-0.008 -1.791415,-0.81879 -1.784721,-1.81222 0.0034,-0.47413 0.194046,-0.90205 0.498131,-1.22202 L -16.75769,145.20509 c -0.441325,0.3556 -0.997294,0.57467 -1.606894,0.56903 -0.306229,2.6e-4 -0.594783,-0.0653 -0.862912,-0.16616 l -4.757552,10.91918 c 1.0033,0.49389 1.69156,1.52858 1.681691,2.72274 -0.0085,1.24318 -0.77081,2.30469 -1.848194,2.75836 l 7.603067,20.84141 c 0.264927,-0.0833 0.542925,-0.13829 0.836083,-0.13547 1.089713,0.008 2.0193,0.64664 2.467663,1.5614 l 4.5109869,-1.93464 c -0.06316,-0.18662 -0.103028,-0.381 -0.102314,-0.58878 0.0085,-0.99307 0.819864,-1.79282 1.813269,-1.78541 0.992029,0.007 1.792129,0.81774 1.78435,1.81222 -0.0056,0.6477 -0.353483,1.2072 -0.872411,1.51977 l 3.750019,7.45666 c 0.173567,-0.0663 0.360204,-0.10372 0.555625,-0.10195 0.82621501,0.005 1.49367901,0.68015 1.48695901,1.50777 -0.0071,0.8262 -0.68191101,1.49225 -1.51024201,1.48696 -0.826188,-0.006 -1.493308,-0.68087 -1.486958,-1.50848 0.004,-0.53164 0.284691,-0.99342 0.70522,-1.25624 l -3.747558,-7.4542 c -0.213784,0.0882 -0.447675,0.13618 -0.692521,0.13476 -0.6858,-0.006 -1.272804,-0.39793 -1.572313,-0.96484 l -4.5070969,1.93322 c 0.1143,0.30868 0.182747,0.63747 0.179916,0.98531 -0.01164,1.5367 -1.267169,2.77424 -2.804927,2.76225 -0.06562,-2.7e-4 -0.128058,-0.0145 -0.195792,-0.0205 l -0.278341,-0.0317 c -1.309529,-0.23459 -2.2987,-1.37618 -2.287059,-2.75272 0.0026,-0.33443 0.07371,-0.65299 0.184494,-0.95038 l -5.29836,-2.29835 c -0.305171,0.57256 -0.902415,0.96485 -1.59774,0.96167 -0.992716,-0.007 -1.793875,-0.82091 -1.782577,-1.81292 0,-0.46955 0.191188,-0.89289 0.487177,-1.21144 l -4.130675,-4.45876 c -0.206031,0.15134 -0.458258,0.242 -0.732022,0.23989 -0.674847,-0.006 -1.2192,-0.55633 -1.21285,-1.23261 0.0045,-0.67557 0.557741,-1.21849 1.231212,-1.21249 0.676963,0.004 1.220602,0.55668 1.213908,1.23154 -0.0026,0.30057 -0.117845,0.5708 -0.29845,0.78317 l 4.131363,4.46687 c 0.309033,-0.24412 0.696383,-0.39405 1.120775,-0.39158 0.993431,0.007 1.793187,0.8195 1.786123,1.81222 -0.0026,0.19932 -0.04339,0.3884 -0.104431,0.5662 l 5.300133,2.298 c 0.294931,-0.59372 0.785998,-1.07139 1.399487,-1.33103 l -7.597431,-20.83188 c -0.292444,0.0914 -0.601477,0.1397 -0.922523,0.13723 -1.6637,-0.012 -3.004608,-1.3723 -2.989421,-3.03565 0.0098,-1.663 1.369483,-3.00285 3.033871,-2.99085 0.371131,0.003 0.723556,0.0759 1.050925,0.20108 l 4.757209,-10.92059 c -0.837142,-0.42157 -1.411817,-1.2827 -1.405811,-2.28247 0,-0.15169 0.02143,-0.29916 0.04797,-0.44132 l -16.964025,-4.10528 c -0.36793,1.25977 -1.534927,2.17699 -2.915338,2.16747 -1.663012,-0.012 -3.001089,-1.37231 -2.990506,-3.03601 0.01191,-1.6637 1.373002,-3.00425 3.0353,-2.9905 0.110781,0 0.219419,0.009 0.325623,0.0201 l 2.014352,-12.33488 c -1.374061,-0.28963 -2.399586,-1.5113 -2.389002,-2.96898 0.0061,-0.71261 0.258577,-1.36419 0.67556,-1.87748 l -7.942448,-7.0926 c -0.640292,0.66111 -1.5367,1.07068 -2.528359,1.06398 -0.06736,-0.002 -0.134752,-0.008 -0.200369,-0.013 l -0.734827,6.96666 c 1.075611,0.18238 1.895475,1.11548 1.888067,2.24155 -0.01164,1.25059 -1.033648,2.25425 -2.281079,2.24402 -1.252008,-0.008 -2.256711,-1.02835 -2.248958,-2.27859 0.0093,-1.2499 1.031875,-2.2532 2.281422,-2.24579 0.02858,10e-4 0.05292,0.007 0.07937,0.009 l 0.736256,-6.96524 c -0.676989,-0.0977 -1.287303,-0.387 -1.77837,-0.81386 l -11.463491,12.18104 c 0.515752,0.53058 0.829733,1.25624 0.824786,2.05564 -0.01244,1.61854 -1.333156,2.91817 -2.950634,2.90583 -0.549619,-0.004 -1.056931,-0.17004 -1.49225,-0.43462"
       style="fill:#ffffff;fill-opacity:1;fill-rule:nonzero;stroke:none;stroke-width:0.35277775"
       id="path46"
       inkscape:connector-curvature="0"
       clip-path="url(#clipPath5934)" />
    <path
       d="m -67.863336,127.46913 -0.233178,-0.15592 c -0.717206,-0.53728 -1.186047,-1.39207 -1.179697,-2.36009 0.01243,-1.61784 1.332097,-2.91606 2.94886,-2.90548 0.717921,0.006 1.36525,0.27799 1.87079,0.71085 l 11.467385,-12.18988 c -0.6223,-0.63571 -1.003644,-1.50707 -0.998008,-2.46768 0.0061,-0.6544 0.193331,-1.26154 0.509772,-1.78224 l -3.25755,-2.31951 c -0.568325,0.65088 -1.556464,0.72496 -2.215435,0.16228 -0.662887,-0.5648 -0.741204,-1.56387 -0.176398,-2.22603 0.566553,-0.66322 1.563502,-0.7426 2.227448,-0.17674 0.58666,0.50165 0.713316,1.3402 0.342185,1.98684 l 3.252259,2.31458 c 0.45085,-0.61031 1.097835,-1.06998 1.844331,-1.28341 l 0.273394,-0.0677 c 0.230002,-0.0476 0.470244,-0.0709 0.714375,-0.0702 0.769408,0.008 1.47566,0.26212 2.048933,0.68757 l 9.694333,-12.039957 c -0.588777,-0.524933 -0.9652,-1.282345 -0.957791,-2.131835 0.01032,-1.56845 1.292939,-2.829983 2.860331,-2.816931 1.565963,0.01093 2.827496,1.290108 2.81551,2.856796 -0.0026,0.208843 -0.02786,0.412043 -0.07125,0.605718 l 5.840227,1.628424 c 0.378169,-1.135947 1.43899,-1.957213 2.69875,-1.94663 0.0042,0 0.0066,0.0011 0.01191,7.94e-4 l 0.704506,-11.601802 c -0.768694,-0.104069 -1.35644,-0.757767 -1.351492,-1.551162 0.0066,-0.864659 0.709798,-1.557867 1.575144,-1.55293 0.859737,0.0067 1.554692,0.7112 1.548712,1.574096 -0.0061,0.835377 -0.670295,1.507771 -1.49262,1.545519 l -0.703792,11.615912 c 0.76237,0.08608 1.427348,0.466021 1.885606,1.03223 l 9.06145,-6.610702 c -0.179202,-0.288925 -0.284348,-0.626534 -0.281861,-0.991659 0.0077,-1.029054 0.846667,-1.852437 1.874653,-1.846087 0.923581,0.0071 1.676744,0.687564 1.815756,1.570566 L 6.1095119,83.290515 c 0,-0.02716 -0.0056,-0.05186 -0.0071,-0.07973 0.0056,-0.548571 0.191902,-1.051279 0.493898,-1.461206 L 0.58883891,76.756362 c -0.2794,0.280106 -0.664977,0.452615 -1.091485,0.448733 -0.84844001,-0.0071 -1.52611701,-0.695325 -1.52048101,-1.540933 0.0071,-0.845256 0.695695,-1.525058 1.54270601,-1.519767 0.843147,0.0071 1.52259699,0.695325 1.51659099,1.54164 -0.0032,0.317852 -0.10125599,0.61101 -0.26775799,0.856192 l 6.00921699,4.99251 c 0.460031,-0.494948 1.112652,-0.806802 1.839039,-0.799748 0.970121,0.006 1.7991671,0.572913 2.2066251,1.387123 L 35.357526,71.584285 c -0.0872,-0.248356 -0.14182,-0.511527 -0.1397,-0.788106 0.003,-0.557036 0.21341,-1.060096 0.54891,-1.454502 l -12.85169,-12.26193 c -0.34007,0.30621 -0.78388,0.4953 -1.27706,0.489656 -0.084,7.94e-4 -0.16368,-0.01447 -0.24342,-0.024 l -1.32043,6.175376 c 0.62442,0.196144 1.07879,0.775758 1.0749,1.466144 -0.006,0.845608 -0.69496,1.524354 -1.53916,1.51765 -0.84773,-0.0053 -1.52684,-0.694619 -1.52049,-1.540579 0.007,-0.84455 0.6957,-1.525413 1.54342,-1.51765 0.0561,0 0.1097,0.01198 0.1651,0.01622 l 1.3208,-6.176786 c -0.78988,-0.231423 -1.36808,-0.956381 -1.36384,-1.822805 0.01,-1.045985 0.86394,-1.886653 1.90923,-1.877835 1.04458,0.0071 1.88561,0.860425 1.87889,1.906765 -0.004,0.450144 -0.1704,0.859012 -0.43604,1.1811 l 12.84994,12.261851 c 0.41275,-0.384175 0.96237,-0.621242 1.57163,-0.616657 1.26648,0.01093 2.28671,1.045985 2.27576,2.312458 -0.003,0.487186 -0.15875,0.932744 -0.4191,1.300692 l 20.9931,16.808098 c 0.12843,-0.132646 0.27588,-0.244829 0.44098,-0.3302 l -7.98513,-18.35538 c -0.11782,0.03598 -0.24519,0.06209 -0.37748,0.05856 -0.69778,-0.0028 -1.25941,-0.572558 -1.25481,-1.271762 0.006,-0.6985 0.57467,-1.259065 1.27246,-1.252363 0.6985,0.0024 1.25942,0.572913 1.25413,1.271765 -0.003,0.465315 -0.26035,0.866068 -0.635,1.081968 l 7.98123,18.352559 c 0.17992,-0.06032 0.36902,-0.09913 0.5687,-0.09807 0.95072,0.0071 1.71661,0.785284 1.70815,1.737077 0.003,0.01164 -0.003,0.01939 -0.003,0.03246 l 31.31185,3.397953 c 0.055,-0.314325 0.18381,-0.600781 0.36761,-0.846666 l -4.27603,-3.662892 c -0.22755,0.210608 -0.53198,0.3429 -0.86747,0.34149 -0.69956,-0.0046 -1.25941,-0.573617 -1.25555,-1.273527 0.005,-0.697442 0.57399,-1.259771 1.27354,-1.255183 0.69745,0.0053 1.25799,0.576437 1.25164,1.274233 0,0.26035 -0.0804,0.50165 -0.21659,0.702027 l 4.27038,3.657245 c 0.37042,-0.375708 0.88545,-0.608187 1.4559,-0.60466 0.52742,0.0053 1.00189,0.21449 1.35715,0.54751 L 123.75853,68.357683 c -0.23778,-0.29845 -0.38418,-0.67451 -0.381,-1.08585 0.008,-0.956733 0.78951,-1.726493 1.7459,-1.720143 0.72353,0.0074 1.33914,0.454377 1.59348,1.086202 l 15.39206,-4.926894 c -0.0225,-0.10795 -0.0388,-0.22225 -0.037,-0.33796 0.006,-0.84455 0.69426,-1.520826 1.53529,-1.515182 0.84067,0.0067 1.51977,0.695325 1.51236,1.538111 -0.004,0.841375 -0.69498,1.519414 -1.53635,1.512358 -0.62476,-0.0049 -1.15922,-0.38735 -1.39031,-0.92992 l -15.39769,4.918426 c 0.0296,0.129469 0.0483,0.264232 0.0483,0.402167 -0.008,0.956733 -0.78846,1.726848 -1.74519,1.71944 -0.44556,-0.0028 -0.84315,-0.178858 -1.14758,-0.454732 L 98.212846,92.650315 c 0.28715,0.353483 0.46424,0.796218 0.45966,1.287637 -0.004,0.890058 -0.59021,1.634067 -1.39171,1.899004 l 1.27389,5.013674 c 0.0617,-0.007 0.1224,-0.0166 0.18449,-0.0155 0.69639,0.004 1.25836,0.57362 1.25095,1.27177 0,0.15204 -0.0317,0.29457 -0.0797,0.42686 l 6.777914,3.40571 c 0.17958,-0.25646 0.47803,-0.42474 0.81527,-0.42192 0.54435,0.004 0.98319,0.44732 0.97755,0.99272 -0.004,0.5461 -0.44662,0.98284 -0.9906,0.9786 -0.54787,-0.002 -0.98496,-0.44767 -0.98107,-0.99236 0.003,-0.10724 0.0241,-0.20779 0.0557,-0.30409 l -6.780394,-3.40501 c -0.22543,0.34748 -0.61773,0.57679 -1.06434,0.57502 -0.69956,-0.006 -1.26222,-0.57573 -1.25624,-1.27352 0.005,-0.53729 0.34361,-0.99202 0.81952,-1.17017 l -1.27355,-5.006621 c -0.12277,0.02222 -0.24834,0.03634 -0.37745,0.03563 -1.11832,-0.0078 -2.0193,-0.922867 -2.00944,-2.040467 0,-0.02294 0.005,-0.04163 0.007,-0.06315 L 63.319156,90.44545 c -0.12136,0.638881 -0.59301,1.141235 -1.20438,1.3208 l 3.81847,18.35326 c 0.0423,-0.002 0.0825,-0.0109 0.12628,-0.0102 0.69744,0.004 1.25767,0.57291 1.25273,1.27177 -0.005,0.69885 -0.57574,1.26012 -1.27106,1.25518 -0.69956,-0.004 -1.26154,-0.57467 -1.25624,-1.27212 0.006,-0.55774 0.37041,-1.02235 0.87135,-1.18745 l -3.81775,-18.3522 c -0.0727,0.0095 -0.14394,0.02188 -0.21942,0.02045 -0.58246,-0.0053 -1.0908,-0.296688 -1.40089,-0.738365 l -3.60291,2.104673 c 0.0702,0.16016 0.10969,0.334785 0.10795,0.5207 -0.005,0.6985 -0.57362,1.259417 -1.27072,1.25377 -0.69921,-0.0046 -1.26082,-0.574675 -1.25695,-1.272468 0.007,-0.6985 0.57644,-1.259417 1.27354,-1.25589 0.41344,0.0042 0.77399,0.205671 1.00187,0.51294 l 3.60929,-2.1082 c -0.11007,-0.228952 -0.17711,-0.48401 -0.1764,-0.75424 0.005,-0.352777 0.11324,-0.67945 0.29668,-0.951442 l -20.99698,-16.80809 c -0.30586,0.33937 -0.71014,0.584904 -1.1684,0.69356 l 0.56692,3.32881 c 0.0656,-0.0053 0.12735,-0.01834 0.19402,-0.01799 1.04352,0.0071 1.88418,0.862541 1.87571,1.907823 -0.008,1.047043 -0.85936,1.88736 -1.905,1.879248 -1.04632,-0.0078 -1.88664,-0.860425 -1.87923,-1.907823 0.007,-0.88124 0.61841,-1.611135 1.43722,-1.816452 l -0.56833,-3.331988 c -0.0896,0.0088 -0.1725,0.024 -0.26352,0.02434 -0.88831,-0.0071 -1.64608,-0.523521 -2.02179,-1.265767 L 10.935877,82.379523 c 0.09914,0.272344 0.159808,0.56374 0.157348,0.870302 -0.0093,1.251305 -0.945092,2.2733 -2.1515921,2.441223 l 0.702733,8.5217 c 0.01032,-2.64e-4 0.0209,-0.0032 0.03069,-0.0024 1.0431731,0.006 1.8852361,0.860073 1.8767691,1.906765 0,0.227541 -0.04974,0.441325 -0.124169,0.64135 l 7.37587,3.379957 c 0.26601,-0.46178 0.76094,-0.773989 1.33281,-0.768697 0.8449,0.006 1.52435,0.693557 1.51622,1.540577 -0.005,0.84632 -0.69389,1.5233 -1.53775,1.51836 -0.84807,-0.007 -1.52646,-0.69639 -1.5194,-1.54164 0,-0.17357 0.0381,-0.33831 0.0921,-0.49318 l -7.377295,-3.379615 c -0.325967,0.587023 -0.94615,0.987073 -1.6633561,0.982133 -1.049152,-0.0092 -1.887008,-0.861835 -1.879944,-1.908175 0.0063,-0.940504 0.6985,-1.708502 1.598083,-1.848908 l -0.703077,-8.520642 c -0.02717,-0.0011 -0.05397,0.0078 -0.08255,0.0067 -1.256242,-0.01024 -2.282137,-0.950735 -2.443692,-2.160762 l -17.0063579,1.381477 c 0,0.0085 0.0029,0.01482 0.0026,0.02434 -0.0063,1.028348 -0.844206,1.852083 -1.870789,1.845381 -0.563378,-0.0035 -1.057275,-0.261408 -1.394513,-0.656873 l -9.057587,6.604352 c 0.298106,0.452966 0.472016,0.99554 0.466725,1.580798 -0.0026,0.37324 -0.08149,0.727427 -0.2159,1.05551 l 7.516997,3.543655 c 0.330915,-0.576792 0.945436,-0.967317 1.65735,-0.963438 1.043517,0.0081 1.88349,0.862189 1.87714,1.909233 -0.0074,1.046344 -0.860796,1.884894 -1.904312,1.877134 -1.04738,-0.007 -1.889469,-0.85937 -1.881347,-1.906413 0.0026,-0.233188 0.05043,-0.455789 0.132636,-0.661813 l -7.525464,-3.548237 c -0.481542,0.902759 -1.422744,1.516237 -2.516003,1.509887 -1.567047,-0.01304 -2.829269,-1.29187 -2.816939,-2.859968 0.0026,-0.209198 0.02963,-0.408517 0.07268,-0.60325 l -5.841656,-1.626659 c -0.378169,1.133827 -1.440736,1.952274 -2.702269,1.943807 -0.614548,-0.0049 -1.177925,-0.209905 -1.641131,-0.545748 l -9.691502,12.034664 c 0.737658,0.64488 1.202266,1.59385 1.1938,2.65077 -0.0053,0.8322 -0.302684,1.59632 -0.794094,2.18969 l 7.938902,7.09224 c 0.553508,-0.56126 1.324319,-0.91051 2.173473,-0.90452 1.665816,0.012 3.003894,1.37266 2.99085,3.03566 -0.01244,1.6637 -1.3716,3.0046 -3.035671,2.9912 -0.109696,-0.002 -0.216958,-0.008 -0.325596,-0.0198 l -2.011892,12.33382 c 1.371944,0.28751 2.399242,1.51095 2.387944,2.97145 -0.0026,0.18626 -0.02117,0.369 -0.05538,0.54786 l 16.969661,4.10669 c 0.317844,-1.05199 1.289764,-1.82104 2.445808,-1.81187 1.404064,0.0102 2.535052,1.15782 2.524469,2.56328 -0.0056,0.69427 -0.289269,1.31939 -0.740463,1.77412 l 11.1756299,12.41566 c 0.306228,-0.23671 0.687916,-0.38064 1.103497,-0.37817 0.993775,0.007 1.791759,0.82056 1.785753,1.81363 -0.0085,0.99166 -0.81915,1.79281 -1.813613,1.78399 -0.991659,-0.008 -1.791415,-0.81879 -1.784721,-1.81222 0.0034,-0.47413 0.194046,-0.90205 0.498131,-1.22202 L -16.75769,145.20509 c -0.441325,0.3556 -0.997294,0.57467 -1.606894,0.56903 -0.306229,2.6e-4 -0.594783,-0.0653 -0.862912,-0.16616 l -4.757552,10.91918 c 1.0033,0.49389 1.69156,1.52858 1.681691,2.72274 -0.0085,1.24318 -0.77081,2.30469 -1.848194,2.75836 l 7.603067,20.84141 c 0.264927,-0.0833 0.542925,-0.13829 0.836083,-0.13547 1.089713,0.008 2.0193,0.64664 2.467663,1.5614 l 4.5109869,-1.93464 c -0.06316,-0.18662 -0.103028,-0.381 -0.102314,-0.58878 0.0085,-0.99307 0.819864,-1.79282 1.813269,-1.78541 0.992029,0.007 1.792129,0.81774 1.78435,1.81222 -0.0056,0.6477 -0.353483,1.2072 -0.872411,1.51977 l 3.750019,7.45666 c 0.173567,-0.0663 0.360204,-0.10372 0.555625,-0.10195 0.82621501,0.005 1.49367901,0.68015 1.48695901,1.50777 -0.0071,0.8262 -0.68191101,1.49225 -1.51024201,1.48696 -0.826188,-0.006 -1.493308,-0.68087 -1.486958,-1.50848 0.004,-0.53164 0.284691,-0.99342 0.70522,-1.25624 l -3.747558,-7.4542 c -0.213784,0.0882 -0.447675,0.13618 -0.692521,0.13476 -0.6858,-0.006 -1.272804,-0.39793 -1.572313,-0.96484 l -4.5070969,1.93322 c 0.1143,0.30868 0.182747,0.63747 0.179916,0.98531 -0.01164,1.5367 -1.267169,2.77424 -2.804927,2.76225 -0.06562,-2.7e-4 -0.128058,-0.0145 -0.195792,-0.0205 l -0.278341,-0.0317 c -1.309529,-0.23459 -2.2987,-1.37618 -2.287059,-2.75272 0.0026,-0.33443 0.07371,-0.65299 0.184494,-0.95038 l -5.29836,-2.29835 c -0.305171,0.57256 -0.902415,0.96485 -1.59774,0.96167 -0.992716,-0.007 -1.793875,-0.82091 -1.782577,-1.81292 0,-0.46955 0.191188,-0.89289 0.487177,-1.21144 l -4.130675,-4.45876 c -0.206031,0.15134 -0.458258,0.242 -0.732022,0.23989 -0.674847,-0.006 -1.2192,-0.55633 -1.21285,-1.23261 0.0045,-0.67557 0.557741,-1.21849 1.231212,-1.21249 0.676963,0.004 1.220602,0.55668 1.213908,1.23154 -0.0026,0.30057 -0.117845,0.5708 -0.29845,0.78317 l 4.131363,4.46687 c 0.309033,-0.24412 0.696383,-0.39405 1.120775,-0.39158 0.993431,0.007 1.793187,0.8195 1.786123,1.81222 -0.0026,0.19932 -0.04339,0.3884 -0.104431,0.5662 l 5.300133,2.298 c 0.294931,-0.59372 0.785998,-1.07139 1.399487,-1.33103 l -7.597431,-20.83188 c -0.292444,0.0914 -0.601477,0.1397 -0.922523,0.13723 -1.6637,-0.012 -3.004608,-1.3723 -2.989421,-3.03565 0.0098,-1.663 1.369483,-3.00285 3.033871,-2.99085 0.371131,0.003 0.723556,0.0759 1.050925,0.20108 l 4.757209,-10.92059 c -0.837142,-0.42157 -1.411817,-1.2827 -1.405811,-2.28247 0,-0.15169 0.02143,-0.29916 0.04797,-0.44132 l -16.964025,-4.10528 c -0.36793,1.25977 -1.534927,2.17699 -2.915338,2.16747 -1.663012,-0.012 -3.001089,-1.37231 -2.990506,-3.03601 0.01191,-1.6637 1.373002,-3.00425 3.0353,-2.9905 0.110781,0 0.219419,0.009 0.325623,0.0201 l 2.014352,-12.33488 c -1.374061,-0.28963 -2.399586,-1.5113 -2.389002,-2.96898 0.0061,-0.71261 0.258577,-1.36419 0.67556,-1.87748 l -7.942448,-7.0926 c -0.640292,0.66111 -1.5367,1.07068 -2.528359,1.06398 -0.06736,-0.002 -0.134752,-0.008 -0.200369,-0.013 l -0.734827,6.96666 c 1.075611,0.18238 1.895475,1.11548 1.888067,2.24155 -0.01164,1.25059 -1.033648,2.25425 -2.281079,2.24402 -1.252008,-0.008 -2.256711,-1.02835 -2.248958,-2.27859 0.0093,-1.2499 1.031875,-2.2532 2.281422,-2.24579 0.02858,10e-4 0.05292,0.007 0.07937,0.009 l 0.736256,-6.96524 c -0.676989,-0.0977 -1.287303,-0.387 -1.77837,-0.81386 l -11.463491,12.18104 c 0.515752,0.53058 0.829733,1.25624 0.824786,2.05564 -0.01244,1.61854 -1.333156,2.91817 -2.950634,2.90583 -0.549619,-0.004 -1.056931,-0.17004 -1.49225,-0.43462 z"
       style="fill:none;stroke:#807a8c;stroke-width:0.35277775;stroke-linecap:butt;stroke-linejoin:miter;stroke-miterlimit:10;stroke-dasharray:none;stroke-opacity:1"
       id="path50"
       inkscape:connector-curvature="0"
       clip-path="url(#clipPath5930)" />
  </g>
</svg>
