<?xml version="1.0" encoding="UTF-8" standalone="no"?>
<!-- Created with Inkscape (http://www.inkscape.org/) -->

<svg
   xmlns:dc="http://purl.org/dc/elements/1.1/"
   xmlns:cc="http://creativecommons.org/ns#"
   xmlns:rdf="http://www.w3.org/1999/02/22-rdf-syntax-ns#"
   xmlns:svg="http://www.w3.org/2000/svg"
   xmlns="http://www.w3.org/2000/svg"
   xmlns:sodipodi="http://sodipodi.sourceforge.net/DTD/sodipodi-0.dtd"
   xmlns:inkscape="http://www.inkscape.org/namespaces/inkscape"
   width="74.73365mm"
   height="92.886681mm"
   viewBox="0 0 74.73365 92.886681"
   version="1.1"
   id="svg4632"
   inkscape:version="0.92.4 (5da689c313, 2019-01-14)"
   sodipodi:docname="treefit-title-left.svg">
  <defs
     id="defs4626">
    <clipPath
       clipPathUnits="userSpaceOnUse"
       id="clipPath5287">
      <rect
         style="color:#000000;clip-rule:nonzero;display:inline;overflow:visible;visibility:visible;opacity:1;isolation:auto;mix-blend-mode:normal;color-interpolation:sRGB;color-interpolation-filters:linearRGB;solid-color:#000000;solid-opacity:1;fill:none;fill-opacity:1;fill-rule:nonzero;stroke:#ce5c00;stroke-width:0.24949549;stroke-linecap:butt;stroke-linejoin:miter;stroke-miterlimit:4;stroke-dasharray:none;stroke-dashoffset:0;stroke-opacity:1;color-rendering:auto;image-rendering:auto;shape-rendering:auto;text-rendering:auto;enable-background:accumulate"
         id="rect5289"
         width="93.917015"
         height="97.872818"
         x="52.16148"
         y="160.04308" />
    </clipPath>
    <clipPath
       clipPathUnits="userSpaceOnUse"
       id="clipPath5291">
      <rect
         style="color:#000000;clip-rule:nonzero;display:inline;overflow:visible;visibility:visible;opacity:1;isolation:auto;mix-blend-mode:normal;color-interpolation:sRGB;color-interpolation-filters:linearRGB;solid-color:#000000;solid-opacity:1;fill:none;fill-opacity:1;fill-rule:nonzero;stroke:#ce5c00;stroke-width:0.24949549;stroke-linecap:butt;stroke-linejoin:miter;stroke-miterlimit:4;stroke-dasharray:none;stroke-dashoffset:0;stroke-opacity:1;color-rendering:auto;image-rendering:auto;shape-rendering:auto;text-rendering:auto;enable-background:accumulate"
         id="rect5293"
         width="93.917015"
         height="97.872818"
         x="52.16148"
         y="160.04308" />
    </clipPath>
    <clipPath
       clipPathUnits="userSpaceOnUse"
       id="clipPath5295">
      <rect
         style="color:#000000;clip-rule:nonzero;display:inline;overflow:visible;visibility:visible;opacity:1;isolation:auto;mix-blend-mode:normal;color-interpolation:sRGB;color-interpolation-filters:linearRGB;solid-color:#000000;solid-opacity:1;fill:none;fill-opacity:1;fill-rule:nonzero;stroke:#ce5c00;stroke-width:0.24949549;stroke-linecap:butt;stroke-linejoin:miter;stroke-miterlimit:4;stroke-dasharray:none;stroke-dashoffset:0;stroke-opacity:1;color-rendering:auto;image-rendering:auto;shape-rendering:auto;text-rendering:auto;enable-background:accumulate"
         id="rect5297"
         width="93.917015"
         height="97.872818"
         x="52.16148"
         y="160.04308" />
    </clipPath>
    <clipPath
       clipPathUnits="userSpaceOnUse"
       id="clipPath5299">
      <rect
         style="color:#000000;clip-rule:nonzero;display:inline;overflow:visible;visibility:visible;opacity:1;isolation:auto;mix-blend-mode:normal;color-interpolation:sRGB;color-interpolation-filters:linearRGB;solid-color:#000000;solid-opacity:1;fill:none;fill-opacity:1;fill-rule:nonzero;stroke:#ce5c00;stroke-width:0.24949549;stroke-linecap:butt;stroke-linejoin:miter;stroke-miterlimit:4;stroke-dasharray:none;stroke-dashoffset:0;stroke-opacity:1;color-rendering:auto;image-rendering:auto;shape-rendering:auto;text-rendering:auto;enable-background:accumulate"
         id="rect5301"
         width="93.917015"
         height="97.872818"
         x="52.16148"
         y="160.04308" />
    </clipPath>
  </defs>
  <sodipodi:namedview
     id="base"
     pagecolor="#ffffff"
     bordercolor="#666666"
     borderopacity="1.0"
     inkscape:pageopacity="0.0"
     inkscape:pageshadow="2"
     inkscape:zoom="1.979899"
     inkscape:cx="212.97591"
     inkscape:cy="240.27619"
     inkscape:document-units="mm"
     inkscape:current-layer="layer1"
     showgrid="false"
     fit-margin-top="0"
     fit-margin-left="0"
     fit-margin-right="0"
     fit-margin-bottom="0"
     inkscape:window-width="1430"
     inkscape:window-height="700"
     inkscape:window-x="1409"
     inkscape:window-y="584"
     inkscape:window-maximized="0" />
  <metadata
     id="metadata4629">
    <rdf:RDF>
      <cc:Work
         rdf:about="">
        <dc:format>image/svg+xml</dc:format>
        <dc:type
           rdf:resource="http://purl.org/dc/dcmitype/StillImage" />
        <dc:title></dc:title>
      </cc:Work>
    </rdf:RDF>
  </metadata>
  <g
     inkscape:label="layer 1"
     inkscape:groupmode="layer"
     id="layer1"
     transform="translate(-52.16148,-160.04308)">
    <path
       d="m 61.522252,130.64731 c 0.185915,-0.0663 0.361598,-0.15346 0.529166,-0.24588 l 10.833452,16.95131 c -0.549275,0.43745 -0.78881,1.18393 -0.53481,1.87819 0.318207,0.87031 1.280583,1.31728 2.148769,0.99872 0.460023,-0.16757 0.796925,-0.51682 0.969788,-0.93627 l 7.793564,2.29623 c -0.149225,0.62265 -0.124884,1.29575 0.113241,1.9438 0.199321,0.54681 0.526346,1.01283 0.934157,1.37231 l -3.156302,3.95852 c -0.424746,-0.26988 -0.962025,-0.35208 -1.470732,-0.16475 -0.869598,0.31856 -1.31445,1.27917 -0.996243,2.14771 0.316441,0.86854 1.277054,1.3148 2.1463,0.99836 0.869595,-0.31997 1.316566,-1.27952 0.999418,-2.14912 -0.08784,-0.24201 -0.23001,-0.44697 -0.401814,-0.61525 l 3.154891,-3.95816 c 0.878771,0.62759 2.040115,0.82373 3.12773,0.42615 0.06491,-0.0243 0.125235,-0.0529 0.186618,-0.0801 l 6.657977,13.34276 c -0.65017,0.41522 -0.95039,1.23649 -0.67487,1.9872 0.21449,0.58738 0.72532,0.97473 1.30034,1.07068 l -0.61348,10.1212 c -0.31714,2.6e-4 -0.64029,0.0519 -0.95356,0.16686 -0.42897,0.15593 -0.79339,0.40957 -1.08443,0.72002 l -4.64397,-3.81988 c 0.281162,-0.42968 0.366887,-0.97684 0.177093,-1.49542 -0.317852,-0.86995 -1.278466,-1.31728 -2.147006,-0.99942 -0.868185,0.31856 -1.316567,1.28129 -0.999067,2.15053 0.319617,0.86854 1.280938,1.31551 2.151592,0.9973 0.231423,-0.0836 0.43039,-0.21837 0.59549,-0.38205 l 4.641848,3.81881 c -0.51999,0.72073 -0.6858,1.67429 -0.37006,2.56964 l -16.205555,6.89292 c -0.394052,-0.70873 -1.25095,-1.04739 -2.036585,-0.75917 -0.404635,0.14851 -0.713317,0.4392 -0.90029,0.79375 l -8.17386,-3.25297 c 0.143581,-0.46143 0.14464,-0.97049 -0.03387,-1.45627 -0.154517,-0.42121 -0.417335,-0.76517 -0.748242,-1.01917 l 2.319161,-3.53977 c 0.386998,0.19755 0.849489,0.24447 1.290463,0.0843 0.836083,-0.30692 1.266825,-1.23402 0.961318,-2.07151 -0.154165,-0.41592 -0.459317,-0.73166 -0.834318,-0.90593 l 2.266243,-6.65727 c 0.223308,0.0437 0.459669,0.0339 0.687917,-0.0494 0.667808,-0.24483 1.011766,-0.98743 0.769408,-1.65488 -0.245885,-0.66852 -0.986367,-1.01036 -1.654527,-0.76518 -0.162983,0.0586 -0.303741,0.14888 -0.424391,0.25683 L 56.672265,161.15306 c 0.259291,-0.3803 0.3683,-0.85408 0.28222,-1.32503 l 6.49605,-1.83798 c 0.259292,0.59091 0.930982,0.88865 1.547283,0.66252 0.639586,-0.23319 0.967317,-0.94086 0.734836,-1.57762 -0.234596,-0.63888 -0.940504,-0.96908 -1.580796,-0.73484 -0.550688,0.20144 -0.867481,0.756 -0.799396,1.31375 l -6.49252,1.83409 c -0.251884,-0.64065 -0.831144,-1.05587 -1.474611,-1.12783 l 0.05574,-4.86763 c 0.06738,-0.0109 0.135822,-0.0275 0.20179,-0.0522 0.551744,-0.20109 0.835377,-0.81351 0.633235,-1.3649 -0.200728,-0.55174 -0.811741,-0.83185 -1.362075,-0.63077 -0.55245,0.20215 -0.83467,0.80998 -0.632176,1.36173 0.13335,0.3683 0.448381,0.61242 0.808566,0.67839 l -0.0568,4.8708 c -0.155927,0.0134 -0.31256,0.0399 -0.464254,0.096 -0.580673,0.21166 -0.985308,0.69356 -1.128889,1.24848 l -3.963459,-0.60431 c 0.0049,-0.21837 -0.02681,-0.44097 -0.10654,-0.65864 -0.26952,-0.7366 -0.970491,-1.18357 -1.713087,-1.17545 L 45.445466,144.7186 c 0.07973,-0.0198 0.15875,-0.0448 0.238125,-0.073 1.179335,-0.43074 1.821743,-1.67958 1.521883,-2.86738 l 4.053417,-1.33032 c 0.492477,1.20085 1.848202,1.80763 3.075516,1.35854 1.259417,-0.46002 1.906762,-1.8542 1.444271,-3.1122 -0.192262,-0.52952 -0.548921,-0.94721 -0.992362,-1.22308 l 3.83822,-7.00193 c 0.868892,0.44344 1.910292,0.54151 2.897717,0.17815 M 60.516835,82.62685 c 0.418042,1.141587 1.679575,1.729316 2.821869,1.311275 0.43815,-0.159105 0.795163,-0.447675 1.044575,-0.803275 l 3.287538,2.528003 c -0.72249,0.818447 -0.986015,1.995665 -0.584907,3.092099 0.126648,0.346075 0.310798,0.652639 0.535165,0.918633 l -7.627408,7.191023 c -0.5461,-0.48613 -1.333149,-0.667105 -2.06869,-0.397581 -0.48401,0.178506 -0.862187,0.523168 -1.093259,0.944033 l -5.145616,-2.26201 c 0.06844,-0.23848 0.06526,-0.50024 -0.02681,-0.750359 -0.232127,-0.637823 -0.940859,-0.968729 -1.580444,-0.733425 -0.638175,0.233186 -0.9652,0.940504 -0.730956,1.579737 0.233185,0.635707 0.938035,0.966965 1.577268,0.733425 0.269171,-0.09948 0.476957,-0.283633 0.618773,-0.509058 l 5.145969,2.263071 c -0.147109,0.426861 -0.154162,0.906286 0.01341,1.363134 0.02928,0.07937 0.06562,0.156633 0.102658,0.231068 l -9.925753,6.191247 c -0.794105,-1.12747 -2.272597,-1.63477 -3.630084,-1.137 -0.985308,0.3616 -1.677106,1.1677 -1.937456,2.10785 l -5.41161,-1.2252 c 0.0508,-0.34678 0.02045,-0.70908 -0.109009,-1.06221 -0.409223,-1.12078 -1.650648,-1.69863 -2.772481,-1.28658 -1.120423,0.40745 -1.697567,1.65135 -1.28764,2.77107 0.409575,1.12007 1.652413,1.6958 2.771423,1.28517 0.650875,-0.23601 1.116542,-0.75495 1.31445,-1.36596 l 5.418315,1.22449 c -0.08185,0.51118 -0.03881,1.04563 0.150987,1.56492 0.374298,1.02376 1.225198,1.73073 2.211565,1.96886 l -2.60844,14.49316 c -0.306562,-0.0307 -0.623358,0.005 -0.932037,0.11854 -1.10208,0.40358 -1.668992,1.62066 -1.264356,2.72485 0.403225,1.10244 1.623483,1.67182 2.723798,1.26789 1.104193,-0.40393 1.67005,-1.62737 1.268587,-2.72839 -0.246592,-0.67662 -0.802217,-1.1497 -1.451679,-1.32115 l 2.607733,-14.49352 c 0.475544,0.0579 0.97155,0.0134 1.453796,-0.16404 0.547513,-0.19897 0.999421,-0.53764 1.343025,-0.95815 l 7.253816,5.14456 c -0.303035,0.55457 -0.390525,1.23543 -0.15522,1.87466 0.396169,1.08515 1.580444,1.6704 2.61761,1.43687 l 2.263775,6.19019 c -0.639588,0.29492 -1.236488,0.82762 -1.604788,1.4545 l -3.635372,-1.95686 c 0.140052,-0.34819 0.161219,-0.74683 0.02151,-1.12712 -0.300922,-0.82233 -1.212498,-1.24637 -2.033765,-0.94474 -0.824087,0.30162 -1.247069,1.21355 -0.945796,2.03482 0.300919,0.82303 1.211792,1.24637 2.035173,0.94403 0.324908,-0.11782 0.581379,-0.33231 0.762354,-0.5976 l 3.660775,1.94521 c -0.394406,0.84385 -0.464963,1.83868 -0.119239,2.78201 0.283985,0.77823 0.809273,1.39806 1.459089,1.81152 l -3.84175,7.01286 c -0.554921,-0.24236 -1.195213,-0.28293 -1.809398,-0.0564 -1.176512,0.43004 -1.821037,1.67534 -1.522235,2.86421 l -4.0513,1.33032 c -0.492831,-1.20121 -1.84785,-1.80975 -3.079044,-1.3589 -0.568679,0.20779 -1.011414,0.6089 -1.284464,1.1042 l -3.567994,-1.65665 c 0.156633,-0.43321 0.170037,-0.9204 -0.0013,-1.38818 -0.384881,-1.05304 -1.5494,-1.59173 -2.601383,-1.20756 -1.051984,0.38524 -1.59385,1.5494 -1.209675,2.60139 0.385585,1.05198 1.551162,1.59279 2.6035,1.2072 0.465666,-0.17074 0.830791,-0.49389 1.061508,-0.895 l 3.567287,1.657 c -0.199318,0.52458 -0.218016,1.12042 -0.0095,1.69051 0.0755,0.21026 0.18133,0.40111 0.303038,0.57362 l -11.520313,9.54017 c -0.58561,-0.60255 -1.490133,-0.83997 -2.33045,-0.53199 -1.140529,0.41628 -1.7272,1.67781 -1.308804,2.81834 0.415219,1.14124 1.679927,1.7265 2.820811,1.30951 1.13806,-0.41663 1.726493,-1.67851 1.30951,-2.81905 -0.06844,-0.18485 -0.15875,-0.35171 -0.267052,-0.50623 l 11.521723,-9.53876 c 0.510821,0.53305 1.246717,0.80927 1.996017,0.73202 l 2.2098,12.52431 c -0.08114,0.0177 -0.166159,0.0339 -0.248357,0.0628 -0.930981,0.34184 -1.412523,1.37548 -1.069623,2.30998 0.340784,0.93381 1.374071,1.41182 2.306463,1.07068 0.599017,-0.21836 1.008592,-0.72178 1.139471,-1.30069 l 3.95357,0.60184 c -0.01164,0.23777 0.01871,0.48049 0.106188,0.71685 0.169334,0.46249 0.508704,0.81632 0.923219,1.00894 l -3.076575,8.59402 c -0.201435,-0.0395 -0.414515,-0.0293 -0.621242,0.0448 -0.603956,0.2219 -0.913341,0.89218 -0.69356,1.49366 0.222954,0.60713 0.890058,0.91546 1.492602,0.69568 0.605367,-0.2226 0.919692,-0.88935 0.695677,-1.49578 -0.100542,-0.27798 -0.299509,-0.48965 -0.542925,-0.61877 l 3.075871,-8.59543 c 0.339019,0.0833 0.705202,0.0727 1.058333,-0.0564 0.250119,-0.0931 0.464609,-0.23531 0.641702,-0.41064 l 12.551479,10.46516 c -0.202845,0.32526 -0.265642,0.73236 -0.123119,1.12112 0.117827,0.31962 0.350309,0.56374 0.633942,0.70521 l -2.26695,6.65868 c -0.291748,-0.0656 -0.603602,-0.0561 -0.903465,0.0547 -0.838552,0.30621 -1.268587,1.23472 -0.96167,2.07116 0.101952,0.28045 0.276929,0.508 0.49177,0.68474 l -2.323745,3.54118 c -0.554215,-0.30656 -1.234723,-0.38135 -1.877838,-0.1457 -0.08643,0.0303 -0.167569,0.067 -0.245533,0.10795 l -2.688871,-4.42418 c 0.568677,-0.43427 0.820915,-1.19662 0.563034,-1.90289 -0.317852,-0.86818 -1.279525,-1.31374 -2.148769,-0.99624 -0.870305,0.3175 -1.316921,1.28058 -0.999773,2.14806 0.317852,0.87031 1.28129,1.31657 2.15124,0.99872 0.04868,-0.0177 0.08855,-0.0438 0.135112,-0.0656 l 2.687108,4.42383 c -0.779285,0.56092 -1.140883,1.57163 -0.84455,2.52166 l -10.34697,4.11621 c -0.355248,-0.65828 -1.142648,-0.9786 -1.866548,-0.71261 -0.792692,0.28998 -1.199092,1.16734 -0.907699,1.95968 0.288574,0.79163 1.164874,1.2005 1.957565,0.90981 0.750007,-0.27446 1.148644,-1.07526 0.945444,-1.82915 l 10.346266,-4.11586 c 0.437444,0.89782 1.413227,1.39559 2.383719,1.24778 l 1.095375,4.74451 c -0.736245,0.27093 -1.113719,1.08444 -0.84455,1.81821 0.269523,0.73731 1.083381,1.1169 1.820688,0.84702 0.735187,-0.26917 1.114777,-1.08408 0.844902,-1.82139 -0.227894,-0.62159 -0.846315,-0.98213 -1.47814,-0.91828 l -1.097137,-4.75156 c 0.03387,-0.0106 0.06668,-0.0177 0.100187,-0.0303 0.573265,-0.21026 1.011415,-0.629 1.261181,-1.1363 l 8.171744,3.25332 c -0.09278,0.32526 -0.0896,0.68262 0.03387,1.02411 0.318913,0.8703 1.280231,1.31974 2.149829,1.00118 0.840317,-0.30691 1.279525,-1.21849 1.021292,-2.06339 l 16.20661,-6.89046 c 0.27341,0.5454 0.70909,0.96838 1.22414,1.23331 l -2.55129,5.85047 c -0.47872,-0.16686 -1.01564,-0.17533 -1.52894,0.0113 -1.181452,0.4325 -1.786818,1.74201 -1.355725,2.92206 0.153811,0.41662 0.416632,0.75988 0.741545,1.01211 l -7.360713,11.10686 c -0.709084,-0.39899 -1.57974,-0.49777 -2.402417,-0.19791 -0.152048,0.0564 -0.294217,0.12665 -0.431448,0.20391 l -3.15101,-4.80378 c 0.43674,-0.37359 0.6223,-0.9913 0.412398,-1.56527 -0.270933,-0.7366 -1.08303,-1.1169 -1.818217,-0.84737 -0.738365,0.26987 -1.116896,1.08479 -0.845963,1.82209 0.267407,0.73766 1.083734,1.11513 1.819982,0.84561 0.04798,-0.0173 0.08961,-0.0445 0.13476,-0.0649 l 3.154188,4.80448 c -0.880888,0.65123 -1.322213,1.76283 -1.109133,2.85785 l -12.07488,3.28789 c -0.286808,-0.69956 -1.077735,-1.05763 -1.79705,-0.79551 -0.49177,0.18097 -0.819854,0.60819 -0.904875,1.09114 L 58.92805,214.6527 c -0.01058,-0.0995 -0.02928,-0.1972 -0.06456,-0.29527 -0.228248,-0.62477 -0.920044,-0.94792 -1.546225,-0.71967 -0.625827,0.22895 -0.945444,0.92322 -0.717902,1.54587 0.229658,0.62795 0.921808,0.95039 1.54587,0.72038 0.41275,-0.14958 0.686507,-0.50095 0.765882,-0.90065 l 3.302704,0.16263 c 0.0088,0.12806 0.02999,0.25542 0.07691,0.381 0.1651,0.45368 0.536223,0.76659 0.970492,0.88442 l -2.080684,15.19872 c -0.167923,-0.004 -0.340076,0.0215 -0.506235,0.0815 -0.738013,0.27129 -1.116893,1.08515 -0.846315,1.82598 0.268111,0.73307 1.085499,1.11196 1.820334,0.84102 0.735541,-0.26846 1.114777,-1.08444 0.847373,-1.81892 -0.166865,-0.45156 -0.537282,-0.76694 -0.968375,-0.88406 l 2.080329,-15.19872 c 0.167216,10e-4 0.337608,-0.0222 0.503766,-0.0825 0.242359,-0.0896 0.440973,-0.23954 0.5969,-0.42686 l 3.562705,2.29975 c -0.161221,0.33408 -0.192971,0.72708 -0.05574,1.10349 0.269169,0.7366 1.084085,1.11478 1.820685,0.84455 0.737659,-0.26846 1.11478,-1.08408 0.844198,-1.81892 -0.269523,-0.73801 -1.082675,-1.11619 -1.820333,-0.84772 -0.243065,0.0892 -0.441325,0.242 -0.595842,0.42721 l -3.56235,-2.29941 c 0.120299,-0.24906 0.168627,-0.53234 0.128059,-0.81668 l 12.065352,-3.28612 c 0.01058,0.0314 0.01939,0.0681 0.0314,0.1016 0.480483,1.31304 1.814335,2.06516 3.145366,1.85596 l 0.926042,4.21005 c -0.0321,0.0102 -0.06138,0.0183 -0.09207,0.0296 -1.045988,0.38241 -1.582563,1.54022 -1.20015,2.58409 0.310444,0.84949 1.132769,1.3656 1.989312,1.32221 l 1.129948,8.31709 c -0.0829,0.019 -0.16651,0.0409 -0.24906,0.0706 -0.670279,0.24623 -1.1303,0.81138 -1.274233,1.46156 l -5.643385,-0.73978 c 0.0021,-0.16545 -0.02257,-0.33408 -0.08149,-0.49671 -0.268113,-0.73519 -1.08444,-1.11266 -1.82104,-0.84349 -0.735893,0.27058 -1.115131,1.08197 -0.844198,1.81998 0.2667,0.73377 1.082323,1.11266 1.818923,0.84314 0.454377,-0.16546 0.76976,-0.53869 0.884767,-0.97402 l 5.639504,0.73801 c -0.0113,0.25717 0.02716,0.52176 0.121004,0.77682 0.09666,0.26775 0.243417,0.49917 0.425096,0.69461 l -9.534877,10.69094 c -0.367242,-0.25295 -0.843492,-0.33373 -1.293987,-0.16863 -0.739072,0.26846 -1.116542,1.08479 -0.845963,1.8235 0.267054,0.73449 1.083029,1.11196 1.820688,0.84279 0.735541,-0.26987 1.113366,-1.08444 0.844901,-1.81751 -0.06032,-0.17039 -0.153458,-0.31715 -0.266348,-0.44591 l 9.5377,-10.69517 c 0.528815,0.393 1.236486,0.52247 1.899002,0.28011 0.189442,-0.0684 0.36054,-0.16439 0.513998,-0.27763 l 8.094484,9.08296 c -0.46107,0.49777 -0.6417,1.22838 -0.39193,1.91206 0.35595,0.97155 1.43122,1.47249 2.40312,1.11584 0.97261,-0.3556 1.47179,-1.43052 1.11513,-2.40383 -0.3556,-0.97049 -1.43157,-1.47003 -2.40277,-1.11478 -0.1711,0.0639 -0.32138,0.15346 -0.46214,0.25823 l -8.095544,-9.08473 c 0.506236,-0.53799 0.698148,-1.33562 0.426509,-2.0768 -0.03316,-0.0882 -0.07197,-0.1711 -0.116065,-0.25189 l 4.28519,-2.78412 c 0.49778,0.62936 1.35926,0.901 2.15195,0.61031 0.99166,-0.36195 1.50072,-1.45874 1.13771,-2.44934 -0.36195,-0.99095 -1.45627,-1.49895 -2.44793,-1.13594 -0.98989,0.36265 -1.50001,1.45732 -1.1377,2.44686 0.0303,0.0822 0.0663,0.15875 0.10442,0.23495 l -4.281317,2.78272 c -0.402873,-0.51506 -1.032581,-0.80645 -1.686277,-0.77612 l -1.129948,-8.31497 c 0.08396,-0.0187 0.166865,-0.0395 0.248002,-0.0709 1.047398,-0.38241 1.585738,-1.54234 1.202973,-2.58903 -0.329494,-0.90206 -1.23966,-1.42346 -2.155473,-1.30387 l -0.924629,-4.21005 c 0.06914,-0.0212 0.137583,-0.0388 0.207785,-0.066 1.176515,-0.42968 1.900061,-1.54834 1.88595,-2.73614 l 5.533319,-0.32879 c 0.0141,0.0628 0.02611,0.12911 0.04974,0.1912 0.243055,0.66887 0.983895,1.01283 1.651705,0.768 0.67063,-0.24483 1.01388,-0.9839 0.76905,-1.65276 -0.24412,-0.66922 -0.98319,-1.01142 -1.65241,-0.76694 -0.49001,0.17956 -0.800799,0.623 -0.838195,1.10949 l -5.536494,0.3302 c -0.02858,-0.20285 -0.07549,-0.40605 -0.149577,-0.60643 -0.202142,-0.55245 -0.554921,-1.00295 -0.99554,-1.32715 l 7.357526,-11.1058 c 0.55633,0.31256 1.24072,0.38876 1.88701,0.1517 1.18075,-0.4318 1.78929,-1.73849 1.35643,-2.91995 -0.20002,-0.54856 -0.59196,-0.97296 -1.07209,-1.2266 l 2.5534,-5.85082 c 0.59726,0.21731 1.27318,0.23424 1.9177,-10e-4 0.84879,-0.31009 1.4538,-0.9913 1.7071,-1.79352 l 4.860568,1.19415 c -0.0504,0.32385 -0.0226,0.66534 0.0981,1.00013 0.37959,1.03717 1.52118,1.57339 2.56222,1.20615 l 0.3175,-0.14358 c 0.84914,-0.47766 1.25343,-1.50707 0.90947,-2.44934 -0.0998,-0.27235 -0.25294,-0.50835 -0.44098,-0.70415 l 3.28084,-3.7539 c 0.52599,0.38382 1.22625,0.50694 1.88312,0.26634 0.39582,-0.14428 0.71897,-0.40005 0.9458,-0.71966 l 6.33025,3.75602 c -0.145,0.32879 -0.17181,0.71085 -0.0385,1.07421 0.27341,0.75071 1.10385,1.13489 1.85279,0.86148 0.74825,-0.2734 1.13348,-1.10278 0.85796,-1.85349 -0.27235,-0.74824 -1.10173,-1.13242 -1.84856,-0.85866 -0.26811,0.097 -0.4833,0.26705 -0.64488,0.47449 l -6.32926,-3.75683 c 0.22684,-0.47202 0.27093,-1.03329 0.0759,-1.56633 -0.0201,-0.0572 -0.0455,-0.11395 -0.0713,-0.16898 l 2.47085,-1.44604 c 0.3937,0.52282 1.0915,0.75565 1.7392,0.51858 0.79163,-0.28786 1.19662,-1.16346 0.90593,-1.95509 -0.23777,-0.65017 -0.87313,-1.03435 -1.53176,-0.99095 l -2.19322,-11.93095 c 0.0325,-0.01 0.0656,-0.0124 0.0984,-0.0254 0.85337,-0.31256 1.29223,-1.25518 0.97932,-2.10996 -0.17145,-0.4699 -0.53587,-0.80645 -0.97191,-0.96979 l 2.25496,-8.80569 c 0.19579,0.0229 0.3997,0.008 0.59796,-0.0667 0.67592,-0.24553 1.02623,-0.99519 0.77893,-1.67217 -0.2473,-0.67627 -0.9973,-1.02164 -1.67534,-0.7747 -0.67522,0.24765 -1.0227,0.99554 -0.77576,1.67146 0.13123,0.35984 0.40605,0.62195 0.73307,0.75495 l -2.2539,8.80533 c -0.26035,-0.0384 -0.53269,-0.019 -0.79904,0.0773 -0.85231,0.31186 -1.29222,1.25659 -0.9786,2.11032 0.25788,0.70802 0.95073,1.12077 1.66617,1.06821 l 2.19392,11.93024 c -0.0257,0.009 -0.0533,0.0106 -0.078,0.0201 -0.79164,0.28892 -1.19768,1.16487 -0.90911,1.9558 0.0116,0.0317 0.0289,0.0568 0.0423,0.0864 l -2.47226,1.44497 c -0.5133,-0.72178 -1.46438,-1.04492 -2.33821,-0.72778 -0.0307,0.0127 -0.0593,0.0265 -0.0885,0.0399 l -1.14582,-2.16994 c 0.45967,-0.32879 0.66851,-0.93345 0.4639,-1.49437 -0.24765,-0.67204 -0.99095,-1.01847 -1.6637,-0.77434 -0.67345,0.24659 -1.01847,0.99448 -0.77294,1.66652 0.24624,0.6731 0.99237,1.01953 1.66441,0.77258 l 1.1437,2.16218 c -0.7747,0.49918 -1.131,1.48378 -0.80151,2.38407 0.1009,0.27164 0.25189,0.50729 0.43992,0.70309 l -3.2826,3.75567 c -0.52599,-0.38312 -1.22626,-0.50518 -1.88348,-0.26529 -0.5962,0.21766 -1.02588,0.68827 -1.21497,1.24601 l -4.860218,-1.19309 c 0.0857,-0.47308 0.0533,-0.97332 -0.12241,-1.45698 -0.37395,-1.01988 -1.27917,-1.68804 -2.28459,-1.81504 l 0.61101,-10.12119 c 0.16616,-0.006 0.33479,-0.0303 0.49953,-0.0924 0.86925,-0.3175 1.31834,-1.27953 0.99907,-2.14912 -0.31644,-0.86925 -1.28129,-1.31586 -2.14983,-0.99801 -0.004,0.001 -0.007,0.003 -0.0113,0.004 l -6.655856,-13.34135 c 1.082316,-0.6089 1.728956,-1.76001 1.718376,-2.97427 l 10.610138,-0.65793 c 0.0173,0.10019 0.0399,0.19932 0.0748,0.29704 0.31856,0.8696 1.28165,1.31797 2.14877,0.99906 0.87136,-0.31679 1.31692,-1.27952 0.99836,-2.15159 -0.31679,-0.86748 -1.27776,-1.31304 -2.14877,-0.99483 -0.65616,0.23848 -1.06856,0.8449 -1.0989,1.50072 l -10.605908,0.65757 c -0.0296,-0.2607 -0.0878,-0.52211 -0.18203,-0.77928 -0.61172,-1.67217 -2.40806,-2.56646 -4.094691,-2.0888 l -0.679096,-2.00378 c 0.783167,-0.35983 1.178629,-1.26506 0.875946,-2.0888 -0.05221,-0.14146 -0.125235,-0.26634 -0.20955,-0.38417 l 4.526491,-3.95393 c 0.44767,0.41204 1.0989,0.57326 1.71132,0.34995 0.86783,-0.31856 1.31516,-1.28093 0.99625,-2.14982 -0.10866,-0.29387 -0.29352,-0.53658 -0.52141,-0.72038 l 1.65559,-2.54458 c 0.30127,0.14287 0.65546,0.17039 0.99271,0.0462 0.33902,-0.12206 0.59126,-0.37394 0.73061,-0.67486 l 5.592928,1.68627 c -0.0293,0.19509 -0.0183,0.39759 0.0554,0.59585 0.23072,0.63253 0.93098,0.95708 1.56245,0.72566 0.63183,-0.23107 0.9585,-0.93063 0.72602,-1.5621 -0.0723,-0.20002 -0.19579,-0.36477 -0.34572,-0.49601 l 2.02071,-3.13372 c 0.28081,0.12806 0.61101,0.15029 0.92463,0.037 0.63288,-0.23212 0.95779,-0.93345 0.72566,-1.56421 -0.23142,-0.63218 -0.93098,-0.95885 -1.56457,-0.72743 -0.63323,0.23213 -0.95638,0.93098 -0.72531,1.56563 0.0737,0.19896 0.19685,0.36442 0.34678,0.4953 l -2.02141,3.13337 c -0.28117,-0.12806 -0.61031,-0.15064 -0.92393,-0.0353 -0.31467,0.11465 -0.55174,0.34643 -0.68368,0.62724 l -5.593998,-1.68663 c 0.0332,-0.20849 0.0198,-0.42898 -0.0582,-0.64206 -0.24518,-0.67063 -0.98601,-1.01564 -1.65593,-0.76976 -0.66923,0.24483 -1.01318,0.98813 -0.76659,1.65665 0.0755,0.21166 0.20849,0.3884 0.36936,0.5274 l -1.65771,2.54811 c -0.39969,-0.20249 -0.877,-0.25012 -1.33244,-0.0843 -0.16016,0.0593 -0.29986,0.1464 -0.42933,0.24306 l -3.279063,-3.50237 c 0.2794,-0.3429 0.381,-0.81915 0.216252,-1.26789 -0.248002,-0.67768 -0.99695,-1.02587 -1.674987,-0.77717 -0.676982,0.24871 -1.026584,0.99872 -0.779288,1.67358 0.248708,0.67945 0.998008,1.02764 1.6764,0.77752 0.111479,-0.0409 0.211315,-0.0995 0.303742,-0.1658 l 3.280124,3.50167 c -0.38382,0.44556 -0.52952,1.07456 -0.31291,1.66405 0.0529,0.14182 0.12523,0.26846 0.20884,0.38524 l -4.525781,3.95357 c -0.447675,-0.41134 -1.099257,-0.57185 -1.709915,-0.34925 -0.867833,0.31891 -1.314096,1.28129 -0.995892,2.14913 0.291748,0.79868 1.12889,1.23366 1.937457,1.05233 l 0.678039,2.00202 c -0.941212,0.37429 -1.627364,1.12571 -1.941337,2.01718 l -7.793919,-2.29341 c 0.05151,-0.28363 0.0381,-0.58455 -0.06632,-0.877 -0.318207,-0.86854 -1.281642,-1.31445 -2.15124,-0.99695 -0.05927,0.0219 -0.112184,0.0554 -0.168275,0.0822 L 62.34881,130.21411 c 0.777875,-0.54328 1.303867,-1.36313 1.484842,-2.27189 l 7.666566,1.10984 c -0.02011,0.30833 0.01939,0.62477 0.132999,0.93204 0.432858,1.18321 1.738841,1.78717 2.915708,1.35537 1.180393,-0.43039 1.78576,-1.73496 1.353608,-2.91677 -0.431096,-1.17722 -1.73849,-1.78329 -2.918179,-1.35043 -0.751417,0.27411 -1.273175,0.90664 -1.438627,1.63442 l -7.671507,-1.10596 c 0.05292,-0.53058 -0.01622,-1.0735 -0.212018,-1.6062 -0.67945,-1.86196 -2.624667,-2.8649 -4.615392,-2.17628 l -2.256367,-6.1655 c 0.974374,-0.39758 1.731082,-1.73708 1.309513,-2.89066 -0.431448,-1.17687 -1.710973,-1.79035 -2.887133,-1.35925 -0.41769,0.15204 -0.762,0.41698 -1.015296,0.74612 l -7.24535,-5.13256 c 0.512233,-0.79552 0.661458,-1.81434 0.31115,-2.77213 -0.05503,-0.14887 -0.123825,-0.29104 -0.197554,-0.42862 l 9.922579,-6.193372 c 0.528463,0.703792 1.4732,1.013882 2.340329,0.696032 1.063977,-0.389467 1.604431,-1.564569 1.215671,-2.626432 -0.07867,-0.210608 -0.19544,-0.399695 -0.327377,-0.56797 l 7.616118,-7.183967 c 0.819502,0.7747 2.003777,1.08091 3.133374,0.667808 0.09172,-0.03281 0.205668,-0.08255 0.202493,-0.08925 l 2.913944,7.964664 c -0.0035,-0.01024 -0.121354,0.02612 -0.211667,0.06103 -1.327854,0.484362 -1.95086,1.933217 -1.465085,3.260727 0.248708,0.68086 0.758118,1.19062 1.3716,1.46014 l -3.339394,9.26007 c -0.217665,-0.0444 -0.446616,-0.0353 -0.669925,0.0462 -0.637823,0.23389 -0.965906,0.94085 -0.732721,1.57938 0.23354,0.63782 0.940506,0.96661 1.577975,0.73307 0.638881,-0.23353 0.967317,-0.94191 0.733425,-1.57867 -0.10795,-0.2974 -0.320675,-0.52106 -0.578908,-0.6604 l 3.341513,-9.26042 c 0.502001,0.14464 1.052335,0.13864 1.582208,-0.055 0.729192,-0.26705 1.262943,-0.83291 1.514827,-1.50707 l 6.04661,2.63208 c -0.134408,0.34537 -0.154165,0.73765 -0.01799,1.11336 0.224367,0.61137 0.789165,1.0026 1.402292,1.03788 l 0.292452,5.36539 c -0.06103,0.0116 -0.12206,0.0233 -0.182385,0.0459 -0.637823,0.23213 -0.964848,0.93839 -0.730957,1.57939 0.23354,0.63711 0.938742,0.9659 1.577975,0.73272 0.63853,-0.23354 0.967671,-0.94086 0.733073,-1.57939 -0.167568,-0.46178 -0.586668,-0.75882 -1.046339,-0.79904 l -0.293511,-5.36681 c 0.09454,-0.0166 0.18909,-0.0388 0.283282,-0.0723 0.605012,-0.22155 0.991658,-0.77435 1.033637,-1.3776 l 15.387459,-0.19297 c 0.007,0.0593 0.0219,0.11607 0.0409,0.17251 0.17463,0.47449 0.69815,0.71826 1.17299,0.54434 0.47237,-0.17286 0.71719,-0.69744 0.54292,-1.17123 -0.17251,-0.47589 -0.69603,-0.71613 -1.1691,-0.54398 -0.30092,0.10972 -0.508,0.36019 -0.57609,0.6477 l -15.410034,0.19262 c -0.01482,-0.10301 -0.04163,-0.20426 -0.07832,-0.30727 -0.117123,-0.32173 -0.332317,-0.57997 -0.596548,-0.762 l 1.999192,-3.769078 c 0.254,0.0889 0.535871,0.100188 0.808214,2.64e-4 0.620888,-0.226131 0.941208,-0.915458 0.714728,-1.534935 -0.22754,-0.62089 -0.916517,-0.941916 -1.537053,-0.714023 -0.620889,0.227894 -0.9398,0.915107 -0.712964,1.537407 0.08326,0.228951 0.231071,0.416276 0.414866,0.552095 l -2.00307,3.76943 c -0.348192,-0.13935 -0.748242,-0.15981 -1.128538,-0.019 -0.332317,0.121 -0.603602,0.34749 -0.784225,0.62124 l -6.112206,-2.66171 c 0.104775,-0.46143 0.05362,-0.94827 -0.122412,-1.42769 -0.409223,-1.122543 -1.633715,-1.740255 -2.720975,-1.643243 L 71.48152,90.348714 c 1.217438,-0.756356 1.824922,-2.29376 1.315863,-3.683 -0.348191,-0.954968 -1.063625,-1.648883 -1.969913,-1.912408 l -0.341135,-0.08184 c -0.510823,-0.08678 -1.048456,-0.04904 -1.569508,0.142521 -0.377473,0.139348 -0.711552,0.344665 -0.994482,0.598665 L 64.56355,82.828904 c 0.248708,-0.517173 0.29845,-1.130655 0.08431,-1.712738 -0.416629,-1.141587 -1.678162,-1.7272 -2.82081,-1.310568 -1.14159,0.416983 -1.729669,1.679926 -1.310217,2.821164"
       style="fill:#ffffff;fill-opacity:1;fill-rule:nonzero;stroke:none;stroke-width:0.35277775"
       id="path30"
       inkscape:connector-curvature="0"
       clip-path="url(#clipPath5299)" />
    <path
       d="m 61.522252,130.64731 c 0.185915,-0.0663 0.361598,-0.15346 0.529166,-0.24588 l 10.833452,16.95131 c -0.549275,0.43745 -0.78881,1.18393 -0.53481,1.87819 0.318207,0.87031 1.280583,1.31728 2.148769,0.99872 0.460023,-0.16757 0.796925,-0.51682 0.969788,-0.93627 l 7.793564,2.29623 c -0.149225,0.62265 -0.124884,1.29575 0.113241,1.9438 0.199321,0.54681 0.526346,1.01283 0.934157,1.37231 l -3.156302,3.95852 c -0.424746,-0.26988 -0.962025,-0.35208 -1.470732,-0.16475 -0.869598,0.31856 -1.31445,1.27917 -0.996243,2.14771 0.316441,0.86854 1.277054,1.3148 2.1463,0.99836 0.869595,-0.31997 1.316566,-1.27952 0.999418,-2.14912 -0.08784,-0.24201 -0.23001,-0.44697 -0.401814,-0.61525 l 3.154891,-3.95816 c 0.878771,0.62759 2.040115,0.82373 3.12773,0.42615 0.06491,-0.0243 0.125235,-0.0529 0.186618,-0.0801 l 6.657977,13.34276 c -0.65017,0.41522 -0.95039,1.23649 -0.67487,1.9872 0.21449,0.58738 0.72532,0.97473 1.30034,1.07068 l -0.61348,10.1212 c -0.31714,2.6e-4 -0.64029,0.0519 -0.95356,0.16686 -0.42897,0.15593 -0.79339,0.40957 -1.08443,0.72002 l -4.64397,-3.81988 c 0.281162,-0.42968 0.366887,-0.97684 0.177093,-1.49542 -0.317852,-0.86995 -1.278466,-1.31728 -2.147006,-0.99942 -0.868185,0.31856 -1.316567,1.28129 -0.999067,2.15053 0.319617,0.86854 1.280938,1.31551 2.151592,0.9973 0.231423,-0.0836 0.43039,-0.21837 0.59549,-0.38205 l 4.641848,3.81881 c -0.51999,0.72073 -0.6858,1.67429 -0.37006,2.56964 l -16.205555,6.89292 c -0.394052,-0.70873 -1.25095,-1.04739 -2.036585,-0.75917 -0.404635,0.14851 -0.713317,0.4392 -0.90029,0.79375 l -8.17386,-3.25297 c 0.143581,-0.46143 0.14464,-0.97049 -0.03387,-1.45627 -0.154517,-0.42121 -0.417335,-0.76517 -0.748242,-1.01917 l 2.319161,-3.53977 c 0.386998,0.19755 0.849489,0.24447 1.290463,0.0843 0.836083,-0.30692 1.266825,-1.23402 0.961318,-2.07151 -0.154165,-0.41592 -0.459317,-0.73166 -0.834318,-0.90593 l 2.266243,-6.65727 c 0.223308,0.0437 0.459669,0.0339 0.687917,-0.0494 0.667808,-0.24483 1.011766,-0.98743 0.769408,-1.65488 -0.245885,-0.66852 -0.986367,-1.01036 -1.654527,-0.76518 -0.162983,0.0586 -0.303741,0.14888 -0.424391,0.25683 L 56.672265,161.15306 c 0.259291,-0.3803 0.3683,-0.85408 0.28222,-1.32503 l 6.49605,-1.83798 c 0.259292,0.59091 0.930982,0.88865 1.547283,0.66252 0.639586,-0.23319 0.967317,-0.94086 0.734836,-1.57762 -0.234596,-0.63888 -0.940504,-0.96908 -1.580796,-0.73484 -0.550688,0.20144 -0.867481,0.756 -0.799396,1.31375 l -6.49252,1.83409 c -0.251884,-0.64065 -0.831144,-1.05587 -1.474611,-1.12783 l 0.05574,-4.86763 c 0.06738,-0.0109 0.135822,-0.0275 0.20179,-0.0522 0.551744,-0.20109 0.835377,-0.81351 0.633235,-1.3649 -0.200728,-0.55174 -0.811741,-0.83185 -1.362075,-0.63077 -0.55245,0.20215 -0.83467,0.80998 -0.632176,1.36173 0.13335,0.3683 0.448381,0.61242 0.808566,0.67839 l -0.0568,4.8708 c -0.155927,0.0134 -0.31256,0.0399 -0.464254,0.096 -0.580673,0.21166 -0.985308,0.69356 -1.128889,1.24848 l -3.963459,-0.60431 c 0.0049,-0.21837 -0.02681,-0.44097 -0.10654,-0.65864 -0.26952,-0.7366 -0.970491,-1.18357 -1.713087,-1.17545 L 45.445466,144.7186 c 0.07973,-0.0198 0.15875,-0.0448 0.238125,-0.073 1.179335,-0.43074 1.821743,-1.67958 1.521883,-2.86738 l 4.053417,-1.33032 c 0.492477,1.20085 1.848202,1.80763 3.075516,1.35854 1.259417,-0.46002 1.906762,-1.8542 1.444271,-3.1122 -0.192262,-0.52952 -0.548921,-0.94721 -0.992362,-1.22308 l 3.83822,-7.00193 c 0.868892,0.44344 1.910292,0.54151 2.897717,0.17815 z M 60.516835,82.62685 c 0.418042,1.141587 1.679575,1.729316 2.821869,1.311275 0.43815,-0.159105 0.795163,-0.447675 1.044575,-0.803275 l 3.287538,2.528003 c -0.72249,0.818447 -0.986015,1.995665 -0.584907,3.092099 0.126648,0.346075 0.310798,0.652639 0.535165,0.918633 l -7.627408,7.191023 c -0.5461,-0.48613 -1.333149,-0.667105 -2.06869,-0.397581 -0.48401,0.178506 -0.862187,0.523168 -1.093259,0.944033 l -5.145616,-2.26201 c 0.06844,-0.23848 0.06526,-0.50024 -0.02681,-0.750359 -0.232127,-0.637823 -0.940859,-0.968729 -1.580444,-0.733425 -0.638175,0.233186 -0.9652,0.940504 -0.730956,1.579737 0.233185,0.635707 0.938035,0.966965 1.577268,0.733425 0.269171,-0.09948 0.476957,-0.283633 0.618773,-0.509058 l 5.145969,2.263071 c -0.147109,0.426861 -0.154162,0.906286 0.01341,1.363134 0.02928,0.07937 0.06562,0.156633 0.102658,0.231068 l -9.925753,6.191247 c -0.794105,-1.12747 -2.272597,-1.63477 -3.630084,-1.137 -0.985308,0.3616 -1.677106,1.1677 -1.937456,2.10785 l -5.41161,-1.2252 c 0.0508,-0.34678 0.02045,-0.70908 -0.109009,-1.06221 -0.409223,-1.12078 -1.650648,-1.69863 -2.772481,-1.28658 -1.120423,0.40745 -1.697567,1.65135 -1.28764,2.77107 0.409575,1.12007 1.652413,1.6958 2.771423,1.28517 0.650875,-0.23601 1.116542,-0.75495 1.31445,-1.36596 l 5.418315,1.22449 c -0.08185,0.51118 -0.03881,1.04563 0.150987,1.56492 0.374298,1.02376 1.225198,1.73073 2.211565,1.96886 l -2.60844,14.49316 c -0.306562,-0.0307 -0.623358,0.005 -0.932037,0.11854 -1.10208,0.40358 -1.668992,1.62066 -1.264356,2.72485 0.403225,1.10244 1.623483,1.67182 2.723798,1.26789 1.104193,-0.40393 1.67005,-1.62737 1.268587,-2.72839 -0.246592,-0.67662 -0.802217,-1.1497 -1.451679,-1.32115 l 2.607733,-14.49352 c 0.475544,0.0579 0.97155,0.0134 1.453796,-0.16404 0.547513,-0.19897 0.999421,-0.53764 1.343025,-0.95815 l 7.253816,5.14456 c -0.303035,0.55457 -0.390525,1.23543 -0.15522,1.87466 0.396169,1.08515 1.580444,1.6704 2.61761,1.43687 l 2.263775,6.19019 c -0.639588,0.29492 -1.236488,0.82762 -1.604788,1.4545 l -3.635372,-1.95686 c 0.140052,-0.34819 0.161219,-0.74683 0.02151,-1.12712 -0.300922,-0.82233 -1.212498,-1.24637 -2.033765,-0.94474 -0.824087,0.30162 -1.247069,1.21355 -0.945796,2.03482 0.300919,0.82303 1.211792,1.24637 2.035173,0.94403 0.324908,-0.11782 0.581379,-0.33231 0.762354,-0.5976 l 3.660775,1.94521 c -0.394406,0.84385 -0.464963,1.83868 -0.119239,2.78201 0.283985,0.77823 0.809273,1.39806 1.459089,1.81152 l -3.84175,7.01286 c -0.554921,-0.24236 -1.195213,-0.28293 -1.809398,-0.0564 -1.176512,0.43004 -1.821037,1.67534 -1.522235,2.86421 l -4.0513,1.33032 c -0.492831,-1.20121 -1.84785,-1.80975 -3.079044,-1.3589 -0.568679,0.20779 -1.011414,0.6089 -1.284464,1.1042 l -3.567994,-1.65665 c 0.156633,-0.43321 0.170037,-0.9204 -0.0013,-1.38818 -0.384881,-1.05304 -1.5494,-1.59173 -2.601383,-1.20756 -1.051984,0.38524 -1.59385,1.5494 -1.209675,2.60139 0.385585,1.05198 1.551162,1.59279 2.6035,1.2072 0.465666,-0.17074 0.830791,-0.49389 1.061508,-0.895 l 3.567287,1.657 c -0.199318,0.52458 -0.218016,1.12042 -0.0095,1.69051 0.0755,0.21026 0.18133,0.40111 0.303038,0.57362 l -11.520313,9.54017 c -0.58561,-0.60255 -1.490133,-0.83997 -2.33045,-0.53199 -1.140529,0.41628 -1.7272,1.67781 -1.308804,2.81834 0.415219,1.14124 1.679927,1.7265 2.820811,1.30951 1.13806,-0.41663 1.726493,-1.67851 1.30951,-2.81905 -0.06844,-0.18485 -0.15875,-0.35171 -0.267052,-0.50623 l 11.521723,-9.53876 c 0.510821,0.53305 1.246717,0.80927 1.996017,0.73202 l 2.2098,12.52431 c -0.08114,0.0177 -0.166159,0.0339 -0.248357,0.0628 -0.930981,0.34184 -1.412523,1.37548 -1.069623,2.30998 0.340784,0.93381 1.374071,1.41182 2.306463,1.07068 0.599017,-0.21836 1.008592,-0.72178 1.139471,-1.30069 l 3.95357,0.60184 c -0.01164,0.23777 0.01871,0.48049 0.106188,0.71685 0.169334,0.46249 0.508704,0.81632 0.923219,1.00894 l -3.076575,8.59402 c -0.201435,-0.0395 -0.414515,-0.0293 -0.621242,0.0448 -0.603956,0.2219 -0.913341,0.89218 -0.69356,1.49366 0.222954,0.60713 0.890058,0.91546 1.492602,0.69568 0.605367,-0.2226 0.919692,-0.88935 0.695677,-1.49578 -0.100542,-0.27798 -0.299509,-0.48965 -0.542925,-0.61877 l 3.075871,-8.59543 c 0.339019,0.0833 0.705202,0.0727 1.058333,-0.0564 0.250119,-0.0931 0.464609,-0.23531 0.641702,-0.41064 l 12.551479,10.46516 c -0.202845,0.32526 -0.265642,0.73236 -0.123119,1.12112 0.117827,0.31962 0.350309,0.56374 0.633942,0.70521 l -2.26695,6.65868 c -0.291748,-0.0656 -0.603602,-0.0561 -0.903465,0.0547 -0.838552,0.30621 -1.268587,1.23472 -0.96167,2.07116 0.101952,0.28045 0.276929,0.508 0.49177,0.68474 l -2.323745,3.54118 c -0.554215,-0.30656 -1.234723,-0.38135 -1.877838,-0.1457 -0.08643,0.0303 -0.167569,0.067 -0.245533,0.10795 l -2.688871,-4.42418 c 0.568677,-0.43427 0.820915,-1.19662 0.563034,-1.90289 -0.317852,-0.86818 -1.279525,-1.31374 -2.148769,-0.99624 -0.870305,0.3175 -1.316921,1.28058 -0.999773,2.14806 0.317852,0.87031 1.28129,1.31657 2.15124,0.99872 0.04868,-0.0177 0.08855,-0.0438 0.135112,-0.0656 l 2.687108,4.42383 c -0.779285,0.56092 -1.140883,1.57163 -0.84455,2.52166 l -10.34697,4.11621 c -0.355248,-0.65828 -1.142648,-0.9786 -1.866548,-0.71261 -0.792692,0.28998 -1.199092,1.16734 -0.907699,1.95968 0.288574,0.79163 1.164874,1.2005 1.957565,0.90981 0.750007,-0.27446 1.148644,-1.07526 0.945444,-1.82915 l 10.346266,-4.11586 c 0.437444,0.89782 1.413227,1.39559 2.383719,1.24778 l 1.095375,4.74451 c -0.736245,0.27093 -1.113719,1.08444 -0.84455,1.81821 0.269523,0.73731 1.083381,1.1169 1.820688,0.84702 0.735187,-0.26917 1.114777,-1.08408 0.844902,-1.82139 -0.227894,-0.62159 -0.846315,-0.98213 -1.47814,-0.91828 l -1.097137,-4.75156 c 0.03387,-0.0106 0.06668,-0.0177 0.100187,-0.0303 0.573265,-0.21026 1.011415,-0.629 1.261181,-1.1363 l 8.171744,3.25332 c -0.09278,0.32526 -0.0896,0.68262 0.03387,1.02411 0.318913,0.8703 1.280231,1.31974 2.149829,1.00118 0.840317,-0.30691 1.279525,-1.21849 1.021292,-2.06339 l 16.20661,-6.89046 c 0.27341,0.5454 0.70909,0.96838 1.22414,1.23331 l -2.55129,5.85047 c -0.47872,-0.16686 -1.01564,-0.17533 -1.52894,0.0113 -1.181452,0.4325 -1.786818,1.74201 -1.355725,2.92206 0.153811,0.41662 0.416632,0.75988 0.741545,1.01211 l -7.360713,11.10686 c -0.709084,-0.39899 -1.57974,-0.49777 -2.402417,-0.19791 -0.152048,0.0564 -0.294217,0.12665 -0.431448,0.20391 l -3.15101,-4.80378 c 0.43674,-0.37359 0.6223,-0.9913 0.412398,-1.56527 -0.270933,-0.7366 -1.08303,-1.1169 -1.818217,-0.84737 -0.738365,0.26987 -1.116896,1.08479 -0.845963,1.82209 0.267407,0.73766 1.083734,1.11513 1.819982,0.84561 0.04798,-0.0173 0.08961,-0.0445 0.13476,-0.0649 l 3.154188,4.80448 c -0.880888,0.65123 -1.322213,1.76283 -1.109133,2.85785 l -12.07488,3.28789 c -0.286808,-0.69956 -1.077735,-1.05763 -1.79705,-0.79551 -0.49177,0.18097 -0.819854,0.60819 -0.904875,1.09114 L 58.92805,214.6527 c -0.01058,-0.0995 -0.02928,-0.1972 -0.06456,-0.29527 -0.228248,-0.62477 -0.920044,-0.94792 -1.546225,-0.71967 -0.625827,0.22895 -0.945444,0.92322 -0.717902,1.54587 0.229658,0.62795 0.921808,0.95039 1.54587,0.72038 0.41275,-0.14958 0.686507,-0.50095 0.765882,-0.90065 l 3.302704,0.16263 c 0.0088,0.12806 0.02999,0.25542 0.07691,0.381 0.1651,0.45368 0.536223,0.76659 0.970492,0.88442 l -2.080684,15.19872 c -0.167923,-0.004 -0.340076,0.0215 -0.506235,0.0815 -0.738013,0.27129 -1.116893,1.08515 -0.846315,1.82598 0.268111,0.73307 1.085499,1.11196 1.820334,0.84102 0.735541,-0.26846 1.114777,-1.08444 0.847373,-1.81892 -0.166865,-0.45156 -0.537282,-0.76694 -0.968375,-0.88406 l 2.080329,-15.19872 c 0.167216,10e-4 0.337608,-0.0222 0.503766,-0.0825 0.242359,-0.0896 0.440973,-0.23954 0.5969,-0.42686 l 3.562705,2.29975 c -0.161221,0.33408 -0.192971,0.72708 -0.05574,1.10349 0.269169,0.7366 1.084085,1.11478 1.820685,0.84455 0.737659,-0.26846 1.11478,-1.08408 0.844198,-1.81892 -0.269523,-0.73801 -1.082675,-1.11619 -1.820333,-0.84772 -0.243065,0.0892 -0.441325,0.242 -0.595842,0.42721 l -3.56235,-2.29941 c 0.120299,-0.24906 0.168627,-0.53234 0.128059,-0.81668 l 12.065352,-3.28612 c 0.01058,0.0314 0.01939,0.0681 0.0314,0.1016 0.480483,1.31304 1.814335,2.06516 3.145366,1.85596 l 0.926042,4.21005 c -0.0321,0.0102 -0.06138,0.0183 -0.09207,0.0296 -1.045988,0.38241 -1.582563,1.54022 -1.20015,2.58409 0.310444,0.84949 1.132769,1.3656 1.989312,1.32221 l 1.129948,8.31709 c -0.0829,0.019 -0.16651,0.0409 -0.24906,0.0706 -0.670279,0.24623 -1.1303,0.81138 -1.274233,1.46156 l -5.643385,-0.73978 c 0.0021,-0.16545 -0.02257,-0.33408 -0.08149,-0.49671 -0.268113,-0.73519 -1.08444,-1.11266 -1.82104,-0.84349 -0.735893,0.27058 -1.115131,1.08197 -0.844198,1.81998 0.2667,0.73377 1.082323,1.11266 1.818923,0.84314 0.454377,-0.16546 0.76976,-0.53869 0.884767,-0.97402 l 5.639504,0.73801 c -0.0113,0.25717 0.02716,0.52176 0.121004,0.77682 0.09666,0.26775 0.243417,0.49917 0.425096,0.69461 l -9.534877,10.69094 c -0.367242,-0.25295 -0.843492,-0.33373 -1.293987,-0.16863 -0.739072,0.26846 -1.116542,1.08479 -0.845963,1.8235 0.267054,0.73449 1.083029,1.11196 1.820688,0.84279 0.735541,-0.26987 1.113366,-1.08444 0.844901,-1.81751 -0.06032,-0.17039 -0.153458,-0.31715 -0.266348,-0.44591 l 9.5377,-10.69517 c 0.528815,0.393 1.236486,0.52247 1.899002,0.28011 0.189442,-0.0684 0.36054,-0.16439 0.513998,-0.27763 l 8.094484,9.08296 c -0.46107,0.49777 -0.6417,1.22838 -0.39193,1.91206 0.35595,0.97155 1.43122,1.47249 2.40312,1.11584 0.97261,-0.3556 1.47179,-1.43052 1.11513,-2.40383 -0.3556,-0.97049 -1.43157,-1.47003 -2.40277,-1.11478 -0.1711,0.0639 -0.32138,0.15346 -0.46214,0.25823 l -8.095544,-9.08473 c 0.506236,-0.53799 0.698148,-1.33562 0.426509,-2.0768 -0.03316,-0.0882 -0.07197,-0.1711 -0.116065,-0.25189 l 4.28519,-2.78412 c 0.49778,0.62936 1.35926,0.901 2.15195,0.61031 0.99166,-0.36195 1.50072,-1.45874 1.13771,-2.44934 -0.36195,-0.99095 -1.45627,-1.49895 -2.44793,-1.13594 -0.98989,0.36265 -1.50001,1.45732 -1.1377,2.44686 0.0303,0.0822 0.0663,0.15875 0.10442,0.23495 l -4.281317,2.78272 c -0.402873,-0.51506 -1.032581,-0.80645 -1.686277,-0.77612 l -1.129948,-8.31497 c 0.08396,-0.0187 0.166865,-0.0395 0.248002,-0.0709 1.047398,-0.38241 1.585738,-1.54234 1.202973,-2.58903 -0.329494,-0.90206 -1.23966,-1.42346 -2.155473,-1.30387 l -0.924629,-4.21005 c 0.06914,-0.0212 0.137583,-0.0388 0.207785,-0.066 1.176515,-0.42968 1.900061,-1.54834 1.88595,-2.73614 l 5.533319,-0.32879 c 0.0141,0.0628 0.02611,0.12911 0.04974,0.1912 0.243055,0.66887 0.983895,1.01283 1.651705,0.768 0.67063,-0.24483 1.01388,-0.9839 0.76905,-1.65276 -0.24412,-0.66922 -0.98319,-1.01142 -1.65241,-0.76694 -0.49001,0.17956 -0.800799,0.623 -0.838195,1.10949 l -5.536494,0.3302 c -0.02858,-0.20285 -0.07549,-0.40605 -0.149577,-0.60643 -0.202142,-0.55245 -0.554921,-1.00295 -0.99554,-1.32715 l 7.357526,-11.1058 c 0.55633,0.31256 1.24072,0.38876 1.88701,0.1517 1.18075,-0.4318 1.78929,-1.73849 1.35643,-2.91995 -0.20002,-0.54856 -0.59196,-0.97296 -1.07209,-1.2266 l 2.5534,-5.85082 c 0.59726,0.21731 1.27318,0.23424 1.9177,-10e-4 0.84879,-0.31009 1.4538,-0.9913 1.7071,-1.79352 l 4.860568,1.19415 c -0.0504,0.32385 -0.0226,0.66534 0.0981,1.00013 0.37959,1.03717 1.52118,1.57339 2.56222,1.20615 l 0.3175,-0.14358 c 0.84914,-0.47766 1.25343,-1.50707 0.90947,-2.44934 -0.0998,-0.27235 -0.25294,-0.50835 -0.44098,-0.70415 l 3.28084,-3.7539 c 0.52599,0.38382 1.22625,0.50694 1.88312,0.26634 0.39582,-0.14428 0.71897,-0.40005 0.9458,-0.71966 l 6.33025,3.75602 c -0.145,0.32879 -0.17181,0.71085 -0.0385,1.07421 0.27341,0.75071 1.10385,1.13489 1.85279,0.86148 0.74825,-0.2734 1.13348,-1.10278 0.85796,-1.85349 -0.27235,-0.74824 -1.10173,-1.13242 -1.84856,-0.85866 -0.26811,0.097 -0.4833,0.26705 -0.64488,0.47449 l -6.32926,-3.75683 c 0.22684,-0.47202 0.27093,-1.03329 0.0759,-1.56633 -0.0201,-0.0572 -0.0455,-0.11395 -0.0713,-0.16898 l 2.47085,-1.44604 c 0.3937,0.52282 1.0915,0.75565 1.7392,0.51858 0.79163,-0.28786 1.19662,-1.16346 0.90593,-1.95509 -0.23777,-0.65017 -0.87313,-1.03435 -1.53176,-0.99095 l -2.19322,-11.93095 c 0.0325,-0.01 0.0656,-0.0124 0.0984,-0.0254 0.85337,-0.31256 1.29223,-1.25518 0.97932,-2.10996 -0.17145,-0.4699 -0.53587,-0.80645 -0.97191,-0.96979 l 2.25496,-8.80569 c 0.19579,0.0229 0.3997,0.008 0.59796,-0.0667 0.67592,-0.24553 1.02623,-0.99519 0.77893,-1.67217 -0.2473,-0.67627 -0.9973,-1.02164 -1.67534,-0.7747 -0.67522,0.24765 -1.0227,0.99554 -0.77576,1.67146 0.13123,0.35984 0.40605,0.62195 0.73307,0.75495 l -2.2539,8.80533 c -0.26035,-0.0384 -0.53269,-0.019 -0.79904,0.0773 -0.85231,0.31186 -1.29222,1.25659 -0.9786,2.11032 0.25788,0.70802 0.95073,1.12077 1.66617,1.06821 l 2.19392,11.93024 c -0.0257,0.009 -0.0533,0.0106 -0.078,0.0201 -0.79164,0.28892 -1.19768,1.16487 -0.90911,1.9558 0.0116,0.0317 0.0289,0.0568 0.0423,0.0864 l -2.47226,1.44497 c -0.5133,-0.72178 -1.46438,-1.04492 -2.33821,-0.72778 -0.0307,0.0127 -0.0593,0.0265 -0.0885,0.0399 l -1.14582,-2.16994 c 0.45967,-0.32879 0.66851,-0.93345 0.4639,-1.49437 -0.24765,-0.67204 -0.99095,-1.01847 -1.6637,-0.77434 -0.67345,0.24659 -1.01847,0.99448 -0.77294,1.66652 0.24624,0.6731 0.99237,1.01953 1.66441,0.77258 l 1.1437,2.16218 c -0.7747,0.49918 -1.131,1.48378 -0.80151,2.38407 0.1009,0.27164 0.25189,0.50729 0.43992,0.70309 l -3.2826,3.75567 c -0.52599,-0.38312 -1.22626,-0.50518 -1.88348,-0.26529 -0.5962,0.21766 -1.02588,0.68827 -1.21497,1.24601 l -4.860218,-1.19309 c 0.0857,-0.47308 0.0533,-0.97332 -0.12241,-1.45698 -0.37395,-1.01988 -1.27917,-1.68804 -2.28459,-1.81504 l 0.61101,-10.12119 c 0.16616,-0.006 0.33479,-0.0303 0.49953,-0.0924 0.86925,-0.3175 1.31834,-1.27953 0.99907,-2.14912 -0.31644,-0.86925 -1.28129,-1.31586 -2.14983,-0.99801 -0.004,0.001 -0.007,0.003 -0.0113,0.004 l -6.655856,-13.34135 c 1.082316,-0.6089 1.728956,-1.76001 1.718376,-2.97427 l 10.610138,-0.65793 c 0.0173,0.10019 0.0399,0.19932 0.0748,0.29704 0.31856,0.8696 1.28165,1.31797 2.14877,0.99906 0.87136,-0.31679 1.31692,-1.27952 0.99836,-2.15159 -0.31679,-0.86748 -1.27776,-1.31304 -2.14877,-0.99483 -0.65616,0.23848 -1.06856,0.8449 -1.0989,1.50072 l -10.605908,0.65757 c -0.0296,-0.2607 -0.0878,-0.52211 -0.18203,-0.77928 -0.61172,-1.67217 -2.40806,-2.56646 -4.094691,-2.0888 l -0.679096,-2.00378 c 0.783167,-0.35983 1.178629,-1.26506 0.875946,-2.0888 -0.05221,-0.14146 -0.125235,-0.26634 -0.20955,-0.38417 l 4.526491,-3.95393 c 0.44767,0.41204 1.0989,0.57326 1.71132,0.34995 0.86783,-0.31856 1.31516,-1.28093 0.99625,-2.14982 -0.10866,-0.29387 -0.29352,-0.53658 -0.52141,-0.72038 l 1.65559,-2.54458 c 0.30127,0.14287 0.65546,0.17039 0.99271,0.0462 0.33902,-0.12206 0.59126,-0.37394 0.73061,-0.67486 l 5.592928,1.68627 c -0.0293,0.19509 -0.0183,0.39759 0.0554,0.59585 0.23072,0.63253 0.93098,0.95708 1.56245,0.72566 0.63183,-0.23107 0.9585,-0.93063 0.72602,-1.5621 -0.0723,-0.20002 -0.19579,-0.36477 -0.34572,-0.49601 l 2.02071,-3.13372 c 0.28081,0.12806 0.61101,0.15029 0.92463,0.037 0.63288,-0.23212 0.95779,-0.93345 0.72566,-1.56421 -0.23142,-0.63218 -0.93098,-0.95885 -1.56457,-0.72743 -0.63323,0.23213 -0.95638,0.93098 -0.72531,1.56563 0.0737,0.19896 0.19685,0.36442 0.34678,0.4953 l -2.02141,3.13337 c -0.28117,-0.12806 -0.61031,-0.15064 -0.92393,-0.0353 -0.31467,0.11465 -0.55174,0.34643 -0.68368,0.62724 l -5.593998,-1.68663 c 0.0332,-0.20849 0.0198,-0.42898 -0.0582,-0.64206 -0.24518,-0.67063 -0.98601,-1.01564 -1.65593,-0.76976 -0.66923,0.24483 -1.01318,0.98813 -0.76659,1.65665 0.0755,0.21166 0.20849,0.3884 0.36936,0.5274 l -1.65771,2.54811 c -0.39969,-0.20249 -0.877,-0.25012 -1.33244,-0.0843 -0.16016,0.0593 -0.29986,0.1464 -0.42933,0.24306 l -3.279063,-3.50237 c 0.2794,-0.3429 0.381,-0.81915 0.216252,-1.26789 -0.248002,-0.67768 -0.99695,-1.02587 -1.674987,-0.77717 -0.676982,0.24871 -1.026584,0.99872 -0.779288,1.67358 0.248708,0.67945 0.998008,1.02764 1.6764,0.77752 0.111479,-0.0409 0.211315,-0.0995 0.303742,-0.1658 l 3.280124,3.50167 c -0.38382,0.44556 -0.52952,1.07456 -0.31291,1.66405 0.0529,0.14182 0.12523,0.26846 0.20884,0.38524 l -4.525781,3.95357 c -0.447675,-0.41134 -1.099257,-0.57185 -1.709915,-0.34925 -0.867833,0.31891 -1.314096,1.28129 -0.995892,2.14913 0.291748,0.79868 1.12889,1.23366 1.937457,1.05233 l 0.678039,2.00202 c -0.941212,0.37429 -1.627364,1.12571 -1.941337,2.01718 l -7.793919,-2.29341 c 0.05151,-0.28363 0.0381,-0.58455 -0.06632,-0.877 -0.318207,-0.86854 -1.281642,-1.31445 -2.15124,-0.99695 -0.05927,0.0219 -0.112184,0.0554 -0.168275,0.0822 L 62.34881,130.21411 c 0.777875,-0.54328 1.303867,-1.36313 1.484842,-2.27189 l 7.666566,1.10984 c -0.02011,0.30833 0.01939,0.62477 0.132999,0.93204 0.432858,1.18321 1.738841,1.78717 2.915708,1.35537 1.180393,-0.43039 1.78576,-1.73496 1.353608,-2.91677 -0.431096,-1.17722 -1.73849,-1.78329 -2.918179,-1.35043 -0.751417,0.27411 -1.273175,0.90664 -1.438627,1.63442 l -7.671507,-1.10596 c 0.05292,-0.53058 -0.01622,-1.0735 -0.212018,-1.6062 -0.67945,-1.86196 -2.624667,-2.8649 -4.615392,-2.17628 l -2.256367,-6.1655 c 0.974374,-0.39758 1.731082,-1.73708 1.309513,-2.89066 -0.431448,-1.17687 -1.710973,-1.79035 -2.887133,-1.35925 -0.41769,0.15204 -0.762,0.41698 -1.015296,0.74612 l -7.24535,-5.13256 c 0.512233,-0.79552 0.661458,-1.81434 0.31115,-2.77213 -0.05503,-0.14887 -0.123825,-0.29104 -0.197554,-0.42862 l 9.922579,-6.193372 c 0.528463,0.703792 1.4732,1.013882 2.340329,0.696032 1.063977,-0.389467 1.604431,-1.564569 1.215671,-2.626432 -0.07867,-0.210608 -0.19544,-0.399695 -0.327377,-0.56797 l 7.616118,-7.183967 c 0.819502,0.7747 2.003777,1.08091 3.133374,0.667808 0.09172,-0.03281 0.205668,-0.08255 0.202493,-0.08925 l 2.913944,7.964664 c -0.0035,-0.01024 -0.121354,0.02612 -0.211667,0.06103 -1.327854,0.484362 -1.95086,1.933217 -1.465085,3.260727 0.248708,0.68086 0.758118,1.19062 1.3716,1.46014 l -3.339394,9.26007 c -0.217665,-0.0444 -0.446616,-0.0353 -0.669925,0.0462 -0.637823,0.23389 -0.965906,0.94085 -0.732721,1.57938 0.23354,0.63782 0.940506,0.96661 1.577975,0.73307 0.638881,-0.23353 0.967317,-0.94191 0.733425,-1.57867 -0.10795,-0.2974 -0.320675,-0.52106 -0.578908,-0.6604 l 3.341513,-9.26042 c 0.502001,0.14464 1.052335,0.13864 1.582208,-0.055 0.729192,-0.26705 1.262943,-0.83291 1.514827,-1.50707 l 6.04661,2.63208 c -0.134408,0.34537 -0.154165,0.73765 -0.01799,1.11336 0.224367,0.61137 0.789165,1.0026 1.402292,1.03788 l 0.292452,5.36539 c -0.06103,0.0116 -0.12206,0.0233 -0.182385,0.0459 -0.637823,0.23213 -0.964848,0.93839 -0.730957,1.57939 0.23354,0.63711 0.938742,0.9659 1.577975,0.73272 0.63853,-0.23354 0.967671,-0.94086 0.733073,-1.57939 -0.167568,-0.46178 -0.586668,-0.75882 -1.046339,-0.79904 l -0.293511,-5.36681 c 0.09454,-0.0166 0.18909,-0.0388 0.283282,-0.0723 0.605012,-0.22155 0.991658,-0.77435 1.033637,-1.3776 l 15.387459,-0.19297 c 0.007,0.0593 0.0219,0.11607 0.0409,0.17251 0.17463,0.47449 0.69815,0.71826 1.17299,0.54434 0.47237,-0.17286 0.71719,-0.69744 0.54292,-1.17123 -0.17251,-0.47589 -0.69603,-0.71613 -1.1691,-0.54398 -0.30092,0.10972 -0.508,0.36019 -0.57609,0.6477 l -15.410034,0.19262 c -0.01482,-0.10301 -0.04163,-0.20426 -0.07832,-0.30727 -0.117123,-0.32173 -0.332317,-0.57997 -0.596548,-0.762 l 1.999192,-3.769078 c 0.254,0.0889 0.535871,0.100188 0.808214,2.64e-4 0.620888,-0.226131 0.941208,-0.915458 0.714728,-1.534935 -0.22754,-0.62089 -0.916517,-0.941916 -1.537053,-0.714023 -0.620889,0.227894 -0.9398,0.915107 -0.712964,1.537407 0.08326,0.228951 0.231071,0.416276 0.414866,0.552095 l -2.00307,3.76943 c -0.348192,-0.13935 -0.748242,-0.15981 -1.128538,-0.019 -0.332317,0.121 -0.603602,0.34749 -0.784225,0.62124 l -6.112206,-2.66171 c 0.104775,-0.46143 0.05362,-0.94827 -0.122412,-1.42769 -0.409223,-1.122543 -1.633715,-1.740255 -2.720975,-1.643243 L 71.48152,90.348714 c 1.217438,-0.756356 1.824922,-2.29376 1.315863,-3.683 -0.348191,-0.954968 -1.063625,-1.648883 -1.969913,-1.912408 l -0.341135,-0.08184 c -0.510823,-0.08678 -1.048456,-0.04904 -1.569508,0.142521 -0.377473,0.139348 -0.711552,0.344665 -0.994482,0.598665 L 64.56355,82.828904 c 0.248708,-0.517173 0.29845,-1.130655 0.08431,-1.712738 -0.416629,-1.141587 -1.678162,-1.7272 -2.82081,-1.310568 -1.14159,0.416983 -1.729669,1.679926 -1.310217,2.821164 z"
       style="fill:none;stroke:#c0bdc6;stroke-width:0.35277775;stroke-linecap:butt;stroke-linejoin:miter;stroke-miterlimit:10;stroke-dasharray:none;stroke-opacity:1"
       id="path34"
       inkscape:connector-curvature="0"
       clip-path="url(#clipPath5295)" />
    <path
       d="m 59.026456,251.50004 0.171098,0.22261 c 0.582787,0.68086 1.466495,1.0929 2.431695,1.02305 1.613959,-0.11782 2.822927,-1.51941 2.707217,-3.13231 -0.05257,-0.71544 -0.366535,-1.34373 -0.83185,-1.82034 l 11.416242,-12.23786 c 0.674864,0.57926 1.569156,0.90276 2.527651,0.83468 0.652288,-0.0483 1.245659,-0.27482 1.745192,-0.62477 l 2.526948,3.0995 c -0.612423,0.6096 -0.6223,1.6002 -0.01728,2.22109 0.606779,0.62477 1.608667,0.63782 2.232379,0.0307 0.625121,-0.60819 0.638879,-1.60831 0.0314,-2.23414 -0.539396,-0.55245 -1.383946,-0.62406 -2.005187,-0.21166 l -2.521657,-3.09457 c 0.579261,-0.48966 0.995892,-1.16487 1.160286,-1.92405 l 0.04974,-0.27728 c 0.03246,-0.23249 0.04022,-0.47414 0.02328,-0.7172 -0.05785,-0.76729 -0.357717,-1.45591 -0.819502,-1.99955 l 11.381674,-10.4595 c 0.56233,0.5535 1.34267,0.87982 2.19004,0.81668 1.56422,-0.11254 2.73967,-1.47462 2.62432,-3.03777 -0.11325,-1.5621 -1.47215,-2.73756 -3.0346,-2.62361 -0.20849,0.0155 -0.40922,0.0547 -0.59972,0.11112 l -2.00589,-5.72135 c 1.10878,-0.45191 1.85914,-1.56421 1.76635,-2.82046 0,-0.004 -0.001,-0.007 -0.001,-0.012 l 11.531248,-1.45979 c 0.15381,0.76023 0.84455,1.30386 1.63618,1.24742 0.86219,-0.0632 1.50777,-0.80998 1.44674,-1.67287 -0.0632,-0.85725 -0.81139,-1.50531 -1.67181,-1.44251 -0.83326,0.06 -1.46085,0.76693 -1.44498,1.58961 l -11.545358,1.46015 c -0.13582,-0.75494 -0.55809,-1.39383 -1.15287,-1.81398 l 6.00533,-9.4735 c 0.30022,0.15981 0.64382,0.24307 1.00789,0.21661 1.02658,-0.0748 1.79317,-0.96591 1.71979,-1.99108 -0.067,-0.92145 -0.79516,-1.62842 -1.68522,-1.70956 l 0.26352,-17.05892 c 0.0272,-8e-4 0.0522,0.002 0.0801,0.002 0.54715,-0.0409 1.03646,-0.26 1.42592,-0.58808 l 5.374568,5.66914 c -0.26141,0.29704 -0.40851,0.69285 -0.37676,1.1183 0.0624,0.84596 0.79339,1.47744 1.63688,1.41711 0.84314,-0.0628 1.47638,-0.7941 1.41605,-1.63901 -0.0621,-0.84102 -0.79339,-1.4739 -1.63759,-1.41252 -0.3168,0.0236 -0.6029,0.14111 -0.83679,0.3228 l -5.374218,-5.67055 c 0.464258,-0.49143 0.732728,-1.16311 0.678748,-1.88737 -0.0699,-0.96767 -0.689328,-1.75824 -1.528228,-2.11137 l 8.914338,-25.16928 c 0.254,0.0705 0.51999,0.10759 0.79586,0.0878 0.55563,-0.0395 1.04423,-0.28187 1.4157,-0.64276 l 13.07394,12.02443 c -0.28327,0.35948 -0.44273,0.81456 -0.40534,1.30633 0.005,0.0836 0.0254,0.16228 0.0402,0.2413 l -6.07624,1.72015 c -0.23672,-0.60996 -0.84455,-1.02588 -1.53318,-0.97649 -0.84349,0.061 -1.47567,0.79269 -1.41393,1.63477 0.0603,0.84561 0.79269,1.47814 1.63618,1.41711 0.84244,-0.0621 1.47673,-0.7941 1.41394,-1.63971 -0.004,-0.0557 -0.0194,-0.10866 -0.0272,-0.16369 l 6.07766,-1.7212 c 0.28257,0.77329 1.04351,1.30316 1.90782,1.24213 1.04317,-0.0776 1.82598,-0.98496 1.74943,-2.02777 -0.0751,-1.04175 -0.98179,-1.82492 -2.02565,-1.75013 -0.44874,0.0339 -0.84561,0.22578 -1.14971,0.51223 l -13.07422,-12.02276 c 0.3563,-0.4371 0.55668,-1.00119 0.51259,-1.60867 -0.0935,-1.26294 -1.1931,-2.21368 -2.45604,-2.11984 -0.48578,0.0342 -0.9204,0.21943 -1.27036,0.50306 L 89.108262,121.01823 c 0.12418,-0.13652 0.22649,-0.29139 0.30092,-0.46178 l 18.836928,6.77086 c -0.0282,0.11994 -0.0459,0.24835 -0.0339,0.37994 0.0487,0.69638 0.65369,1.21955 1.35114,1.16981 0.69638,-0.0519 1.21849,-0.65581 1.16663,-1.35184 -0.048,-0.69639 -0.65369,-1.21885 -1.35078,-1.16805 -0.46426,0.0321 -0.84737,0.31609 -1.03858,0.70379 l -18.834098,-6.76698 c 0.0487,-0.18309 0.0751,-0.37465 0.061,-0.57362 -0.0691,-0.94826 -0.8957,-1.66193 -1.844675,-1.59138 -0.01198,-2.6e-4 -0.01905,0.004 -0.03281,0.005 L 82.256968,87.110201 c 0.310091,-0.0755 0.587375,-0.222605 0.820914,-0.422275 l 3.934177,4.028017 c -0.195437,0.240945 -0.307268,0.553508 -0.284337,0.887941 0.05009,0.697794 0.654754,1.219552 1.352902,1.169811 0.695678,-0.05009 1.219548,-0.655109 1.169108,-1.35255 -0.0508,-0.696032 -0.65687,-1.21779 -1.352906,-1.165932 -0.259996,0.01693 -0.4953,0.11289 -0.686152,0.261408 l -3.928533,-4.022018 c 0.35066,-0.394052 0.549275,-0.923219 0.508706,-1.49225 -0.03986,-0.525992 -0.2794,-0.98566 -0.635,-1.318332 L 105.51137,56.429823 c 0.31327,0.218017 0.69815,0.339371 1.10843,0.309386 0.95391,-0.07056 1.67146,-0.90029 1.60267,-1.8542 -0.0547,-0.721432 -0.54081,-1.30669 -1.1878,-1.519767 l 3.9123,-15.680267 c 0.10901,0.01553 0.22437,0.02434 0.33973,0.01516 0.84208,-0.06103 1.47214,-0.791985 1.41146,-1.631243 -0.0614,-0.8382 -0.79304,-1.471084 -1.63301,-1.408994 -0.83996,0.05962 -1.47143,0.793044 -1.40899,1.632302 0.0455,0.622652 0.46178,1.131358 1.01811,1.326798 l -3.90313,15.685558 c -0.13088,-0.02151 -0.2667,-0.03105 -0.40463,-0.02188 -0.95427,0.0695 -1.67146,0.899231 -1.60197,1.853142 0.0321,0.444852 0.23354,0.829733 0.52846,1.115835 L 82.936772,83.506206 c -0.371123,-0.263877 -0.824796,-0.411692 -1.31445,-0.375002 -0.887942,0.06209 -1.592088,0.695325 -1.804458,1.51271 l -5.085998,-0.944385 c 0.0035,-0.06174 0.0085,-0.123119 0.0032,-0.184857 -0.04904,-0.694618 -0.654402,-1.218141 -1.350434,-1.165225 -0.151341,0.01024 -0.291745,0.0508 -0.420862,0.107246 l -3.84034,-6.541206 c 0.244124,-0.195792 0.392642,-0.504825 0.367594,-0.841023 -0.03916,-0.543277 -0.510469,-0.951794 -1.0541,-0.910871 -0.544687,0.03951 -0.951442,0.509763 -0.911929,1.052336 0.0381,0.546806 0.510821,0.953558 1.0541,0.9144 0.106892,-0.0095 0.206021,-0.03739 0.29986,-0.07549 l 3.839986,6.544027 c -0.331962,0.247298 -0.535162,0.65405 -0.504119,1.099256 0.05186,0.697794 0.656873,1.222021 1.35255,1.170517 0.535869,-0.04022 0.967669,-0.407458 1.114425,-0.89394 l 5.078587,0.944034 c -0.01376,0.124177 -0.01976,0.250118 -0.01058,0.378883 0.08079,1.115483 1.052338,1.955094 2.167467,1.872544 0.02257,-0.0028 0.04092,-0.0078 0.06209,-0.01093 l 5.434161,31.02222 c -0.629356,0.16298 -1.099963,0.66675 -1.239308,1.28799 l -18.563167,-2.61267 c -7.94e-4,-0.0423 0.0056,-0.0832 0.0019,-0.12665 -0.04939,-0.69603 -0.653695,-1.21779 -1.350785,-1.16699 -0.696735,0.0508 -1.219906,0.65652 -1.169458,1.35008 0.04939,0.6978 0.655814,1.22132 1.351139,1.17052 0.556329,-0.042 0.995892,-0.43603 1.128184,-0.94721 l 18.562105,2.61232 c -0.0046,0.0734 -0.01236,0.14534 -0.006,0.22084 0.04339,0.58067 0.367242,1.06856 0.827969,1.34937 l -1.864783,3.73275 c -0.164746,-0.0596 -0.341136,-0.0878 -0.526696,-0.0737 -0.696738,0.0501 -1.2192,0.6544 -1.1684,1.34972 0.05045,0.69744 0.655812,1.22061 1.351844,1.17123 0.696383,-0.0522 1.219552,-0.65723 1.170165,-1.35255 -0.0314,-0.41275 -0.256117,-0.75883 -0.577499,-0.96626 l 1.868665,-3.73909 c 0.235654,0.0945 0.494242,0.14499 0.764117,0.12664 0.351367,-0.0282 0.670628,-0.15734 0.929918,-0.35807 l 18.141948,19.85539 c -0.31856,0.32737 -0.53728,0.74647 -0.61595,1.21108 l -3.35845,-0.34854 c 10e-4,-0.0656 0.01,-0.12841 0.005,-0.19438 -0.0752,-1.04105 -0.98355,-1.82421 -2.02601,-1.74766 -1.04457,0.0765 -1.827738,0.98107 -1.751188,2.02353 0.0759,1.04352 0.981788,1.82668 2.026708,1.75084 0.87877,-0.0646 1.56704,-0.72214 1.71874,-1.55258 l 3.36161,0.34961 c -0.003,0.09 -0.0127,0.17356 -0.007,0.26422 0.0646,0.88654 0.62935,1.60867 1.39453,1.93499 l -8.913988,25.1707 c -0.27834,-0.0811 -0.57326,-0.12277 -0.87877,-0.10019 -1.24848,0.0907 -2.20662,1.09149 -2.29588,2.3061 l -8.54956,-0.14534 c 0,-0.0102 0.0021,-0.0208 7.94e-4,-0.0307 -0.07408,-1.04034 -0.981075,-1.82492 -2.025298,-1.74837 -0.226836,0.0152 -0.437092,0.0787 -0.631825,0.16616 l -3.854292,-7.14022 c 0.443797,-0.29527 0.723197,-0.80962 0.680509,-1.38007 -0.06138,-0.84243 -0.791634,-1.47531 -1.636535,-1.41252 -0.843844,0.0603 -1.474611,0.79163 -1.414638,1.63372 0.06174,0.8456 0.794454,1.47813 1.637239,1.41534 0.173215,-0.0116 0.33514,-0.0603 0.486482,-0.12383 l 3.853392,7.14129 c -0.564444,0.36336 -0.923219,1.00823 -0.871009,1.72367 0.07726,1.04634 0.982485,1.82668 2.026357,1.75154 0.938035,-0.0677 1.659466,-0.80821 1.740603,-1.71521 l 8.548511,0.1457 c 0.003,0.0272 -0.004,0.0547 -0.001,0.0825 0.0921,1.25307 1.09784,2.21545 2.31563,2.29764 l -0.26917,17.06034 c -0.008,0 -0.0148,-0.002 -0.0243,0 -1.02588,0.0734 -1.79317,0.96343 -1.71944,1.98719 0.0402,0.56198 0.32985,1.03823 0.74648,1.34903 l -5.99934,9.46926 c -0.47167,-0.26811 -1.02412,-0.4064 -1.60761,-0.36301 -0.37253,0.0268 -0.720721,0.12911 -1.039279,0.28469 l -4.026959,-7.27004 c 0.554567,-0.3676 0.903817,-1.00683 0.853724,-1.71662 -0.07655,-1.04069 -0.983192,-1.82316 -2.027767,-1.74872 -1.043517,0.0759 -1.824567,0.98178 -1.749073,2.02283 0.07514,1.04492 0.981075,1.82915 2.025298,1.75295 0.232479,-0.0169 0.451554,-0.0801 0.651579,-0.17533 l 4.031898,7.2778 c -0.869598,0.5394 -1.420635,1.51836 -1.343025,2.6095 0.115358,1.56245 1.473906,2.73826 3.037764,2.62361 0.20885,-0.0152 0.4057,-0.0561 0.59725,-0.11148 l 2.00449,5.72276 c -1.10667,0.45156 -1.8542,1.56528 -1.76354,2.82364 0.0452,0.61277 0.28646,1.16169 0.65158,1.60161 l -11.37653,10.45639 c -0.691443,-0.69427 -1.668637,-1.09537 -2.722737,-1.01847 -0.830085,0.0596 -1.57339,0.4064 -2.1336,0.93521 l -7.59469,-7.45948 c 0.523523,-0.58843 0.821973,-1.38077 0.76059,-2.22779 -0.120298,-1.66123 -1.565629,-2.9076 -3.22439,-2.78624 -1.659114,0.121 -2.908652,1.56457 -2.786943,3.22439 0.0092,0.10901 0.02222,0.2159 0.04127,0.32385 l -12.176477,2.81234 c -0.376767,-1.35078 -1.664055,-2.29588 -3.120673,-2.18934 -0.185915,0.0134 -0.36689,0.0452 -0.543277,0.091 l -5.204883,-16.66593 c 1.029051,-0.38558 1.732843,-1.40511 1.648528,-2.55869 -0.101952,-1.40089 -1.320445,-2.45428 -2.722737,-2.35162 -0.69215,0.0508 -1.297516,0.375 -1.721908,0.85478 L 25.044158,191.0925 c 0.216252,-0.32138 0.334785,-0.7112 0.305152,-1.12572 -0.07197,-0.9913 -0.935567,-1.73461 -1.926167,-1.6637 -0.989541,0.0727 -1.735666,0.9338 -1.661935,1.92617 0.07232,0.98919 0.933802,1.73426 1.924754,1.66264 0.473075,-0.0346 0.887238,-0.25259 1.187098,-0.57679 l 13.121569,10.34627 c -0.325967,0.46355 -0.508352,1.03257 -0.463196,1.64076 0.01976,0.30516 0.104421,0.58914 0.22225,0.84985 l -10.58545,5.45994 c -0.558448,-0.96908 -1.635479,-1.58821 -2.826808,-1.50037 -1.239663,0.0893 -2.249313,0.91899 -2.631723,2.02389 L 0.41674242,203.90821 c 0.06562,-0.26988 0.102304,-0.55104 0.08043,-0.84314 -0.07867,-1.08691 -0.777171,-1.97274 -1.71908502,-2.36044 l 1.63618102,-4.62738 c 0.1905,0.0508 0.386998,0.0773 0.59478298,0.0635 0.989896,-0.0734 1.735315,-0.93487 1.662642,-1.92582 -0.07126,-0.98989 -0.932744,-1.73531 -1.92440198,-1.66264 -0.645935,0.048 -1.181452,0.4318 -1.460148,0.96979 l -7.68526232,-3.25544 c 0.055385,-0.17744 0.080433,-0.36653 0.065969,-0.56127 -0.05856,-0.82373 -0.7764621,-1.44639 -1.6019621,-1.38535 -0.823738,0.0607 -1.444273,0.77787 -1.385006,1.60443 0.06032,0.82373 0.776816,1.44498 1.6023163,1.38501 0.5298731,-0.0385 0.9722563,-0.34925 1.2072063,-0.78529 l 7.68279282,3.25261 c -0.07408,0.21943 -0.106539,0.45579 -0.08925,0.70027 0.0508,0.68333 0.480131,1.24389 1.06539,1.50565 l -1.63512502,4.62351 c -0.3153833,-0.0931 -0.6480519,-0.14041 -0.9948333,-0.11501 -1.5324667,0.11218 -2.6853436,1.44533 -2.5735122,2.97956 0.00458,0.0649 0.022939,0.12665 0.033512,0.19368 l 0.049742,0.27587 c 0.3196167,1.29117 1.5232962,2.20416 2.8956,2.10256 0.3340815,-0.0243 0.6473485,-0.11607 0.9369795,-0.24624 l 2.638777,5.1375 c -0.55139098,0.34184 -0.90381598,0.96308 -0.85513298,1.65629 0.07197,0.9906 0.93626998,1.73743 1.92510798,1.66088 0.468487,-0.0318 0.878769,-0.24871 1.177219,-0.5648 l 4.718756,3.83117 c -0.137583,0.21519 -0.212021,0.47272 -0.191558,0.74542 0.04939,0.6731 0.634645,1.18039 1.309158,1.12994 0.6734516,-0.048 1.1789836,-0.6357 1.1292416,-1.30739 -0.04798,-0.67557 -0.635,-1.18181 -1.3080996,-1.13101 -0.299508,0.0212 -0.561975,0.15523 -0.762,0.3489 l -4.726871,-3.83116 c 0.223663,-0.32456 0.34784,-0.72108 0.317854,-1.14406 -0.07232,-0.9906 -0.934863,-1.73567 -1.925108,-1.66406 -0.198615,0.0152 -0.38453,0.0684 -0.557742,0.14112 l -2.63913098,-5.13857 c 0.573265,-0.33302 1.017765,-0.85442 1.23684,-1.48378 l 21.28308258,6.2223 c -0.07232,0.29774 -0.10019,0.60924 -0.07656,0.92956 0.120298,1.65947 1.565275,2.90866 3.223683,2.78483 1.659467,-0.11783 2.907597,-1.5628 2.786947,-3.22262 -0.02717,-0.36971 -0.122767,-0.7165 -0.269172,-1.03505 l 10.586863,-5.45995 c 0.475544,0.80822 1.372304,1.32539 2.369609,1.25448 0.150987,-0.0109 0.297037,-0.0413 0.437091,-0.0772 l 5.203119,16.66028 c -1.23331,0.44908 -2.072217,1.67393 -1.972734,3.05082 0.120299,1.65841 1.565627,2.90477 3.22439,2.78589 1.659819,-0.12065 2.9083,-1.56598 2.786592,-3.22369 -0.0074,-0.11077 -0.02294,-0.21872 -0.04128,-0.32385 l 12.176829,-2.81516 c 0.378531,1.35255 1.664758,2.29623 3.118556,2.19039 0.7112,-0.0519 1.344435,-0.34678 1.829504,-0.79622 l 7.595658,7.46266 c -0.617712,0.68193 -0.96802,1.60338 -0.89676,2.59257 0.006,0.067 0.01659,0.1337 0.02574,0.19897 l -6.903508,1.18745 c -0.252236,-1.06116 -1.23684,-1.81857 -2.360084,-1.73744 -1.247068,0.0928 -2.181929,1.17828 -2.09056,2.42253 0.08996,1.24883 1.173692,2.18475 2.42076,2.09585 1.246365,-0.0914 2.181225,-1.17687 2.091973,-2.42358 -0.0028,-0.0282 -0.01024,-0.0522 -0.01447,-0.0783 l 6.90245,-1.18921 c 0.141816,0.66922 0.470603,1.25942 0.92851,1.72155 l -11.407421,12.23398 c -0.563033,-0.48013 -1.307748,-0.74683 -2.105025,-0.68932 -1.61431,0.11818 -2.825043,1.52047 -2.707216,3.13372 0.03987,0.54822 0.238479,1.04352 0.530931,1.46085"
       style="fill:#ffffff;fill-opacity:1;fill-rule:nonzero;stroke:none;stroke-width:0.35277775"
       id="path38"
       inkscape:connector-curvature="0"
       clip-path="url(#clipPath5291)" />
    <path
       d="m 59.026456,251.50004 0.171098,0.22261 c 0.582787,0.68086 1.466495,1.0929 2.431695,1.02305 1.613959,-0.11782 2.822927,-1.51941 2.707217,-3.13231 -0.05257,-0.71544 -0.366535,-1.34373 -0.83185,-1.82034 l 11.416242,-12.23786 c 0.674864,0.57926 1.569156,0.90276 2.527651,0.83468 0.652288,-0.0483 1.245659,-0.27482 1.745192,-0.62477 l 2.526948,3.0995 c -0.612423,0.6096 -0.6223,1.6002 -0.01728,2.22109 0.606779,0.62477 1.608667,0.63782 2.232379,0.0307 0.625121,-0.60819 0.638879,-1.60831 0.0314,-2.23414 -0.539396,-0.55245 -1.383946,-0.62406 -2.005187,-0.21166 l -2.521657,-3.09457 c 0.579261,-0.48966 0.995892,-1.16487 1.160286,-1.92405 l 0.04974,-0.27728 c 0.03246,-0.23249 0.04022,-0.47414 0.02328,-0.7172 -0.05785,-0.76729 -0.357717,-1.45591 -0.819502,-1.99955 l 11.381674,-10.4595 c 0.56233,0.5535 1.34267,0.87982 2.19004,0.81668 1.56422,-0.11254 2.73967,-1.47462 2.62432,-3.03777 -0.11325,-1.5621 -1.47215,-2.73756 -3.0346,-2.62361 -0.20849,0.0155 -0.40922,0.0547 -0.59972,0.11112 l -2.00589,-5.72135 c 1.10878,-0.45191 1.85914,-1.56421 1.76635,-2.82046 0,-0.004 -0.001,-0.007 -0.001,-0.012 l 11.531248,-1.45979 c 0.15381,0.76023 0.84455,1.30386 1.63618,1.24742 0.86219,-0.0632 1.50777,-0.80998 1.44674,-1.67287 -0.0632,-0.85725 -0.81139,-1.50531 -1.67181,-1.44251 -0.83326,0.06 -1.46085,0.76693 -1.44498,1.58961 l -11.545358,1.46015 c -0.13582,-0.75494 -0.55809,-1.39383 -1.15287,-1.81398 l 6.00533,-9.4735 c 0.30022,0.15981 0.64382,0.24307 1.00789,0.21661 1.02658,-0.0748 1.79317,-0.96591 1.71979,-1.99108 -0.067,-0.92145 -0.79516,-1.62842 -1.68522,-1.70956 l 0.26352,-17.05892 c 0.0272,-8e-4 0.0522,0.002 0.0801,0.002 0.54715,-0.0409 1.03646,-0.26 1.42592,-0.58808 l 5.374568,5.66914 c -0.26141,0.29704 -0.40851,0.69285 -0.37676,1.1183 0.0624,0.84596 0.79339,1.47744 1.63688,1.41711 0.84314,-0.0628 1.47638,-0.7941 1.41605,-1.63901 -0.0621,-0.84102 -0.79339,-1.4739 -1.63759,-1.41252 -0.3168,0.0236 -0.6029,0.14111 -0.83679,0.3228 l -5.374218,-5.67055 c 0.464258,-0.49143 0.732728,-1.16311 0.678748,-1.88737 -0.0699,-0.96767 -0.689328,-1.75824 -1.528228,-2.11137 l 8.914338,-25.16928 c 0.254,0.0705 0.51999,0.10759 0.79586,0.0878 0.55563,-0.0395 1.04423,-0.28187 1.4157,-0.64276 l 13.07394,12.02443 c -0.28327,0.35948 -0.44273,0.81456 -0.40534,1.30633 0.005,0.0836 0.0254,0.16228 0.0402,0.2413 l -6.07624,1.72015 c -0.23672,-0.60996 -0.84455,-1.02588 -1.53318,-0.97649 -0.84349,0.061 -1.47567,0.79269 -1.41393,1.63477 0.0603,0.84561 0.79269,1.47814 1.63618,1.41711 0.84244,-0.0621 1.47673,-0.7941 1.41394,-1.63971 -0.004,-0.0557 -0.0194,-0.10866 -0.0272,-0.16369 l 6.07766,-1.7212 c 0.28257,0.77329 1.04351,1.30316 1.90782,1.24213 1.04317,-0.0776 1.82598,-0.98496 1.74943,-2.02777 -0.0751,-1.04175 -0.98179,-1.82492 -2.02565,-1.75013 -0.44874,0.0339 -0.84561,0.22578 -1.14971,0.51223 l -13.07422,-12.02276 c 0.3563,-0.4371 0.55668,-1.00119 0.51259,-1.60867 -0.0935,-1.26294 -1.1931,-2.21368 -2.45604,-2.11984 -0.48578,0.0342 -0.9204,0.21943 -1.27036,0.50306 L 89.108262,121.01823 c 0.12418,-0.13652 0.22649,-0.29139 0.30092,-0.46178 l 18.836928,6.77086 c -0.0282,0.11994 -0.0459,0.24835 -0.0339,0.37994 0.0487,0.69638 0.65369,1.21955 1.35114,1.16981 0.69638,-0.0519 1.21849,-0.65581 1.16663,-1.35184 -0.048,-0.69639 -0.65369,-1.21885 -1.35078,-1.16805 -0.46426,0.0321 -0.84737,0.31609 -1.03858,0.70379 l -18.834098,-6.76698 c 0.0487,-0.18309 0.0751,-0.37465 0.061,-0.57362 -0.0691,-0.94826 -0.8957,-1.66193 -1.844675,-1.59138 -0.01198,-2.6e-4 -0.01905,0.004 -0.03281,0.005 L 82.256968,87.110201 c 0.310091,-0.0755 0.587375,-0.222605 0.820914,-0.422275 l 3.934177,4.028017 c -0.195437,0.240945 -0.307268,0.553508 -0.284337,0.887941 0.05009,0.697794 0.654754,1.219552 1.352902,1.169811 0.695678,-0.05009 1.219548,-0.655109 1.169108,-1.35255 -0.0508,-0.696032 -0.65687,-1.21779 -1.352906,-1.165932 -0.259996,0.01693 -0.4953,0.11289 -0.686152,0.261408 l -3.928533,-4.022018 c 0.35066,-0.394052 0.549275,-0.923219 0.508706,-1.49225 -0.03986,-0.525992 -0.2794,-0.98566 -0.635,-1.318332 L 105.51137,56.429823 c 0.31327,0.218017 0.69815,0.339371 1.10843,0.309386 0.95391,-0.07056 1.67146,-0.90029 1.60267,-1.8542 -0.0547,-0.721432 -0.54081,-1.30669 -1.1878,-1.519767 l 3.9123,-15.680267 c 0.10901,0.01553 0.22437,0.02434 0.33973,0.01516 0.84208,-0.06103 1.47214,-0.791985 1.41146,-1.631243 -0.0614,-0.8382 -0.79304,-1.471084 -1.63301,-1.408994 -0.83996,0.05962 -1.47143,0.793044 -1.40899,1.632302 0.0455,0.622652 0.46178,1.131358 1.01811,1.326798 l -3.90313,15.685558 c -0.13088,-0.02151 -0.2667,-0.03105 -0.40463,-0.02188 -0.95427,0.0695 -1.67146,0.899231 -1.60197,1.853142 0.0321,0.444852 0.23354,0.829733 0.52846,1.115835 L 82.936772,83.506206 c -0.371123,-0.263877 -0.824796,-0.411692 -1.31445,-0.375002 -0.887942,0.06209 -1.592088,0.695325 -1.804458,1.51271 l -5.085998,-0.944385 c 0.0035,-0.06174 0.0085,-0.123119 0.0032,-0.184857 -0.04904,-0.694618 -0.654402,-1.218141 -1.350434,-1.165225 -0.151341,0.01024 -0.291745,0.0508 -0.420862,0.107246 l -3.84034,-6.541206 c 0.244124,-0.195792 0.392642,-0.504825 0.367594,-0.841023 -0.03916,-0.543277 -0.510469,-0.951794 -1.0541,-0.910871 -0.544687,0.03951 -0.951442,0.509763 -0.911929,1.052336 0.0381,0.546806 0.510821,0.953558 1.0541,0.9144 0.106892,-0.0095 0.206021,-0.03739 0.29986,-0.07549 l 3.839986,6.544027 c -0.331962,0.247298 -0.535162,0.65405 -0.504119,1.099256 0.05186,0.697794 0.656873,1.222021 1.35255,1.170517 0.535869,-0.04022 0.967669,-0.407458 1.114425,-0.89394 l 5.078587,0.944034 c -0.01376,0.124177 -0.01976,0.250118 -0.01058,0.378883 0.08079,1.115483 1.052338,1.955094 2.167467,1.872544 0.02257,-0.0028 0.04092,-0.0078 0.06209,-0.01093 l 5.434161,31.02222 c -0.629356,0.16298 -1.099963,0.66675 -1.239308,1.28799 l -18.563167,-2.61267 c -7.94e-4,-0.0423 0.0056,-0.0832 0.0019,-0.12665 -0.04939,-0.69603 -0.653695,-1.21779 -1.350785,-1.16699 -0.696735,0.0508 -1.219906,0.65652 -1.169458,1.35008 0.04939,0.6978 0.655814,1.22132 1.351139,1.17052 0.556329,-0.042 0.995892,-0.43603 1.128184,-0.94721 l 18.562105,2.61232 c -0.0046,0.0734 -0.01236,0.14534 -0.006,0.22084 0.04339,0.58067 0.367242,1.06856 0.827969,1.34937 l -1.864783,3.73275 c -0.164746,-0.0596 -0.341136,-0.0878 -0.526696,-0.0737 -0.696738,0.0501 -1.2192,0.6544 -1.1684,1.34972 0.05045,0.69744 0.655812,1.22061 1.351844,1.17123 0.696383,-0.0522 1.219552,-0.65723 1.170165,-1.35255 -0.0314,-0.41275 -0.256117,-0.75883 -0.577499,-0.96626 l 1.868665,-3.73909 c 0.235654,0.0945 0.494242,0.14499 0.764117,0.12664 0.351367,-0.0282 0.670628,-0.15734 0.929918,-0.35807 l 18.141948,19.85539 c -0.31856,0.32737 -0.53728,0.74647 -0.61595,1.21108 l -3.35845,-0.34854 c 10e-4,-0.0656 0.01,-0.12841 0.005,-0.19438 -0.0752,-1.04105 -0.98355,-1.82421 -2.02601,-1.74766 -1.04457,0.0765 -1.827738,0.98107 -1.751188,2.02353 0.0759,1.04352 0.981788,1.82668 2.026708,1.75084 0.87877,-0.0646 1.56704,-0.72214 1.71874,-1.55258 l 3.36161,0.34961 c -0.003,0.09 -0.0127,0.17356 -0.007,0.26422 0.0646,0.88654 0.62935,1.60867 1.39453,1.93499 l -8.913988,25.1707 c -0.27834,-0.0811 -0.57326,-0.12277 -0.87877,-0.10019 -1.24848,0.0907 -2.20662,1.09149 -2.29588,2.3061 l -8.54956,-0.14534 c 0,-0.0102 0.0021,-0.0208 7.94e-4,-0.0307 -0.07408,-1.04034 -0.981075,-1.82492 -2.025298,-1.74837 -0.226836,0.0152 -0.437092,0.0787 -0.631825,0.16616 l -3.854292,-7.14022 c 0.443797,-0.29527 0.723197,-0.80962 0.680509,-1.38007 -0.06138,-0.84243 -0.791634,-1.47531 -1.636535,-1.41252 -0.843844,0.0603 -1.474611,0.79163 -1.414638,1.63372 0.06174,0.8456 0.794454,1.47813 1.637239,1.41534 0.173215,-0.0116 0.33514,-0.0603 0.486482,-0.12383 l 3.853392,7.14129 c -0.564444,0.36336 -0.923219,1.00823 -0.871009,1.72367 0.07726,1.04634 0.982485,1.82668 2.026357,1.75154 0.938035,-0.0677 1.659466,-0.80821 1.740603,-1.71521 l 8.548511,0.1457 c 0.003,0.0272 -0.004,0.0547 -0.001,0.0825 0.0921,1.25307 1.09784,2.21545 2.31563,2.29764 l -0.26917,17.06034 c -0.008,0 -0.0148,-0.002 -0.0243,0 -1.02588,0.0734 -1.79317,0.96343 -1.71944,1.98719 0.0402,0.56198 0.32985,1.03823 0.74648,1.34903 l -5.99934,9.46926 c -0.47167,-0.26811 -1.02412,-0.4064 -1.60761,-0.36301 -0.37253,0.0268 -0.720721,0.12911 -1.039279,0.28469 l -4.026959,-7.27004 c 0.554567,-0.3676 0.903817,-1.00683 0.853724,-1.71662 -0.07655,-1.04069 -0.983192,-1.82316 -2.027767,-1.74872 -1.043517,0.0759 -1.824567,0.98178 -1.749073,2.02283 0.07514,1.04492 0.981075,1.82915 2.025298,1.75295 0.232479,-0.0169 0.451554,-0.0801 0.651579,-0.17533 l 4.031898,7.2778 c -0.869598,0.5394 -1.420635,1.51836 -1.343025,2.6095 0.115358,1.56245 1.473906,2.73826 3.037764,2.62361 0.20885,-0.0152 0.4057,-0.0561 0.59725,-0.11148 l 2.00449,5.72276 c -1.10667,0.45156 -1.8542,1.56528 -1.76354,2.82364 0.0452,0.61277 0.28646,1.16169 0.65158,1.60161 l -11.37653,10.45639 c -0.691443,-0.69427 -1.668637,-1.09537 -2.722737,-1.01847 -0.830085,0.0596 -1.57339,0.4064 -2.1336,0.93521 l -7.59469,-7.45948 c 0.523523,-0.58843 0.821973,-1.38077 0.76059,-2.22779 -0.120298,-1.66123 -1.565629,-2.9076 -3.22439,-2.78624 -1.659114,0.121 -2.908652,1.56457 -2.786943,3.22439 0.0092,0.10901 0.02222,0.2159 0.04127,0.32385 l -12.176477,2.81234 c -0.376767,-1.35078 -1.664055,-2.29588 -3.120673,-2.18934 -0.185915,0.0134 -0.36689,0.0452 -0.543277,0.091 l -5.204883,-16.66593 c 1.029051,-0.38558 1.732843,-1.40511 1.648528,-2.55869 -0.101952,-1.40089 -1.320445,-2.45428 -2.722737,-2.35162 -0.69215,0.0508 -1.297516,0.375 -1.721908,0.85478 L 25.044158,191.0925 c 0.216252,-0.32138 0.334785,-0.7112 0.305152,-1.12572 -0.07197,-0.9913 -0.935567,-1.73461 -1.926167,-1.6637 -0.989541,0.0727 -1.735666,0.9338 -1.661935,1.92617 0.07232,0.98919 0.933802,1.73426 1.924754,1.66264 0.473075,-0.0346 0.887238,-0.25259 1.187098,-0.57679 l 13.121569,10.34627 c -0.325967,0.46355 -0.508352,1.03257 -0.463196,1.64076 0.01976,0.30516 0.104421,0.58914 0.22225,0.84985 l -10.58545,5.45994 c -0.558448,-0.96908 -1.635479,-1.58821 -2.826808,-1.50037 -1.239663,0.0893 -2.249313,0.91899 -2.631723,2.02389 L 0.41674242,203.90821 c 0.06562,-0.26988 0.102304,-0.55104 0.08043,-0.84314 -0.07867,-1.08691 -0.777171,-1.97274 -1.71908502,-2.36044 l 1.63618102,-4.62738 c 0.1905,0.0508 0.386998,0.0773 0.59478298,0.0635 0.989896,-0.0734 1.735315,-0.93487 1.662642,-1.92582 -0.07126,-0.98989 -0.932744,-1.73531 -1.92440198,-1.66264 -0.645935,0.048 -1.181452,0.4318 -1.460148,0.96979 l -7.68526232,-3.25544 c 0.055385,-0.17744 0.080433,-0.36653 0.065969,-0.56127 -0.05856,-0.82373 -0.7764621,-1.44639 -1.6019621,-1.38535 -0.823738,0.0607 -1.444273,0.77787 -1.385006,1.60443 0.06032,0.82373 0.776816,1.44498 1.6023163,1.38501 0.5298731,-0.0385 0.9722563,-0.34925 1.2072063,-0.78529 l 7.68279282,3.25261 c -0.07408,0.21943 -0.106539,0.45579 -0.08925,0.70027 0.0508,0.68333 0.480131,1.24389 1.06539,1.50565 l -1.63512502,4.62351 c -0.3153833,-0.0931 -0.6480519,-0.14041 -0.9948333,-0.11501 -1.5324667,0.11218 -2.6853436,1.44533 -2.5735122,2.97956 0.00458,0.0649 0.022939,0.12665 0.033512,0.19368 l 0.049742,0.27587 c 0.3196167,1.29117 1.5232962,2.20416 2.8956,2.10256 0.3340815,-0.0243 0.6473485,-0.11607 0.9369795,-0.24624 l 2.638777,5.1375 c -0.55139098,0.34184 -0.90381598,0.96308 -0.85513298,1.65629 0.07197,0.9906 0.93626998,1.73743 1.92510798,1.66088 0.468487,-0.0318 0.878769,-0.24871 1.177219,-0.5648 l 4.718756,3.83117 c -0.137583,0.21519 -0.212021,0.47272 -0.191558,0.74542 0.04939,0.6731 0.634645,1.18039 1.309158,1.12994 0.6734516,-0.048 1.1789836,-0.6357 1.1292416,-1.30739 -0.04798,-0.67557 -0.635,-1.18181 -1.3080996,-1.13101 -0.299508,0.0212 -0.561975,0.15523 -0.762,0.3489 l -4.726871,-3.83116 c 0.223663,-0.32456 0.34784,-0.72108 0.317854,-1.14406 -0.07232,-0.9906 -0.934863,-1.73567 -1.925108,-1.66406 -0.198615,0.0152 -0.38453,0.0684 -0.557742,0.14112 l -2.63913098,-5.13857 c 0.573265,-0.33302 1.017765,-0.85442 1.23684,-1.48378 l 21.28308258,6.2223 c -0.07232,0.29774 -0.10019,0.60924 -0.07656,0.92956 0.120298,1.65947 1.565275,2.90866 3.223683,2.78483 1.659467,-0.11783 2.907597,-1.5628 2.786947,-3.22262 -0.02717,-0.36971 -0.122767,-0.7165 -0.269172,-1.03505 l 10.586863,-5.45995 c 0.475544,0.80822 1.372304,1.32539 2.369609,1.25448 0.150987,-0.0109 0.297037,-0.0413 0.437091,-0.0772 l 5.203119,16.66028 c -1.23331,0.44908 -2.072217,1.67393 -1.972734,3.05082 0.120299,1.65841 1.565627,2.90477 3.22439,2.78589 1.659819,-0.12065 2.9083,-1.56598 2.786592,-3.22369 -0.0074,-0.11077 -0.02294,-0.21872 -0.04128,-0.32385 l 12.176829,-2.81516 c 0.378531,1.35255 1.664758,2.29623 3.118556,2.19039 0.7112,-0.0519 1.344435,-0.34678 1.829504,-0.79622 l 7.595658,7.46266 c -0.617712,0.68193 -0.96802,1.60338 -0.89676,2.59257 0.006,0.067 0.01659,0.1337 0.02574,0.19897 l -6.903508,1.18745 c -0.252236,-1.06116 -1.23684,-1.81857 -2.360084,-1.73744 -1.247068,0.0928 -2.181929,1.17828 -2.09056,2.42253 0.08996,1.24883 1.173692,2.18475 2.42076,2.09585 1.246365,-0.0914 2.181225,-1.17687 2.091973,-2.42358 -0.0028,-0.0282 -0.01024,-0.0522 -0.01447,-0.0783 l 6.90245,-1.18921 c 0.141816,0.66922 0.470603,1.25942 0.92851,1.72155 l -11.407421,12.23398 c -0.563033,-0.48013 -1.307748,-0.74683 -2.105025,-0.68932 -1.61431,0.11818 -2.825043,1.52047 -2.707216,3.13372 0.03987,0.54822 0.238479,1.04352 0.530931,1.46085 z"
       style="fill:none;stroke:#807a8c;stroke-width:0.35277775;stroke-linecap:butt;stroke-linejoin:miter;stroke-miterlimit:10;stroke-dasharray:none;stroke-opacity:1"
       id="path42"
       inkscape:connector-curvature="0"
       clip-path="url(#clipPath5287)" />
  </g>
</svg>
